<mxfile host="65bd71144e">
    <diagram id="HIP3nbAZw_EuaXWnEj3U" name="Page-1">
        <mxGraphModel dx="835" dy="570" grid="1" gridSize="10" guides="1" tooltips="1" connect="1" arrows="1" fold="1" page="1" pageScale="1" pageWidth="850" pageHeight="1100" math="0" shadow="0">
            <root>
                <mxCell id="0"/>
                <mxCell id="1" parent="0"/>
                <mxCell id="11" value="http://ics2o.mths.ca" style="swimlane;whiteSpace=wrap;html=1;" vertex="1" parent="1">
                    <mxGeometry x="10" y="230" width="770" height="480" as="geometry"/>
                </mxCell>
                <mxCell id="13" value="Converting Fahrenheit to celsius with JS" style="rounded=0;whiteSpace=wrap;html=1;" vertex="1" parent="11">
                    <mxGeometry y="20" width="770" height="40" as="geometry"/>
                </mxCell>
                <mxCell id="14" value="&lt;font style=&quot;font-size: 24px;&quot;&gt;formula&lt;/font&gt;" style="text;html=1;align=center;verticalAlign=middle;resizable=0;points=[];autosize=1;strokeColor=none;fillColor=none;" vertex="1" parent="11">
                    <mxGeometry x="5" y="80" width="100" height="40" as="geometry"/>
                </mxCell>
                <mxCell id="15" value="&lt;span style=&quot;font-size: 16px;&quot;&gt;C = 5/9(f - 32)&lt;/span&gt;" style="text;html=1;align=center;verticalAlign=middle;resizable=0;points=[];autosize=1;strokeColor=none;fillColor=none;" vertex="1" parent="11">
                    <mxGeometry y="130" width="120" height="30" as="geometry"/>
                </mxCell>
                <mxCell id="16" value="&lt;span style=&quot;font-size: 15px;&quot;&gt;converting Fahrenheit to celsius&lt;/span&gt;" style="text;html=1;align=center;verticalAlign=middle;resizable=0;points=[];autosize=1;strokeColor=none;fillColor=none;" vertex="1" parent="11">
                    <mxGeometry y="200" width="240" height="30" as="geometry"/>
                </mxCell>
                <mxCell id="17" value="&lt;span style=&quot;font-size: 16px;&quot;&gt;Fahrenheit&lt;/span&gt;" style="text;html=1;align=center;verticalAlign=middle;resizable=0;points=[];autosize=1;strokeColor=none;fillColor=none;" vertex="1" parent="11">
                    <mxGeometry x="-5" y="260" width="100" height="30" as="geometry"/>
                </mxCell>
                <mxCell id="18" value="&lt;span style=&quot;font-size: 16px;&quot;&gt;Celsius&lt;/span&gt;" style="text;html=1;align=center;verticalAlign=middle;resizable=0;points=[];autosize=1;strokeColor=none;fillColor=none;" vertex="1" parent="11">
                    <mxGeometry x="200" y="260" width="80" height="30" as="geometry"/>
                </mxCell>
                <mxCell id="19" value="&lt;span style=&quot;font-size: 16px;&quot;&gt;Celsius is 0 degree celsius&lt;/span&gt;" style="text;html=1;align=center;verticalAlign=middle;resizable=0;points=[];autosize=1;strokeColor=none;fillColor=none;" vertex="1" parent="11">
                    <mxGeometry x="40" y="400" width="210" height="30" as="geometry"/>
                </mxCell>
                <mxCell id="20" value="&lt;font style=&quot;font-size: 16px;&quot;&gt;calculate&lt;/font&gt;" style="text;html=1;align=center;verticalAlign=middle;resizable=0;points=[];autosize=1;strokeColor=none;fillColor=none;" vertex="1" parent="11">
                    <mxGeometry x="15" y="340" width="90" height="30" as="geometry"/>
                </mxCell>
                <mxCell id="21" value="" style="rounded=1;whiteSpace=wrap;html=1;" vertex="1" parent="11">
                    <mxGeometry x="90" y="260" width="120" height="30" as="geometry"/>
                </mxCell>
                <mxCell id="22" value="" style="shape=image;verticalLabelPosition=bottom;labelBackgroundColor=default;verticalAlign=top;aspect=fixed;imageAspect=0;image=data:image/jpeg,/9j/4AAQSkZJRgABAgEASABIAAD/7QAsUGhvdG9zaG9wIDMuMAA4QklNA+0AAAAAABAASAAAAAEAAQBIAAAAAQAB/+Fyb2h0dHA6Ly9ucy5hZG9iZS5jb20veGFwLzEuMC8APD94cGFja2V0IGJlZ2luPSLvu78iIGlkPSJXNU0wTXBDZWhpSHpyZVN6TlRjemtjOWQiPz4KPHg6eG1wbWV0YSB4bWxuczp4PSJhZG9iZTpuczptZXRhLyIgeDp4bXB0az0iQWRvYmUgWE1QIENvcmUgNS4zLWMwMTEgNjYuMTQ1NjYxLCAyMDEyLzAyLzA2LTE0OjU2OjI3ICAgICAgICAiPgogICA8cmRmOlJERiB4bWxuczpyZGY9Imh0dHA6Ly93d3cudzMub3JnLzE5OTkvMDIvMjItcmRmLXN5bnRheC1ucyMiPgogICAgICA8cmRmOkRlc2NyaXB0aW9uIHJkZjphYm91dD0iIgogICAgICAgICAgICB4bWxuczpkYz0iaHR0cDovL3B1cmwub3JnL2RjL2VsZW1lbnRzLzEuMS8iPgogICAgICAgICA8ZGM6Zm9ybWF0PmltYWdlL2pwZWc8L2RjOmZvcm1hdD4KICAgICAgICAgPGRjOnRpdGxlPgogICAgICAgICAgICA8cmRmOkFsdD4KICAgICAgICAgICAgICAgPHJkZjpsaSB4bWw6bGFuZz0ieC1kZWZhdWx0Ij5QcmludDwvcmRmOmxpPgogICAgICAgICAgICA8L3JkZjpBbHQ+CiAgICAgICAgIDwvZGM6dGl0bGU+CiAgICAgIDwvcmRmOkRlc2NyaXB0aW9uPgogICAgICA8cmRmOkRlc2NyaXB0aW9uIHJkZjphYm91dD0iIgogICAgICAgICAgICB4bWxuczp4bXA9Imh0dHA6Ly9ucy5hZG9iZS5jb20veGFwLzEuMC8iCiAgICAgICAgICAgIHhtbG5zOnhtcEdJbWc9Imh0dHA6Ly9ucy5hZG9iZS5jb20veGFwLzEuMC9nL2ltZy8iPgogICAgICAgICA8eG1wOk1ldGFkYXRhRGF0ZT4yMDEzLTEwLTAxVDE0OjExOjMxLTA0OjAwPC94bXA6TWV0YWRhdGFEYXRlPgogICAgICAgICA8eG1wOk1vZGlmeURhdGU+MjAxMy0xMC0wMVQxODoxMTozNVo8L3htcDpNb2RpZnlEYXRlPgogICAgICAgICA8eG1wOkNyZWF0ZURhdGU+MjAxMy0xMC0wMVQxNDoxMTozMS0wNDowMDwveG1wOkNyZWF0ZURhdGU+CiAgICAgICAgIDx4bXA6Q3JlYXRvclRvb2w+QWRvYmUgSWxsdXN0cmF0b3IgQ1M2IChNYWNpbnRvc2gpPC94bXA6Q3JlYXRvclRvb2w+CiAgICAgICAgIDx4bXA6VGh1bWJuYWlscz4KICAgICAgICAgICAgPHJkZjpBbHQ+CiAgICAgICAgICAgICAgIDxyZGY6bGkgcmRmOnBhcnNlVHlwZT0iUmVzb3VyY2UiPgogICAgICAgICAgICAgICAgICA8eG1wR0ltZzp3aWR0aD4yNTY8L3htcEdJbWc6d2lkdGg+CiAgICAgICAgICAgICAgICAgIDx4bXBHSW1nOmhlaWdodD4yMDA8L3htcEdJbWc6aGVpZ2h0PgogICAgICAgICAgICAgICAgICA8eG1wR0ltZzpmb3JtYXQ+SlBFRzwveG1wR0ltZzpmb3JtYXQ+CiAgICAgICAgICAgICAgICAgIDx4bXBHSW1nOmltYWdlPi85ai80QUFRU2taSlJnQUJBZ0VBU0FCSUFBRC83UUFzVUdodmRHOXphRzl3SURNdU1BQTRRa2xOQSswQUFBQUFBQkFBU0FBQUFBRUEmI3hBO0FRQklBQUFBQVFBQi8rNEFEa0ZrYjJKbEFHVEFBQUFBQWYvYkFJUUFCZ1FFQkFVRUJnVUZCZ2tHQlFZSkN3Z0dCZ2dMREFvS0N3b0smI3hBO0RCQU1EQXdNREF3UURBNFBFQThPREJNVEZCUVRFeHdiR3hzY0h4OGZIeDhmSHg4Zkh3RUhCd2NOREEwWUVCQVlHaFVSRlJvZkh4OGYmI3hBO0h4OGZIeDhmSHg4Zkh4OGZIeDhmSHg4Zkh4OGZIeDhmSHg4Zkh4OGZIeDhmSHg4Zkh4OGZIeDhmSHg4Zi84QUFFUWdBeUFFQUF3RVImI3hBO0FBSVJBUU1SQWYvRUFhSUFBQUFIQVFFQkFRRUFBQUFBQUFBQUFBUUZBd0lHQVFBSENBa0tDd0VBQWdJREFRRUJBUUVBQUFBQUFBQUEmI3hBO0FRQUNBd1FGQmdjSUNRb0xFQUFDQVFNREFnUUNCZ2NEQkFJR0FuTUJBZ01SQkFBRklSSXhRVkVHRTJFaWNZRVVNcEdoQnhXeFFpUEImI3hBO1V0SGhNeFppOENSeWd2RWxRelJUa3FLeVkzUENOVVFuazZPek5oZFVaSFREMHVJSUpvTUpDaGdaaEpSRlJxUzBWdE5WS0JyeTQvUEUmI3hBOzFPVDBaWFdGbGFXMXhkWGw5V1oyaHBhbXRzYlc1dlkzUjFkbmQ0ZVhwN2ZIMStmM09FaFlhSGlJbUtpNHlOam8rQ2s1U1ZscGVZbVomI3hBO3FibkoyZW41S2pwS1dtcDZpcHFxdXNyYTZ2b1JBQUlDQVFJREJRVUVCUVlFQ0FNRGJRRUFBaEVEQkNFU01VRUZVUk5oSWdaeGdaRXkmI3hBO29iSHdGTUhSNFNOQ0ZWSmljdkV6SkRSRGdoYVNVeVdpWTdMQ0IzUFNOZUpFZ3hkVWt3Z0pDaGdaSmpaRkdpZGtkRlUzOHFPend5Z3AmI3hBOzArUHpoSlNrdE1UVTVQUmxkWVdWcGJYRjFlWDFSbFptZG9hV3ByYkcxdWIyUjFkbmQ0ZVhwN2ZIMStmM09FaFlhSGlJbUtpNHlOam8mI3hBOytEbEpXV2w1aVptcHVjblo2ZmtxT2twYWFucUttcXE2eXRycSt2L2FBQXdEQVFBQ0VRTVJBRDhBNmRZYWZZdHA5c1d0b2l4aVFrbU4mI3hBO1NTU285c3o1U05uZDFSeUcxeDAreEIvM2xoLzVGcC9USGlQZXZpSHZkOVFzS2Y3elEvOEFJdFA2WU9JOTZSa1BlMGRQc1A4QWxsaC8mI3hBOzVGcC9USGlQZXlFejNyRFlXUDhBeXpRLzhpMC9wanhIdlpjWlVYMCt4LzVab3Y4QWtXbjlNUEVlOWVNb2FXenMxSzB0NHV2KysxL3AmI3hBO2tveU44Mk1wRkd4MkZoeEIrcXcvOGkwL3BsdGxwNHozci9xRmhYL2VXSC9rV245TWxaWGpLakpwdGlHLzNsaC81RnAvVEd5dkdlOTMmI3hBOzZOc1ArV1NIL2tXbjlNYks4WmQrak5PLzVaWWYrUmFmMHdXVThaYi9BRWJwL3dEeXl3LzhpMC9walpYakxZMDdULzhBbGxoLzVGcC8mI3hBO1RHeW5qTFkwM1RqL0FNZXNQL0l0UDZZTFBlbmpLNGFkcDMvTEpEL3lMVCttTm52WGlLOGFkcDNlMGcvNUZwL1RHejNwNGl2R202YWYmI3hBOytQU0NuZjhBZHAvVEJaNzE0aTJkTDAwLzhlY0gvSXRQNllMUGVuaUxZMHZUQTFmcWNCLzU1Si9UQlo3MDhUYTZWcGRDZnFjSHQrNlQmI3hBOyttUEVlOVBFdVhTOUxIL0huQWZiMGsvcGc0ajNwNGwvNk4wa2pleGdCOFJFbjlNZUk5NjIydWs2V2Y4QWp6dC8rUlNmMHdjUjd5bmkmI3hBO1hMcFdsQS83eFcveTlKUDZZT0tYZVUycUxwV2xkN0czL3dDUlNmMHdjVXU4cHRVR2thUi95dzIvL0lxUCttUEZMdksyMytodEg3V04mI3hBO3YveUtUK21EaWwzbE50alJ0SUhXd3QvK1JVZjlNSEZMdktiWERSZEcvd0NXQzMvNUVwL1RCeHk3eW0xdzBYUnU5aGJmOGlvLzZZT0smI3hBO1hlVnRDYXpwR2tKbzk4NldOdXJyYnlsV0VTQWdoQ1FRUU1NSnk0aHVlYVVKcHAvM0hXdi9BQmhqL3dDSWpMSmN5NjZSM0t1NEJGZkQmI3hBO0kwZ0ZSQnIweFpXdUl3TWdWakRGbUNvek1xQ3BPRUp0TDVwK1RLT05CWEp4REF5VEdKaHhHVzAxV3E0Vld5RGF1S3JLNFZkVUg1NHEmI3hBOzdmdGltM1Z3SnRzSDN4VndiRks0TmdUYTROZ3BOcjFjL2RpbGVyMXdLdURkTUNiWGN0NjlmQVlLVGJZZnVmdXdKWEJpQlVHbUtWeGsmI3hBO0pwVWIrT0pVTGd4N0RCU2JYQjhGSlZCS2NDVlJaSzRLVzF3WVlLVGE0T1I4c0ZKdEJhNC8rNGErL3dDWWVYL2lCd3dIcUh2VGFVNmMmI3hBOzMrZ1czL0dKUCtJakxaYzNXek81VjNrWlZxb3FhOU1GSXRFNmZCRE9qdTY3ZzA3akFXeUc2TStvMjM4djRuQXpwbzJGdC9LZnZPS1UmI3hBO1BKcE5telZLRS83STRWcFNiUnJBMC9kbnIvTWNJS2tJbGRNczZENEQ5NXlmRVdQQ0YzNlB0UVBzbjd6anhGZUVPK29XcEgyVDk1eDQmI3hBO2l2Q0ZoMDIwL2xQM25IaUs4SWQranJUK1UvZWNlSXJ3aHY4QVIxcC9LZnZPUEVWNFE3OUhXbjhwKzg0OFJXZzc5RzJuOGgrODQ4UlQmI3hBO1R2MGRhZnlIN3pqeEZhZCtqclQrVS9lY2VJcHBzYWZhL3dBcCs4NE9JclRmMUMxL2xQM25IaUt0aXh0ZjVUOTV4NGlsY0xLMi9sUDMmI3hBO25CeEszOVR0L0Q4VGphdC9VN2YrWDhUamFYQ3pnOEQ5NXdXdHQvVklQNWZ4T05wdHNXMEk2QS9lY2JXMi9xOEo3ZmljVnR2NnZENGYmI3hBO2ljQ2JiK3J4ZUg0NHJ4RjBxb2taYW00OS9mQWtGU0Rqc2NXYUQxdHE2UmZmOHc4di9FRGhpTndrRko5UGYvUWJmL2pFbi9FUmxzaHUmI3hBOzZ1WjlSOTZ2Skl3allwdXdGUU1qU0xSdWczUm5pazVMeElJL1Zna0c3R1V6NVV5TGE3bmlsd0l4VmE5S0RFSlhqcGhRN0Nyc1VMU0QmI3hBOzN4VnJGWGpuNXNhVCtsUHpFMFMxL1FYK0lxNmRPMzZOK3QvVWE4WlB0K3RWZnMrSGZLTWd1UTJ0eThKcUIzcmROcmJVTDN5am9PaDYmI3hBO0RvSGwySFI5ZTh3WE54Nk9tWGQyOTNid0dJVmVXU2RTelBWQWg0cWUvaU1OOElBQTNMR2hJa2syQW82aithbm1iVFBMZm1qNjdaMmEmI3hBO2VadkxFbG1rb2pNc2xuS2w0NkJYVUZra0h3c2RpM2g4c1RrSUI3d2tZUVNLNUZFYXA1eC9NNngxWHkvb3JXZWp0cTJ1RzhLclc1OUcmI3hBO09PQ0paSTZ5VjVWV3JjL2czcFJhZGNUT1ZnYmJvR09CQk85QkxyVDgxZlBEV09uYXJkYVpwNmFaK2t4bzJwOEhtTXp6bHlwa3R3ZmgmI3hBO1NOZjhzc1NjSGltclpIREc2czNWcDlQNS93QllqazgvS0liZW5sYUdPVFQ2cS94czhEeW4xdmorTDRrSDJlT1M0enY1TVBESHA4MHYmI3hBO3R0Vm52dlAvQUpWMWFjUnBQZGVXcExxVVZNY1FlVGhJMjU1bFVCUHZRWkcvVUQ1TXVHb0VmMGwvbHo4eHZNOC9uVFQ5RDFSZEx1ckwmI3hBO1ZvNTVMTzgwcjYwVVVRSXowTXM2ckhMVUwvdXY1OXhoamtOMHM4UUViRnZUUWN1Y2R1dUJXNjRxM1hGTHNWZGlycW5GVjNJSHIxeFYmI3hBO3dPQktuZEg5dzMwZnJ4U0VDR3hwbmFHMW1VblNiMnU5WUpmK0lISlI1aElTZXhlbG5BUCtLMC80aU11SWRQa2w2ajcwU0h5Tk1SSnQmI3hBO2RmaDA4bEh0YnFjdlFocmFDU1lEdFFsQWFIQ01kOVE1V0FXRjQ4MzJwRmYwZnFmL0FFZzNIL05PUGdIdmo4dzVIQzMvQUl2dGYrcmQmI3hBO3FmOEEwZzNIL05PUGdudmo4d25oWEw1dXRlK25hbi8wZ1hIL0FEUmc4RTk4Zm1GNFduODNXbFArT2RxZi9TRGNmODA0K0NlK1B6Q2UmI3hBO0ZlUE45clQvQUk1MnFmOEFTQmNmODBZZkJQZkg1aEhDNy9GOXIvMWJ0VS82UUxqL0FKb3g4RTk4Zm1GNFhmNHZ0ZjhBcTNhcC93QkkmI3hBO0Z4L3pSaDhFOThmbUY0V204M1dwSC9ITzFUL3BBdVArYU1mQlBmSDVoZUZiL2k2MS93Q3JkcWYvQUVnM0gvTk9QZ252ajh3dkNsRngmI3hBO2NhTlA1bnRQTVQyV3NDOXM3ZVMwaWpGbE42UlNVOG1MRDArWEx3K0xJL2w5N3NmTU13VHcxc3ArYWhvSG1XMmdpdmJEV29KN1NUMXImI3hBO0s5dExXNWh1SUpLVTVSdUVQYnhCeGxwNzZqNWhZRXg1VWt6ZVZmS0RlV3RTMEY3WHpCSXVyeVJ6YWpxVWx0UEplVFBDNnVoYVI0bVgmI3hBO3F2OEFMNDVIOHJ0Vmo1aG40a3JCMjJUdlVaTkV2L01PajY3TlpheXQzb2duRnJHbGxNSTIrc3grbS9xQXhGalFkS01Na2RQWnV4OHcmI3hBO3dCSUJHMjZWL29EeXNkR1RTUHF1dmZWazFMOUxoL3FjblAxK1pmalgwYWNLbnBTdnZrZnl1MVdQbUdmaVN1OXVWSWZ6QjVVOHBhM3EmI3hBO3VvYWpORDVqdFgxV0pZdFF0N1NDNGlobTRMeFIzVDBqeVpld2I0ZmJHV2tzOHg4d21PU1FGYmJJODZYNVhhV3hlV3gxdVZiSFMyMFYmI3hBO0ltczV1TDJ6b0VZdnhpRGN5bzZxUjhzUDVYekh6REhqUGx6dEFhRDVWOHJhTHFXbTZqYnA1a3VMblN2VVN6K3RRVHpJc01pR1AwUXAmI3hBO2lvc2FoalFKUTE2azRCcEtOMlBtR1VzaElyYmRtMytMclgvcTNhbi9BTklOeC96UmxuZ252ajh3MDhMdjhYMnYvVnUxUC9wQnVQOEEmI3hBO21qQjRKNzQvTUx3dC93Q0w3WC9xM2FuL0FOSUZ4L3pSajRKNzQvTUo0Vy84WDJ2L0FGYnRVLzZRTGovbWpId1QzeCtZWGhiL0FNWVcmI3hBO3YvVnQxVC9wQXVQK2FNZkJQZkg1aGVGMytNTFgvcTNhcC8wZ1hIL05HUGdudmo4d3ZDNy9BQmhhZjlXN1ZQOEFwQXVQK2FjZkJQZkgmI3hBOzVoUEM3L0Y5ci8xYmRVLzZRTGovQUpveDhFOThmbUY0Vy84QUdGcC8xYnRVL3dDa0M0LzVveDhFOThmbUY0VnllWllMeHhiSlpYOEwmI3hBO1NkSko3U2FLTVUzK0ozVUtPbTJST0lqZXg4MXBXRDVDazJoZFhZZm91OC80d1NmOFFPR1BNSkNUV2IvNkxEL3hqWDlReklJZEhsbDYmI3hBO3o3eXJpVEJURVNUZlJncnd5MS9tSDZzcm01ZW5PeFRBS3FkNkQ1NUJ5TFFPdGE1WWFQWnBjM1JkeE5LbHZiUXhMemtsbWxORWpSZTcmI3hBO0gzMjhjaEkwMlFpWkZiWmVZWVpZTHFXL3RMalJ4WmdOY0cvRWFSaEdxUXduamVXQmh0dnhrTk85TUZxWTkyN2N2bWJ5NExPRzhPcTImI3hBO1l0Snl3Z3VQckVYcHVVQlorRDh1TGNWRlRUcGg0Z25nbDNJaTIxM1JMaEExdnFGdE12b2ZXcXh6UnNQUXFWOWJZLzNkUVJ5NlliQzgmI3hBO0o3bW8vTU9neVQyMXZIcVZxODk0Z2x0SWxuakx6UmtWRHhxR3E2bnhHUEVGNFQzSlZxbjVrZVNOTWFGTG5XYlJwSjUwdDFqam5pZGwmI3hBO1puS0Y1QUcrQkVLbm16YkNuanRrVGtpT3JNWXBIb2pGODRlWGtFMzF5K3RySDBwcDRCOVl1YlljemJFZW95OEpYb0Y1Q29hakwrMG8mI3hBO3c4UVk4QjdrUmM2L29OdEZielhPcFdzTU4ySzJza2s4YUxLS2NxeGtzQTIyKzJIaUNpSjdrRnIzbTNTOUgwV0xXS1BmMmx4SkRGYmYmI3hBO1V6SElaRGNNRmpLTTd4eGxTV0cvTEJLWUF0TWNaSnBWWHpIYndXVWw1clVEYUJBamhBK3BUV2lLeFliVWVLZVpQdllIRHhkK3k4UGQmI3hBO3VoWi9QZmxxMzFvYVZjM2NjQmF6anY0NzJXU0pMVjQ1WlRFaXBJemlybGw2VTZkOEhHTHBJeHlxMHhrMS9RbzczNmpKcU5xbDZSVVcmI3hBO3JUUmlXaFF5ZllMY3ZzQXQwNmI0ZUlNZUU4NldKNW04dVBacmVwcXRtMW0wb2dXNUZ4RVlqS2VrWWNOeDVuK1d0Y2VJZDY4RXU1TDcmI3hBOzN6LzVXdFp0TEJ2b3ByVFZXdUVnMUdLV0ZyUkRheG1TUXl6Y3dxaWdwdFhmQVpoa01VamZrbVV2bUx5L0REYXp5Nm5hUnczeEFzcFgmI3hBO25qVlp5ZW5wTVdvOWEvczRlSU1lQTl5V2F0NS84dDZSTzhPcDNLMnBXN2lzVlpwWUNESk1vZmt3V1JtaVJGYXJHVUx0dnZVVmlaZ00mI3hBOzQ0aWVTTTFUelpvT2w2dnBta1h0MGtWOXF6TXRuR3hBQjRpdnhFa1U1TlJFN3N4b01Ka0FhWWlCSUo3a1hhNnpvOTNlVDJOcmZXOXgmI3hBO2Uydis5TnJGS2p5eDcwK05GSlpkL0VZUVFneEkzUUdvK2E3ZTExR1RUYld5dXRVdnJlSmJpN2hzeEVUREU1SVJuTTBrS2t0eFBGRkomI3hBO1krR0F5M3BrSVdMNUl0Zk1PamdXUXVMcExPZlVGRFdscGRrVzl3OWYyUkRMeGs1RHVLWThRUndsQ1czbmp5MjhGNWNYVjNIcHNObGYmI3hBO1RhYThsOUpGQXJUMjVvM0FzOUNEMjcrMkRqREk0eWlwdk0yajI5M0xCYzNFVnZGREJGY05kU3oyNng4WjNNY2V4azlRY21GQXhRS2EmI3hBOzBCSjJ4NGdqZ0tyZGVZdEFzL3JQMXpVN1MzK3BtTmJ2MXA0NC9STXdyR0pPVERoekgyZVhYdGg0Z29pVDBSbHRkVzExYngzRnRLazkmI3hBO3ZLb2FLYU5nNk1wNkZXV29Jd2hCVmNWVUwwMHRYUHkvV01JVkt3MlNTaGRWSi9SbDMveGhrLzRnY01lWVNEdWtWdEtCYngreUwrck0mI3hBO3VubmMwdjNrdmVWVVhTL1BCd29FaW52bDZYbkRLZkJoK3JLTW9jN1NuWXBxNmh4dnNleHl0eTJPZWJkRjFPOVRTcnV4UlpiblNMK0smI3hBOytXMlpnZ2xWVmFPUkF4MkRjSkNWcnRVWkRJTHFtM0ZNQ3dlb1FIbWUxOHkrWWRLajQ2UWJWYkcvczcyT3h1SjRUTGRSMjhuT1dKeEUmI3hBO3p3cFdud1ZsTlQxNDVDUUpISnN4bU1UejVoSmw4bmVZSi9ObHJyc3RoOVh0SjlaYlVKYkY1SVMxdkd0bDZBbGZnN29aSkpGREVSbHEmI3hBO1pFUVBGZm0yZUxIaHEraVd5Zmx2NXFHaFdVZGxiaTF2NWJqVU5QMUVDV01jZEwxRzRaeklDR0tuZ0FHQ2pmZnBnOEkweThlTitXM3omI3hBO1RHNS9ML1dVOHlYY2NjZDFKcEZ6ZTJGMWFTVzg5bkREREhab3FnU0dXS2E2RFJjUGdXTDRXQm9TdStId3phQm1GZWU2OVBKM21DMzgmI3hBO3FhUkdOUGFXL3dCTzh4SFZwclNPU0FTUEFMcVZxcXp1c1pZeE9wb1hHSWdhSHZRY2dNanYvRFR0TDhrYTh2blN6MUs3c0I5UmkxUFgmI3hBO2JwcEdlRnVNZDhzUXQyNGhpZmo0dDJxTzlNUkEzOFNweWpocStnWXV0bmRlVXJIVGJmWFlFK3N6K1c3elRmcXMwc1NyRk1iaDVBUksmI3hBOzdlay9xSzZncEd6U2JDaWtaQ3VIbjNOdDhmTCtjeTY3OHM2eHFYNVVlVzlLZ3RuTjNFdWx2Y1E4eERJaVJGR2xQSXNoVmxVSG9lWGgmI3hBO3ZsaGlUQUJxRXdNaFB2VEh6TjVhMVNFNlRIbzBWMWUyTWR4TkpxQ3RlTkplQVNRR05ERmMzc3JQSEh5KzJJM0JwMDc0WnhQUmpqbU4mI3hBOzcvSHlZaG8vNWNlYUxmUzdtRzQwNGZXZjhKejZUQldXRnY4QVRKTGlaeEdDSDI1SzZrTWR2ZnJsWXhuN0cyV1dOOC80azFUeUQ1aG4mI3hBOzB2elJiTkN0dmRhbnBPbVdkbE04aUVOTGJXekpQR1NoWXFPWHdrMDM5eGt2RE5INEk4VVdQZVVPL2tQekRkQzJ1M3NydjFtMVBTSkwmI3hBO3VDOW4wOG42dlk4aEkvcDJpUlJBSXJjUjhiTXk5aDB3Y0IrNVBpZ2RlaDcwVHB2a256REY1MXR0UW1zUU5PaTEvVk5RTW5xUkVDQzUmI3hBO3M0NDRaT0libDhVcW5hbFIxSXdpQjR2aVdKeURocnlDUldmNWJlY0lkUGlqdWJXNWtqdU5QdXRObnNyVzRzVUtlcmZ6VGoxSkxsTGgmI3hBO1ZpZU9WU1doQmRTT21SR010aHl4djQrYWRYbmtuekhEZHozTVZsSmRyYmE1cE9vd0lzMEJsbmdzclZJWm1EU05DdkxsWDdmQ3VIZ1AmI3hBOzJoaDRrVDhpeWp6WG8ycVhYbWp5eHF0bmJ5VFE2ZTk1RmRtSjRsZUpieUFSTExTUjQrUVJoVThTVFRvRGxrZ2JCYW9TQUJCU1R5djUmI3hBO1M4dzIxMTVZdHJxeitwcDVhVzZGMXFQcVJzdDU2NmxBc1FSMmtvNWIxSDlWVjNHMWNoR0IyOG15ZVFiK2FkUFphM292bXJXTldzOU8mI3hBO2sxYTExcUsySWpna2dqa2hudGthT2ordThROU5sSU5WcVFhL0RrNklKTEN3WWdYVk1iOHkrVFBOT3E2NWUzYzl0UDhBVjlac2JXM20mI3hBO2hzYnF6Q1FTUVNGblNXYTZnZVVJQzNOWGdqcnlHNDZISzVRSkxaREpFQ3U1RFgva1B6SVk3aVJMUzhGMHVyYXBjMmwzWTNWcXMvb1gmI3hBO25BS1hpbkt3eXh6QmZqRFNLeS95bnBnTUN5R1VmWUZQVWZ5Lzg2WGVsM1VNbHRiL0FGeHRGMHkzVDBERERDMXpaM2h1SGhSRUtLbncmI3hBO0FDdkVKWHB0aVlIN0ZHV0lQeFZkVThuK2FOVDE3VzlhbDBtOHRQck4xcDF6cGoybDVhUjNzSnRyV1NGM1ZTN3dPVkwwZEdrVUVINFcmI3hBO09FeEpKTkxHWUFBdGwza1NEelZwZW1hYnBPcDZkR3NRanVKSnJ5Sm9JdlNQclZoaWtnaEhCcEhSaXp2SDhQTHhyWEp3c2JGcXlHSkomI3hBO0lMTDk4bTFLRjZhV3oxOXYxakpSNXFVcWJhaEh5eXdoQUtEMVJ2OEFjYmRmOFlaUCtJbkFPYk9KM1k1WDl6R0IvS0svZG1hT1R6ZVkmI3hBO2Z2SmYxajk3UUxER21IRXlYeXUxYmViL0FGaCtyTWZNTjNZYU9XeFRzR3JmTEtYTXRmVVlGdFQ1RVBRN2VIaGtnQW0xenQ4SStlUnAmI3hBO05xaW5ZWVZ0dXVCTnQxeFRiZGNWZFhGTFdCWGJZcGR2aXJxNHE2dUt0NHBkZ1YyS3V4VjJLdDRwZGlyc1ZieFYyS3V4UzNpcUh2OEEmI3hBOy9lU1R2MC80a01NZWFDbEEyeXhDRjFVMTAyNjhmUmsvNGljSTVzbzgyT29hUlJrMSt5TzN0bVVIbjg1QW5MM243M2MvOGh2d3lWTkImI3hBO2t5UHlzV01FL3dBTkJ6RksvTE1mUHpkaG9qc1U4QUl5aHpIVmF2VGJGV3lBUlE3and4VGF4elFDbmoweFRhc2pBcU1sU0xicmdTM1gmI3hBO0FtM1Z4VzI2NHB0MjJCTnRWeFMzWEZiYXdKYnJpbDFjVmJyaXJlS1hZcTdGVzhWYnhTMWdWdkZYWXE3YkZYWXFoOVFCK3FTZlIveEkmI3hBO1lZODFLVHhuNHFkamxvWUZENnR0cHQwUi92cVN2L0FuQ0J1eWp6U2lCQjlYaU5QMkYvVmw0ZEJxQis4bDd5MFVITHBrcmFLWkQ1YkgmI3hBOzdpYi9BRmgrcktNM04yT2k1Rk5ucHhOVFFlT1V1YXNqNDcwYXVGQzQ0RlU1YTBIendoVjY5UEE0VUxxNHB0c05VWWFXMjY1R2syNnUmI3hBO05KdHV1S2JkZ1RiVmNOTGJxbkFsMWNGSnR1dUtiYnJpcllPS3VyZ1MzWEZXeGlsdkZXOFZhd0pieFYyS3V4VkRhai92SEovc2YrSkQmI3hBO0pSNW9LU1ZQamxyQkRhbTdIVHJvSGY4QWRQOEE4Uk9FYzJVZWFYUU9vdG92OVJmMVpjSFJaLzd5WHZQM3RWTmFqQzBrSi81Y0o5Q1kmI3hBOy93Q1VQMVpSbTV1dzBZMktjRVZGRDBPVk9Zb2xvbzJJb2E0VlZSUWdFZERnUXNsSHcvVGhDdHFOaGhRMmNWVzArL0NyZGNDdURFWVYmI3hBO3Rzc2Zvd0JOc2U4MStlOUY4c1NXY2VvcmNTVFgzcWZWNHJhSXl1UkNGTGtnZjY0eUU4Z2p6YjhXR1U3cm9pZksvbXZUL01kck5jMlUmI3hBO056REhESjZiQzZoYUZpMUEzd2h1bzN3Um1KY2x5WXpEbW5WY213dDJCWFlWdDFjQ2JicmltMjY0RmJyaWxzSEFsc0hGVjFjVXV4VjImI3hBOytLWFZ3SzdGVU5xWCs4VW4wZjhBRWhrbzgwSGtrbFNkemxyV29ha2dPblhKSGVGLytJbkpBYnNvbmRKYlgvZWVML1VYOVdXdW16LzMmI3hBO2t2ZVVRTVdrcC81ZEgranovd0NzUDFaVGw1dWJvK1JUZ2RNcWN4cGxVOVJYRlZKNXVCNDhlbUZYT3daQVIwcmloZUJzTUt0NG9hT0smI3hBO3RIRlhVd29kaXJBZk5IbG5XdFk4L1dWOXBXdjIybHk2ZllPaGpDSmNYYUdWeUdkWUpQaENNcEM4eWZveWljQ1pXQzVlTEtJNHlDTHMmI3hBOy9CR2ZsLzVnMTI3dk5kMExYSmt2TlEwRzRTSTZoRWdpRThVNmw0eTBhL0NyZ0x2VCswbkhJbXdlaTU0UkFFbzhwTXlybHJqMjZ1S2ImI3hBO2JxTVUyNnZ2Z3BiYnJnUzJEaWwxY1Z0ZFhGTnQxd0piQnhWZFhGTGpnUzZ1S3V4VkRha2Y5Q2srai9pUXd4NW9seVNTdmorR1hOYWomI3hBO2Z1bzArNUJOUDNVbi9FVGtvODB4NWhKYlQvZWFML1VYOVdXQjFHbyt1WHZLSUZLYjR0Q2ZlWEhWb0p1Ty93QVEzK2pLY3ZOenRIeUsmI3hBO2NnYlpTNWpxWVZhS3Flb3JpcW5OVUtLRHZoQ0cxZW8zdzBxN0ZXQTNPdjhBbXp6TjVpdjlJOHJYVVdrNlpvOG4xZlVOWm1oRnhJOXkmI3hBO1B0UXdST1FsRS9hTGY3ZEhGS1JxT3dEa2pIQ0VRWmJrOUV4OHJYbm5PMjFxOTBUekdCZndReEpjV091eFErZ2tvWThXaWtSU1VXUlQmI3hBOzJYdGs0R1YwZm13eWlCaUpSMjhtV1YycmxyUXQ2NG9ZMTVpOGoyMnJhbkRyRnBmM1drYXpCRWJjWHRteWd2Q1R5OU9WSERLNmc3ai8mI3hBO0FHc3JuanMzeUxmanpjSW9pNG96eXY1VTA3eTdaelFXcnkzRTkxSzF4ZTMxeTNxVHp5dDFlUnFENkFCL0hEQ0FpR0dYS1psTDlPMSsmI3hBOy93QlY4N2FqWVdzZ1RTTkNpU0s3b3FrejNrNDVCZVJCb3NLTHZ4b2VSMzJ5SWtUSWdjZzJTZ0l3QlBPWDNNYzBTLzhBekM4MDNHcjMmI3hBOzJsNjlCcDJsMjJvM0ZuWlJOWnBPV2loSW8vTWxUdlhLNG1jcklPMXQ4eGp4MENMTmQ3T3RCdGRhdGRQRVdzWDZhbGU4bUxYS1FyYnImI3hBO3hQMlY0S1c2ZU9Yd0JBMzNjWEpLSlBwRkJNZVF5VEVGTFBNMS9xOWpvVjNkYVBaZnBEVTQxSDFXMEpBRE96QmF0VXJzdGVSQU85TWgmI3hBO01rRFpzeGdHVkUwR0oyV3YrY05GODRhVm9ldDZoYmEwdXNRVHlPbHJBSVpiU1MzajlUb0dQT04vc3F6QUUrM2VvU2tKQUUzYmtHTVomI3hBO1JKQXFrdjFQekIrYUZuNWJ1Zk9WMVBhNmZiMjdtVC9EVTl1ZVFnRXZwZ1BjRmcvcU1OOWhRKzNUSW1Vd09MN0djWVl6TGc1K2JKSWYmI3hBO05WOUI1dDB5MnUyUDZKOHkyWW0wdFdWVmEzdW9VRHl3c1FBU0hqWU1PVy9MWVpNVFBFTzR0WnhqaE5jNGxtRmNzYUd3Y1UydTVZcmImI3hBO2RjQ1hjdkg3OFUyN3BnVkQ2azFMS1N1LzJmOEFpUXlVUnVpUjJTUGtweTZtcTBQcVc5amNBLzc2Zi9pSnhITm5BN2hLN1MzbE50RnYmI3hBO3hIQmYxWmE2YlVIMXk5NVZrdDFMRGx1VjIzdzIwRmtYbDVGV0dVQVUrSWZxekh5ODNZYVBrVTN5cHpHc1ZhSkE2bW1GVktadWdBSjkmI3hBOysyRUt2QUpYd09GRHVKSHZqYXZLUEpQbWpRdkpjK3ZhQjVudURwMTZOU3VMMkNhWkg0WEZ2UHg0U0k2aHFuNGR4L2JUR3h6RUxCNzMmI3hBO096WTVaS2xIY1V6RHlYNW0xVHpHK29hZzFtTFhRUFVWTkVra1IwbnVFQy92Sm1ER25CbSt4c05zdHh6TXQramo1c1loUXYxZFVuODEmI3hBO2VYTHU4MTI0dUkvS2cxTlhDVXZUcTh0cHpvaWorNVVVWGpTbnYxeU00V2ZwdjR0bUxKVWE0cStDWWVSOUZ1Tk9udTJsMEFhTDZpb0EmI3hBOzQxR1Mvd0RVb1R0eGNEaFR4NzRjY2E2VjhXR2VkajZ1TDRVbTExb1dxVFhFa3NmbUhVTGFOMkpXM2lqMDhvZy9sVXlXa2owLzFtT1cmI3hBO0dKN3o5bjZtb1RIODBmYit0ZFk2THFOdGNyTk5ydDlleHJXdHRPbGlzYlZGTnpEYlF5YmRkbXhFVDNvTXdSeUErZjYyRWVVOVRYUnImI3hBO1g4eFo1cUxkMkdxWDE4M0xxWW5pRWtBK25nYVpUQTF4ZTl5c3NPSXc3aUFoUElINVNlVDd2eWRwTjVxOWk4K28za0F1WnBmckZ6SHkmI3hBO0V4TWlmREhJcTdJeWpwaml3Uk1RU25QcXBpWkFPejBXMzB1T3cwaGROMG9pMFNHRXhXak5XYjB6U2lzUTVxL0U3N3R2bVFJMEtEaG0mI3hBO2ZGS3p1a242RDgrZjlUVEYvd0J3NlA4QTZxNVh3VC9uZlkzZUpqL20vYWpOYzFmVlBML2xhVFVHZ2JXcnl5Uld1RmlBZ2FSZVFFa2kmI3hBO3FCSlRpdnhVOEJoa1RHTjgwUWlKenI2YmVkVGFuNVFmenZvK3JlUjVxM3R4Tk5kZVpab1BWTVgxRi8zazdYSWY0VlBMZFIvTjc4Y3gmI3hBO3lZOFFNZmk1Z2pQZ0luOFBlZzVQekQ4bytiOVkrcytadFZXeDh1V0UzS3cwSXh5dTl5NmZabnUyUkdYajRSZy9QL0tpY2taSGM3ZHomI3hBO0lZWlFGUkZ5UFZsL251NGkxRHpCNUIrcE42ajNHb2ZXNEhVSGUzamlFa2piME5PRERMY201alRUaDJqTys1Nkh5eTl4YmJCd0pYVngmI3hBO1cyd1NNVTI2dGVuM1lFMjJHeFRhRjFVajZoSlRZL0QvQU1TR1Noell6T3pIdy9qbDlOQWszcUZEcDA0UCsrbi9BT0luRUJuQTdoRDImI3hBO28vMFdIL1VYOVF4ZFhuSHJsN3k2bEh3dENlNkQvY3kvNncvVmxPVjJHajVGTks1VTVhbTBvNWNWSEk0YVZ4aERHckVuMnh0WFNmWngmI3hBO1ZlT21GRHNWVVo3UzF1QW91SVVtQ0hrZ2tVTlErSXFEaVFDa0Vqa3Ewd3NXcWVCdzJyVk1Ddk0vTkMydXRmbWJENWY4dzNUd2FGQnAmI3hBO3YxdTBzeE8xdEhjM0JrS3N6dWhSbUtMV2lodHFWOGEwVElsT3BjcWMzRmNjWEZINnJSZjVWYXk5eGMrWTlEUzhiVU5QMFM5RVduWFUmI3hBO2tucXY2RW5La2ZxR3ZOWXpHUXA4UGJEaGx6SGN3MVVLNFpWUkkzWklQTElpODJTNjliVGlOTDIyRnRxZG95Y2xtTVpyRExXb282QWwmI3hBO1RVR3E1WncrcTJueFBSd25vZGs3NGlsQU5oNFpOcVdtZzJ3cXROTVZkaXFsSGIyOFhQMG9rVDFEeWs0cUJ5UGkxT3VDZ2t5SldpMXQmI3hBO2Y5OHgvd0RBaittUENFOFo3MHJqOHVCdk5qK1lMcVlUR0cyVzAweTJDMEVDTWVVemtrbms4aG9LZ0NpaW1RNFBWYmI0dm80UjhVOEQmI3hBO1pOcnRjR3hwTnQxd0xhNE5qU2JkWEFtMndhNHB0QjZ3YWFkTi9zZitKREo0L3FZWlQ2V09ySWFlMlpGT01KTjNrd2F5dUFkajZiN2YmI3hBOzdFNGhzeG4xQnUxLzNsaC80eHIrb1pXNEdmNjVlOHRQdTIzMzRXbWs4OHZqOXpML0FLdy9WbE9YbTUrakd4VEYrWmFpMHA4OGdIS1gmI3hBO0lLTFE3bnZnVmRpcW5MMCtuQ0ZYRG9NS0hZcTdGV3NVRjJGV3NWWUorWVdtWDEzcWRuSmMrWEl2TXVnckN5bTJUZ2wzQmRGcWlSWGMmI3hBO3JXTjFvcFZUMTNQUVpUbEJ2bFljclR5QUI5WERKWC9MWHlyZTZQQnFlb1g5ckZwOTVxOXdKVjAyQXF5VzF2RXZDQ0dxZkNXVmExSzcmI3hBO1ljTUtzbnFqVTVSS2dONjZzenk1eFdzVmFPS3JTTVZhSXdxMVRGV3FWd3EwZXVLdU9LdGhzRkp0c05qU2JiNVV3SnRjR3JzZnZ4VGImI3hBO2RmSEFtMEZyYlUwdWIvWS84VEdXWWg2ZzFaejZDeGhaUHU4Y3lpSENFMXQ0NE5wTVBGRy9VY2dRMzRaZW9lOUVXeExXc1A4QXFMK28mI3hBO1pVMFpvK3VYdktxQmkwa0oxb2YrODgyOUtzTi9veXJKemMzUzhpbWNZRzVyVTVBdVV1UFhBaDJLckpCc1BuaENyeDB3b2NjVXRIRkQmI3hBO1dLdDRvYU9GV3NWZGlyV0ZDMDh1Mkt0NHEwUmlxMDRWYXhWb2dZcTBhWVZkU293SzFoVnhGTVZjRDJ4VGJ1V0JiWEJ1eCsvR2syZ04mI3hBO2ZlbWtUbi9VL3dDSnJsbUVlc05PcGxXTXNYamtBV24zNW44THF4a1dYTC91SkIyNE4rcktweDJjclR6OVk5NFRHei8za2cvNHhyK28mI3hBO1ppTTgzMW4zbFdwaTBsT2RFVUdDV3ZRTUR0OHNybnpjelM4aW1DdW8yVURmdzY1Q25KVkFEM3dLM2loWko5bjZjVlhEcGtsY2NWYXgmI3hBO1E3RlhZcTFUQ2hva0RGV3VRUFRGQzNnYTljTnF1cHRnVjJGV2ppclZNVldrWVZheFEwVGhWb1lFdFlWZDFIeXhWckZXK285OFZheFYmI3hBO0xmTXNuRFJMaHZEaC93QW5GeTdURDFoeE5mS3NNajd2dkREWTdxb3phR0xvWTVsOHM0TVRqeFUvcXlxY2RpNXVseTNrajd4OTZlMnEmI3hBOzB0b1I0eHFSOXd6V093eS9YTDNsVUpDaXBOQU1Xc3B4b0JaNFpTTmw1Q25pZHNyeU9YcFRzVTBLbW53Z1Z5c09TMHF1VFU3ZVBqa2kmI3hBO1VMaXd3QUxheHlDdTNqalNyeDB3MHJxQ3VLdDRvV25GV2ljSUN1QnFjU2hwbHJpQ3JRVURHMWJ4VjJLSFlxMGNLdEhGVnA2WVZXMVAmI3hBO2hoUTBlZ3dLMWhWczRFdERyaXJpTjhWZFRDcnNWU3J6T0s2SGNqL1Uvd0NUaTVmcHZyRGg5b2YzTXZoOTRZRUZLbmJwM3piQXZMbUwmI3hBO21acWhlb09RemZTWEowVWo0MFA2dys5bU51bkt6dHlPb2pUL0FJaU0wenY4MzFuM2xzUUV0eWZlblFkc050UjNUelExQWhsQS9tSDYmI3hBO3NxbTVtbEd4VEVqSzNKU1RXOWZ2TFRVTFhTOU1za3Y5VXVvWnJrUlN6ZlY0bGhnS0t6TklFbU5XZVZWVWNldlVqSW1XOUJzaGpCRmsmI3hBOzBFdTF2ejNwdWlNRjFHd3VZblcwaXZMdGthMzlPRDFwUFJTSjNhYU5TNWwrQ3ExWHVXQzFJVGxwbERBWmNqMVFBL05yeTNMYmZXWXImI3hBO1c3ZXpWQTBsMml3TkVraFNWaER5V1k4bkp0M1dxMVd2N1ZDRGtSbURQOHJMbHMxSitiL2x5M21lMnViZTZndTQ0UFhhMWY2cVphbU0mI3hBO1RDUGdrN0hrWVNINWZZQTJMQmdRSmVPRURTU1BjdVQ4NGZLYkdKYVRocHJkN2tMKzVMRDAxbGZoeEV0WExDQnFNbktQcDhmeENvOGUmI3hBO0svbEpxRnorYlZwSGV4SU5NdkV0a2p1cEw4U0xDSm8vUWlnbGo0cUplUEYxdWszTGJWM3A4UlY4ZnlTTklhNTdwei9qV0c1MGpTYjcmI3hBO1M3WTNFMnR6bTJzSUo1QkN2TkZrZHpKTEdKMUNxc0RmRWdZSGFsUWE1THhMQUk2dGZnMFNEMFN2V1B6VjA3U1RQWjN0azZhM2JXa2wmI3hBO3k5aDYwTEtKSTRYbjlMbWpOSlJvNHl3azlMajBCbzN3NUU1cTk3T09tTXR3ZGxkdnpRMFpyMjZzNGJhZHByRzQrcjNRZmdwQzBtcTYmI3hBO2dNNTYyNW9zZ1FrRU1QaDN4T1lJR2xsVjIxYy9tcDVkdDVMVkpJTG9mVzJnVkc0eEJSOVpoaW1XcGFRVklXZGZnV3JHaDRxd0ZjUGomI3hBO0JBMHNqM08xejh4N1RRdFYxSzIxTzFrUzB0UHFxVzB5dkF2clMzS1N5TUt5eXhLb0N4R25LblErSzFaWmFKdFlhY3lpQ0R2dXBqODEmI3hBOzlCZVFlbFozc3Rzd0x4M2lKRDZUUnFZdWNpMWxEOFVGekdUOE5kOXEwT1BqaFA1U1hlRk9YODMvQUMzQmFpNHVyYTd0UklJNUxkSngmI3hBO2JvWllwZlc0eUt4bTlNRC9BRWFUWjJER2c0ZzFGWHh3ajhwSytZVjd6ODBkRHRMTzV2NWJTNy9SOXRNSURlVWdXTnp3RWpNbk9aV0kmI3hBO1VNdTFPVEUwVU1hMFRtSE5ScFpFMVl0UjAzOHo3T1dDZHRRc1o0SllwekdxeCtrNnRHK29OWVJFSDFPdk1mSDA3MHJ0VmptNzB5MHAmI3hBOzZIOFZhcHBuNXArWDlRdmROc3ZRdUxXNDFWSTViVkxnMjZuaE55OUVsVW1kejZucG43SVBIYmx4cUt5am5CSVl5MHNnQ2R0bFRVL3omI3hBO0owZXcxaVhTSHRicVcramFOWTQ0aENUS1pabzRCd0RTcXdIcVRLS3VGQjM0MXBoT2NBMGlPbGtSeFdLV1czNWkyVjVkNmZiMmRoY3MmI3hBO3Q3TEhCUFBMNmNhVzd5cEk0amNCblpwQjZSMlVjZjhBSzdFRE1EVkJKMHBBTmxFUmViTHVmelhjYUhiNmZ6dHJXVllaNzlqZGNReGcmI3hBO1djZ0ZMV1MzRkZrQW84Nm12YnBXWEdlS3FZSEVCRGlKKzc5ZjZFdC81VzM1Y1dTMFM0dDdtMWE5VDFZRm1Oc0dhTm1aSW5DQ2RuUHEmI3hBO09oVlFvSkhWZ29JSmgrWWkyZms1ZVgyL3FWQithT2o4VTlUVDc2SnZUYTVsUjFnQml0a2hTY3p2U1kvQVk1S2dMVitvNDEydytPRWYmI3hBO2xKZDRXV1g1cytWN3VleWhqV1lOZVN0QnlyYnVzYnFWRkdhS2FRUFVPcmZ1dWZFYnR4M3hHb2lrNk9ZdFRqL09EeXpOYW00dHJlN3UmI3hBO1kwV1dXUVFpQnlrTUtMSTByMG0rRWNIcngrMktFRlEyMkQ4eEZQNU9ma3Ywejh6YktiVUlyQzlzNW9KN3EvdUxLemRmU1pDc0Uvb0smI3hBO3gvZWN5V2I3UVJUeDNKK0g0aXh6aTZQZWllbElGZzlHYjBHWkRpcFg1bEgrNFc1LzJIL0p4Y3UwMzk0SEQ3US91WmZEN3d3aFV6YVAmI3hBO09BTk5HQnZrTWg5SmI5Si9mUS9yRDcyVzJRLzBLRC9qR24vRVJtb2Q3bStzKzhxcEdMVW11aS8zVXY4QXJEOVdWemN2VGNpbVJ5RGsmI3hBO3BSclhsblJkYWVKOVFnYVI0VmRFZU9XV0Z1RXRQVWpZd3VoZEg0amtqVlUrR1JsRUhtMlF5U2p5ZGUrV05DdmZVK3NXb2IxWUk3VnUmI3hBO0xQSFNLRnpKRUU0TXZBbzU1S3kwWWVPSmlDb3lTSFZKVS9MUHkwbDdjVHl4TkxiU3hSd3cyaGttQ29GamtqZG5QcWZ2WFlUTWViamsmI3hBO0NUUTFKd0RFTGJEcUpVbU54NUc4clhVejNFOWx5bGtpRUxFU3pLS0tvUlhDcTRWWlFxQlJLQnpBSDJza2NjV0F6ekhWUkg1ZStVZ0YmI3hBOzVXTlFxU1IwTTA1NUNVU0IzZXIvQUJ5RVhFbjd4cXY4Um9kOFBoeDdrZVBQdmJ1UElmbEs2bWFXV3hKbGNrczZ6VG9maWlqaE82T1AmI3hBOzJJSTZlREtHKzBLNG5GRlJubU9xeldOTzhvNlRvZHRaWHNNMGRpbHlEYUMzK3R5M1AxcVF1M05IdCtkejZqRm5KY0dwcWFuZkFSRUImI3hBO01aVGxJa2MvaHkrNUtMM1N2eXBpdFpHdTFqZ1dPeUxUMlVrbHhIT3R0S0RFMDBsb1dXWU9WbEttVms1L0ZTdStSTVlOZ2xsSjIvSHgmI3hBO1JNVnIrVm9uYTdqdmJGbm5EM3dyZkJvL1REeWVwSkdobEtKRjZqeUYrQUM4cTEzdzFCanhaZVcveVFYNkIvS0swZ1ZSUGJrTEVicEYmI3hBO0YvTk5MSmJwQ3BOQUpua2xoOUdGUGczVXFvMjJHRGh4cDQ4eC9zVEc3Zy9Mblh1R29UWHR2TWRSYU8zaW1qdlhoTWtzSWJna2ZweXgmI3hBO2tTcXN6S1F2eDBiaWR0c0pFRHV4QnlSMjd2SkxWay9LNmEzMVNlSkVNT2syelQzZ1Y1VUt3M0t4eXNGajVLM3hDMmpvT0k3QWRUZ0gmI3hBO0J2NU16NHdJODFIU1BMMzVaMitoUndYbW8yMXc2d1FUM0YxSmV0RklzY2daWWp0T1RERzR1V1hpckJHNW5yeXhqQ0ZibFo1TXBsc1AmI3hBO3MvWjVJelVMYjhwcjJ5WmJxL3NQcWhra1ptVFVQU1hsY3hBT3ZLT1pkbmlRSGowb0tnWVNNZmw4MkFsbUI1SDVOM21nL2xkRlBMSmQmI3hBO1hOckM5bEt0eE9yYWhKR3NUelRDNFF5SjZ5cUZhYjQwVmh4cWRodWNKamovQUFWR1ROMHY1T1kvbGxwZDVwb2pudHZyZGs5dHAxcEYmI3hBO0hkRnpHU3JpM0V5ZXBSdUtzNVJwQVNLbmoxeDlBcFI0c2dmbnlWSmRLL0xSdFRoMUtTNXRmcnQxUEhQYk9iNWdyelN5UjNFWmlqOVgmI3hBO2dmVWVCSEFWZmlwM3FjUERDN1J4NWFyZXZjaWRLOHNlU2JtVzMxYlNsanVCYnVUQlBiWFVra1BxSVgrSmxTUXh1Nitvd3F3SkZhWVkmI3hBO3doekRHZWJJTnBmY250clkydG9iZzI4ZkJycVV6em1wUEtSZ0ZMYms5bEF5d0FCcGxJbm1rdDE1Rjh1VFFReHgyM3BQYXdHM3RYRWsmI3hBO3BWVm8zRG1uTUxMNmJPV1huWGllbE1nY1VhYlk2aVlQTmJwUGtMeTVwOXBGQ2JiNnhLa0RXOHMwcnl2Nml5UkpESUNKSGY0U2thZ0omI3hBOzBVYkxUR09LSVdXb21TdWk4aGVWWTJnY1diTTF1M3FLWko1NUM3Qnc2bWJuSTNyY1dVRmZVNWNlMU1mQ2ozS2RSUHZjbmtIeW1rRWsmI3hBO0MyUDdxV0tXQmxNMHgvZFRvc1R4Z2w2cXZCRlZRTmxIMmFZK0ZIdVg4eFB2WHgrUmZLeVhhM2kyYkNaWmpjMDlhZjB6S1hFdFdqNSsmI3hBO213RWc1Z0ZhQnFzTnlUaDhLUE9rSFVUcXJUNGpMR2xLL012L0FCeGJqL1lmOG5GeS9UZldIRDdRUDdtWHcrOE1MWGNac1M4N2JVblEmI3hBOzVDZjBseU5KL2ZRL3JENzJWMlEvMEszL0FPTWFmOFJHYWwzdWI2ejd5cWtZdFNhYU4vZFNmNncvVmtKdVhwdVJUQW5JT1MxaXJzVlcmI3hBO1NkUHB3cXVIVENoMUs5Y1VPQ2dkTVZTZnpGNWJ0dGRodExlOEVjbHRiM1VkekxCTEdKVWxFWVllbXl0dFE4dmY1WUp4dG5qeUdOMTMmI3hBO01YMWo4cXZyMTllU3c2aWxyWlR4bUszc1lyYmlrU05ERER4b2txUnNGVzNYajhBYW53a2tCYVZTdzJlYmZEVmNJNUw1dnl1am1mV20mI3hBO0YrWXpxeFI0K0VUSVlYanZaYjVmaVNWR1lGNVFEeEtuYW9JUFFuRHozNW9HcDViY3YxVW9MK1VNU2FZOW1OU0xTeU1ydGNQQ3p0eUUmI3hBO054RzlDOHJQUXRkc3dxeElBcFUxcmc4RGJteS9ONzNYNDIvVTFjZmxHazE0bHgrbEhqUVNJMGtjYVNSMWpFVnBHeWowNWtGV2F4VnEmI3hBO3NHWGY3SklWZ1RoODBEVitYNDMvQUZwcFkrUURiYVZyR2x0ZitwYjZ2WmZVM1lROFhqYjBuaE1nUE5nUnhjZkRUcjN3eHhVQ0w1c0omI3hBOzZqaUlOY2lsVC9sR1pOUUY3TnF4WnVjRXhpRVVucCtwSExiU1NrSTg3b3F2OVRBWGlBUlg0bWVneVBnZWJQOEFON2N2eHVoci93REwmI3hBO0hWWWRTMHlUVGJ1TmxIS0s1bmtnVmtoUVIzeDlReGVzaGs1dGZCS0tkaU9YeUJ3bmF2eHpaRFZBZzJQeHQrcFd0UHlkdHJYVVlMbVAmI3hBO1ZaWGd0WkxkN2VDWlhsUEdLZUNlUldMeWxLdWJWUUNpTFN2eGM5c0l3VWViR1dzSkZVaUQrV04wZFRtdjIxY01aTGd6UnhmVnlGVlcmI3hBO25rbUtsUk1FNUgxM0hKRldwK0lnbXZJK0J2ZG9HckFGVXQwcjhySHRXaSt0NnFMbEliYjZuRUk3ZjBXV0lXaldpa01aWlBqNFBVdDQmI3hBOzlnTVJnODFscTdHdzYvcHRPUEp2bEM0OHRRVFFmWHhlSmN1MDF3WFNYa1pBa1VVZkJwWnBtQ3JIRnVEeXFUc1ZVY2NzeDQrRnB6WmgmI3hBO1BwVEk4c2FHcVlWZFRGWEhyaXJxWXExMHdxM2lxVitaZitPSmMvN0QvazR1WDZZK3NPRjJqL2NTK0gzaGhpQTB6WWw1c05TRFk1Q2YmI3hBOzBseWRKL2ZRL3JENzJWMlArOFZ2L3dBWTAvNGlNMUJlZ3pmV2ZlVllqQzFPRXN5QWlOMlN2WGlTUDFZMG9rUnlLbDljdXFrZXRKVWQmI3hBO1J5Yit1R2d5R1NYZVhHN3Uvd0RmMG4vQkgrdU5CZU9YZVd2cmQzL3YrVC9nbS9yalFSeHk3eW9YZDdlQkJTZVFiam83ZjF5VVloaVomI3hBO3k3eXZTOHZHUVVuazkvamIrdVc4STdtbzVaOTVWUHJkMy92K1QvZ20vcmp3anVSNHN1OHRHN3ZQOS95ZjhHMzljUENPNUhpejd5dE4mI3hBOzVlZjcvay80TnY2NGVBZHlEbG4zbjVyVGVYbFA3K1QvQUlOdjY0UkdQY3g4V2ZlZm1zTjVlLzhBTFJKL3diZjF5WEJIdVFjcys4L04mI3hBO28zMTcvdjhBbC80TnY2NE9BZHlQR24zbjV0Ryt2ZjhBbG9rLzROdjY0ZUNQY3hPYWZlZm0xOWR2ZitXaVgvZzIvcmp3UjdrZU5QOEEmI3hBO25INXRHK3Z2K1dpWC9nMi9yaDRJOXlQR24vT1B6V05mWDMvTFJML3diZjF3OEVlNWljMC81eCtiWDE2Ly93Q1dtWC9nMi9yandSN2smI3hBO2VQay9uSDVyVGYzMy9MVEwvd0FHMzljUEJIdVI0K1QrY2Ztc04vZi9BUExUTC93YmYxdzhFZTRJOGZKL09QemFhLzFEL2xxbC93Q0QmI3hBO2IrdVNFSTl3UWMrVCtjZm1WSjlRMUViL0FGcWJiL2l4djY0ZkRqM0JyT2ZKL09sOHl0K3ZhZ090M01mK2VqZjF3K0hIdURFNmpKL08mI3hBO2w4eTEra3RSL3dDV3FiL2tZMzljbDRjZTRNUHpPWCtkTDVsU2sxTFV4UWk3bS81R1AvWEQ0VU80TURxY3Y4Nlh6TFg2VDFQL0FKYTUmI3hBO3YrUmovd0JjUGhRN2d2NXJML09sOHkzK2tkVFAvSDNOL3dBakcvcmc4T1BjR1ExR1grZEw1bGIrbE5TQTN1NXR2K0xIL3JreGpoM0ImI3hBO2lkVGwvblMrWmFhOHY1a0t6WEVzaU5TcU03RWJiOUNjaHd4QjJBVTVza2hSa1NQZXN3c2JXdjBPUW45SmNuU0g5OUQrc1B2WlpaRC8mI3hBO0FFSzMvd0NNYWY4QUVSbW9MMFdYNno3eXJZdFMwakNoU2tpRGJqWmgwT0VGaXBBbXZGdG13cEJieFZDWGg1QUt2UUVjai9ESlJZU0smI3hBO0tSUjZZK1dXMjEwNGc0c1MxWENoYWQ4S0ZwR0tGbVRRMGNVRUxGM3dzR3lNVldrWXNWaEZja3hwYVJpaWxwR0ZqUzJtOU1MRnhHRUsmI3hBO3NkZHNrR0pDbVJoYXlzSXdoZ1ZOeDhKeVlheUhLb3BnU0EzVEZGcmVJeFEzaXlEZUJLbS9RNUdmMGx5TkovZlEvckQ3M29WdDVYOHkmI3hBO1IyMFViYWJMeVJGVnFTVzFLZ1VQKzdjMEp6dzcvdmV6bjJma01pZGwvd0RocnpGLzFiWmYrUmx0L3dCVnNmSGgzL2V3L2szSjVPL3cmI3hBOzE1aS82dHN2L0l5Mi93Q3EyUGp3Ny92WCtUTW5rMGZMSG1ML0FLdHN2L0l5Mi82cllmekVPLzcwZnlaazhsT1R5cDVoY2I2YkxYL2omI3hBO0piZjlWY0kxRU8vNzBmeVhrOGxJK1UvTkZDUDBkSjdIMUxiL0FLcTQvbUlkL3dCNi93QW1aZkpwL0p2bU14aFJwMGxhMUo5UzIvNnEmI3hBOzRmek1POWovQUNWazhsUmZLZm1VS0IranBQOEFrWmJmOVZjbitiaDMvZXgva25MNU9QbFB6TC8xYnBQK1JsdC8xVngvTnc3L0FMMS8mI3hBO2tqTDNoYTNsSHpLZW1uU2Y4akxiL3FyaC9PUTcwZnlQbDd3dC93QUkrWjZmOGM2VC9rWmJmOVZjZnptUHZYK1I4dmVISHloNW4vNnQmI3hBOzBuL0l5Mi82cTRmem1QdlIvSStYdkN3K1R2TkgvVnVrL3dDUmx0LzFWdy9uY2ZldjhqNWU4Tkh5WjVvcC93QWM2VC9rWmJmOVZjZnomI3hBO3VQdlIvSTJYdkRsOGwrWndOOVBrci94a3QvOEFxcmorZHg5N0grUmN2ZUcvOEdlWi93RHEzeWY4akxmL0FLcTQvbmNmZWorUmN2ZUYmI3hBO3A4bGVhUDhBcTN2L0FNakxmL3FyaC9QWSs5SDhpWmU4TFA4QUJIbXIvcTN2L3dBakxmOEE2cTRmejJOZjVEeTk0YS93UDVxLzZ0Ny8mI3hBO0FQSXkzLzZxNC9uOGFQNUR5OTRhL3dBRGVhdityZS8vQUNNdC93RHFyaitmeHIvSVdYdkRROGkrYStWZjBlOVArTWx2L3dCVmNsK2YmI3hBO3g5N0E5ZzV1OE5ueUw1cS82dDcvQVBJeTMvNnE0UHorTkg4Z1p1K0t4dklmbXMvOUs5LytSbHYvQU5WY2tPME1hUDhBUS9tNzRyZjgmI3hBO0ErYlArcmUvL0l5My93Q3F1SCtVY2FQOUQyYnZpdFA1ZitiRC93QWVELzhBSXkzL0FPcXVIK1VjVEUrenVidml0UDVlK2JUL0FNZUQmI3hBO2Y4akxmL3FyaEhhV0ppZlp6TjN4Y241ZWViUUtmVUcvNUdXLy9WWEU5cFlrZjZHOC9mRnYvbFhubXovbGhiL2taYi85VmNIOHBZa2YmI3hBOzZHcy9mRnIvQUpWNTV0LzVZVy81R1cvL0FGVncvd0FwWWwvME5aKytMdjhBbFhmbXovbGhiL2taYi84QVZYQi9LV05QK2hyUDN4ZC8mI3hBO3lydnpiL3l3dC95TXQvOEFxcmgvbExFditodlAzeFd2K1hYbTBnMHNHSnBzUFV0LytxdUNYYU9JaW0zQjdQWm9aSXlKR3hCZi85az08L3htcEdJbWc6aW1hZ2U+CiAgICAgICAgICAgICAgIDwvcmRmOmxpPgogICAgICAgICAgICA8L3JkZjpBbHQ+CiAgICAgICAgIDwveG1wOlRodW1ibmFpbHM+CiAgICAgIDwvcmRmOkRlc2NyaXB0aW9uPgogICAgICA8cmRmOkRlc2NyaXB0aW9uIHJkZjphYm91dD0iIgogICAgICAgICAgICB4bWxuczp4bXBNTT0iaHR0cDovL25zLmFkb2JlLmNvbS94YXAvMS4wL21tLyIKICAgICAgICAgICAgeG1sbnM6c3RSZWY9Imh0dHA6Ly9ucy5hZG9iZS5jb20veGFwLzEuMC9zVHlwZS9SZXNvdXJjZVJlZiMiCiAgICAgICAgICAgIHhtbG5zOnN0RXZ0PSJodHRwOi8vbnMuYWRvYmUuY29tL3hhcC8xLjAvc1R5cGUvUmVzb3VyY2VFdmVudCMiCiAgICAgICAgICAgIHhtbG5zOnN0TWZzPSJodHRwOi8vbnMuYWRvYmUuY29tL3hhcC8xLjAvc1R5cGUvTWFuaWZlc3RJdGVtIyI+CiAgICAgICAgIDx4bXBNTTpJbnN0YW5jZUlEPnhtcC5paWQ6ODRCQkZDRDNERTM1NjgxMTgwODNGRDQwOUFFM0NGOUI8L3htcE1NOkluc3RhbmNlSUQ+CiAgICAgICAgIDx4bXBNTTpEb2N1bWVudElEPnhtcC5kaWQ6ODRCQkZDRDNERTM1NjgxMTgwODNGRDQwOUFFM0NGOUI8L3htcE1NOkRvY3VtZW50SUQ+CiAgICAgICAgIDx4bXBNTTpPcmlnaW5hbERvY3VtZW50SUQ+dXVpZDo1RDIwODkyNDkzQkZEQjExOTE0QTg1OTBEMzE1MDhDODwveG1wTU06T3JpZ2luYWxEb2N1bWVudElEPgogICAgICAgICA8eG1wTU06UmVuZGl0aW9uQ2xhc3M+cHJvb2Y6cGRmPC94bXBNTTpSZW5kaXRpb25DbGFzcz4KICAgICAgICAgPHhtcE1NOkRlcml2ZWRGcm9tIHJkZjpwYXJzZVR5cGU9IlJlc291cmNlIj4KICAgICAgICAgICAgPHN0UmVmOmluc3RhbmNlSUQ+eG1wLmlpZDpGM0ZCRjg5NUJBMzU2ODExODA4M0ZENDA5QUUzQ0Y5Qjwvc3RSZWY6aW5zdGFuY2VJRD4KICAgICAgICAgICAgPHN0UmVmOmRvY3VtZW50SUQ+eG1wLmRpZDpGM0ZCRjg5NUJBMzU2ODExODA4M0ZENDA5QUUzQ0Y5Qjwvc3RSZWY6ZG9jdW1lbnRJRD4KICAgICAgICAgICAgPHN0UmVmOm9yaWdpbmFsRG9jdW1lbnRJRD51dWlkOjVEMjA4OTI0OTNCRkRCMTE5MTRBODU5MEQzMTUwOEM4PC9zdFJlZjpvcmlnaW5hbERvY3VtZW50SUQ+CiAgICAgICAgICAgIDxzdFJlZjpyZW5kaXRpb25DbGFzcz5wcm9vZjpwZGY8L3N0UmVmOnJlbmRpdGlvbkNsYXNzPgogICAgICAgICA8L3htcE1NOkRlcml2ZWRGcm9tPgogICAgICAgICA8eG1wTU06SGlzdG9yeT4KICAgICAgICAgICAgPHJkZjpTZXE+CiAgICAgICAgICAgICAgIDxyZGY6bGkgcmRmOnBhcnNlVHlwZT0iUmVzb3VyY2UiPgogICAgICAgICAgICAgICAgICA8c3RFdnQ6YWN0aW9uPnNhdmVkPC9zdEV2dDphY3Rpb24+CiAgICAgICAgICAgICAgICAgIDxzdEV2dDppbnN0YW5jZUlEPnhtcC5paWQ6RjNGQkY4OTVCQTM1NjgxMTgwODNGRDQwOUFFM0NGOUI8L3N0RXZ0Omluc3RhbmNlSUQ+CiAgICAgICAgICAgICAgICAgIDxzdEV2dDp3aGVuPjIwMTMtMTAtMDFUMTI6MzQ6NDQtMDQ6MDA8L3N0RXZ0OndoZW4+CiAgICAgICAgICAgICAgICAgIDxzdEV2dDpzb2Z0d2FyZUFnZW50PkFkb2JlIElsbHVzdHJhdG9yIENTNiAoTWFjaW50b3NoKTwvc3RFdnQ6c29mdHdhcmVBZ2VudD4KICAgICAgICAgICAgICAgICAgPHN0RXZ0OmNoYW5nZWQ+Lzwvc3RFdnQ6Y2hhbmdlZD4KICAgICAgICAgICAgICAgPC9yZGY6bGk+CiAgICAgICAgICAgICAgIDxyZGY6bGkgcmRmOnBhcnNlVHlwZT0iUmVzb3VyY2UiPgogICAgICAgICAgICAgICAgICA8c3RFdnQ6YWN0aW9uPnNhdmVkPC9zdEV2dDphY3Rpb24+CiAgICAgICAgICAgICAgICAgIDxzdEV2dDppbnN0YW5jZUlEPnhtcC5paWQ6ODRCQkZDRDNERTM1NjgxMTgwODNGRDQwOUFFM0NGOUI8L3N0RXZ0Omluc3RhbmNlSUQ+CiAgICAgICAgICAgICAgICAgIDxzdEV2dDp3aGVuPjIwMTMtMTAtMDFUMTQ6MTE6MzEtMDQ6MDA8L3N0RXZ0OndoZW4+CiAgICAgICAgICAgICAgICAgIDxzdEV2dDpzb2Z0d2FyZUFnZW50PkFkb2JlIElsbHVzdHJhdG9yIENTNiAoTWFjaW50b3NoKTwvc3RFdnQ6c29mdHdhcmVBZ2VudD4KICAgICAgICAgICAgICAgICAgPHN0RXZ0OmNoYW5nZWQ+Lzwvc3RFdnQ6Y2hhbmdlZD4KICAgICAgICAgICAgICAgPC9yZGY6bGk+CiAgICAgICAgICAgIDwvcmRmOlNlcT4KICAgICAgICAgPC94bXBNTTpIaXN0b3J5PgogICAgICAgICA8eG1wTU06TWFuaWZlc3Q+CiAgICAgICAgICAgIDxyZGY6U2VxPgogICAgICAgICAgICAgICA8cmRmOmxpIHJkZjpwYXJzZVR5cGU9IlJlc291cmNlIj4KICAgICAgICAgICAgICAgICAgPHN0TWZzOmxpbmtGb3JtPkVtYmVkQnlSZWZlcmVuY2U8L3N0TWZzOmxpbmtGb3JtPgogICAgICAgICAgICAgICAgICA8c3RNZnM6cmVmZXJlbmNlIHJkZjpwYXJzZVR5cGU9IlJlc291cmNlIj4KICAgICAgICAgICAgICAgICAgICAgPHN0UmVmOmZpbGVQYXRoPi9IRFZpZGVvIFRyYW5zZmVycy9NZWRpYTRNYXRoUGx1cy9Gb3JtdWxhcy9GYWhyZW5oZWl0VG9DZWxzaXVzLmVwczwvc3RSZWY6ZmlsZVBhdGg+CiAgICAgICAgICAgICAgICAgIDwvc3RNZnM6cmVmZXJlbmNlPgogICAgICAgICAgICAgICA8L3JkZjpsaT4KICAgICAgICAgICAgICAgPHJkZjpsaSByZGY6cGFyc2VUeXBlPSJSZXNvdXJjZSI+CiAgICAgICAgICAgICAgICAgIDxzdE1mczpsaW5rRm9ybT5FbWJlZEJ5UmVmZXJlbmNlPC9zdE1mczpsaW5rRm9ybT4KICAgICAgICAgICAgICAgICAgPHN0TWZzOnJlZmVyZW5jZSByZGY6cGFyc2VUeXBlPSJSZXNvdXJjZSI+CiAgICAgICAgICAgICAgICAgICAgIDxzdFJlZjpmaWxlUGF0aD4vSERWaWRlbyBUcmFuc2ZlcnMvTWVkaWE0TWF0aFBsdXMvRm9ybXVsYXMvQ2Vsc2l1c1RvRmFocmVuaGVpdC5lcHM8L3N0UmVmOmZpbGVQYXRoPgogICAgICAgICAgICAgICAgICA8L3N0TWZzOnJlZmVyZW5jZT4KICAgICAgICAgICAgICAgPC9yZGY6bGk+CiAgICAgICAgICAgICAgIDxyZGY6bGkgcmRmOnBhcnNlVHlwZT0iUmVzb3VyY2UiPgogICAgICAgICAgICAgICAgICA8c3RNZnM6bGlua0Zvcm0+RW1iZWRCeVJlZmVyZW5jZTwvc3RNZnM6bGlua0Zvcm0+CiAgICAgICAgICAgICAgICAgIDxzdE1mczpyZWZlcmVuY2UgcmRmOnBhcnNlVHlwZT0iUmVzb3VyY2UiPgogICAgICAgICAgICAgICAgICAgICA8c3RSZWY6ZmlsZVBhdGg+L0hEVmlkZW8gVHJhbnNmZXJzL01lZGlhNE1hdGhQbHVzL0Zvcm11bGFzL0NpcmN1bWZlcmVuY2VPZkNpcmNsZS5lcHM8L3N0UmVmOmZpbGVQYXRoPgogICAgICAgICAgICAgICAgICA8L3N0TWZzOnJlZmVyZW5jZT4KICAgICAgICAgICAgICAgPC9yZGY6bGk+CiAgICAgICAgICAgICAgIDxyZGY6bGkgcmRmOnBhcnNlVHlwZT0iUmVzb3VyY2UiPgogICAgICAgICAgICAgICAgICA8c3RNZnM6bGlua0Zvcm0+RW1iZWRCeVJlZmVyZW5jZTwvc3RNZnM6bGlua0Zvcm0+CiAgICAgICAgICAgICAgICAgIDxzdE1mczpyZWZlcmVuY2UgcmRmOnBhcnNlVHlwZT0iUmVzb3VyY2UiPgogICAgICAgICAgICAgICAgICAgICA8c3RSZWY6ZmlsZVBhdGg+L0hEVmlkZW8gVHJhbnNmZXJzL01lZGlhNE1hdGhQbHVzL0Zvcm11bGFzL0FyZWFPZkNpcmNsZS5lcHM8L3N0UmVmOmZpbGVQYXRoPgogICAgICAgICAgICAgICAgICA8L3N0TWZzOnJlZmVyZW5jZT4KICAgICAgICAgICAgICAgPC9yZGY6bGk+CiAgICAgICAgICAgICAgIDxyZGY6bGkgcmRmOnBhcnNlVHlwZT0iUmVzb3VyY2UiPgogICAgICAgICAgICAgICAgICA8c3RNZnM6bGlua0Zvcm0+RW1iZWRCeVJlZmVyZW5jZTwvc3RNZnM6bGlua0Zvcm0+CiAgICAgICAgICAgICAgICAgIDxzdE1mczpyZWZlcmVuY2UgcmRmOnBhcnNlVHlwZT0iUmVzb3VyY2UiPgogICAgICAgICAgICAgICAgICAgICA8c3RSZWY6ZmlsZVBhdGg+L0hEVmlkZW8gVHJhbnNmZXJzL01lZGlhNE1hdGhQbHVzL0Zvcm11bGFzL1BlcmltZXRlck9mUmVjdGFuZ2xlLmVwczwvc3RSZWY6ZmlsZVBhdGg+CiAgICAgICAgICAgICAgICAgIDwvc3RNZnM6cmVmZXJlbmNlPgogICAgICAgICAgICAgICA8L3JkZjpsaT4KICAgICAgICAgICAgICAgPHJkZjpsaSByZGY6cGFyc2VUeXBlPSJSZXNvdXJjZSI+CiAgICAgICAgICAgICAgICAgIDxzdE1mczpsaW5rRm9ybT5FbWJlZEJ5UmVmZXJlbmNlPC9zdE1mczpsaW5rRm9ybT4KICAgICAgICAgICAgICAgICAgPHN0TWZzOnJlZmVyZW5jZSByZGY6cGFyc2VUeXBlPSJSZXNvdXJjZSI+CiAgICAgICAgICAgICAgICAgICAgIDxzdFJlZjpmaWxlUGF0aD4vSERWaWRlbyBUcmFuc2ZlcnMvTWVkaWE0TWF0aFBsdXMvRm9ybXVsYXMvQXJlYU9mUmVjdGFuZ2xlLmVwczwvc3RSZWY6ZmlsZVBhdGg+CiAgICAgICAgICAgICAgICAgIDwvc3RNZnM6cmVmZXJlbmNlPgogICAgICAgICAgICAgICA8L3JkZjpsaT4KICAgICAgICAgICAgICAgPHJkZjpsaSByZGY6cGFyc2VUeXBlPSJSZXNvdXJjZSI+CiAgICAgICAgICAgICAgICAgIDxzdE1mczpsaW5rRm9ybT5FbWJlZEJ5UmVmZXJlbmNlPC9zdE1mczpsaW5rRm9ybT4KICAgICAgICAgICAgICAgICAgPHN0TWZzOnJlZmVyZW5jZSByZGY6cGFyc2VUeXBlPSJSZXNvdXJjZSI+CiAgICAgICAgICAgICAgICAgICAgIDxzdFJlZjpmaWxlUGF0aD4vSERWaWRlbyBUcmFuc2ZlcnMvTWVkaWE0TWF0aFBsdXMvRm9ybXVsYXMvUGVyaW1ldGVyT2ZTcXVhcmUuZXBzPC9zdFJlZjpmaWxlUGF0aD4KICAgICAgICAgICAgICAgICAgPC9zdE1mczpyZWZlcmVuY2U+CiAgICAgICAgICAgICAgIDwvcmRmOmxpPgogICAgICAgICAgICAgICA8cmRmOmxpIHJkZjpwYXJzZVR5cGU9IlJlc291cmNlIj4KICAgICAgICAgICAgICAgICAgPHN0TWZzOmxpbmtGb3JtPkVtYmVkQnlSZWZlcmVuY2U8L3N0TWZzOmxpbmtGb3JtPgogICAgICAgICAgICAgICAgICA8c3RNZnM6cmVmZXJlbmNlIHJkZjpwYXJzZVR5cGU9IlJlc291cmNlIj4KICAgICAgICAgICAgICAgICAgICAgPHN0UmVmOmZpbGVQYXRoPi9IRFZpZGVvIFRyYW5zZmVycy9NZWRpYTRNYXRoUGx1cy9Gb3JtdWxhcy9BcmVhT2ZTcXVhcmUuZXBzPC9zdFJlZjpmaWxlUGF0aD4KICAgICAgICAgICAgICAgICAgPC9zdE1mczpyZWZlcmVuY2U+CiAgICAgICAgICAgICAgIDwvcmRmOmxpPgogICAgICAgICAgICAgICA8cmRmOmxpIHJkZjpwYXJzZVR5cGU9IlJlc291cmNlIj4KICAgICAgICAgICAgICAgICAgPHN0TWZzOmxpbmtGb3JtPkVtYmVkQnlSZWZlcmVuY2U8L3N0TWZzOmxpbmtGb3JtPgogICAgICAgICAgICAgICAgICA8c3RNZnM6cmVmZXJlbmNlIHJkZjpwYXJzZVR5cGU9IlJlc291cmNlIj4KICAgICAgICAgICAgICAgICAgICAgPHN0UmVmOmZpbGVQYXRoPi9IRFZpZGVvIFRyYW5zZmVycy9NZWRpYTRNYXRoUGx1cy9Gb3JtdWxhcy9BcmVhT2ZTcXVhcmUuZXBzPC9zdFJlZjpmaWxlUGF0aD4KICAgICAgICAgICAgICAgICAgPC9zdE1mczpyZWZlcmVuY2U+CiAgICAgICAgICAgICAgIDwvcmRmOmxpPgogICAgICAgICAgICAgICA8cmRmOmxpIHJkZjpwYXJzZVR5cGU9IlJlc291cmNlIj4KICAgICAgICAgICAgICAgICAgPHN0TWZzOmxpbmtGb3JtPkVtYmVkQnlSZWZlcmVuY2U8L3N0TWZzOmxpbmtGb3JtPgogICAgICAgICAgICAgICAgICA8c3RNZnM6cmVmZXJlbmNlIHJkZjpwYXJzZVR5cGU9IlJlc291cmNlIj4KICAgICAgICAgICAgICAgICAgICAgPHN0UmVmOmZpbGVQYXRoPi9IRFZpZGVvIFRyYW5zZmVycy9NZWRpYTRNYXRoUGx1cy9Gb3JtdWxhcy9nZWFyc19maXJlMl8yX3ZydF9tZS5qcGc8L3N0UmVmOmZpbGVQYXRoPgogICAgICAgICAgICAgICAgICA8L3N0TWZzOnJlZmVyZW5jZT4KICAgICAgICAgICAgICAgPC9yZGY6bGk+CiAgICAgICAgICAgICAgIDxyZGY6bGkgcmRmOnBhcnNlVHlwZT0iUmVzb3VyY2UiPgogICAgICAgICAgICAgICAgICA8c3RNZnM6bGlua0Zvcm0+RW1iZWRCeVJlZmVyZW5jZTwvc3RNZnM6bGlua0Zvcm0+CiAgICAgICAgICAgICAgICAgIDxzdE1mczpyZWZlcmVuY2UgcmRmOnBhcnNlVHlwZT0iUmVzb3VyY2UiPgogICAgICAgICAgICAgICAgICAgICA8c3RSZWY6ZmlsZVBhdGg+L0hEVmlkZW8gVHJhbnNmZXJzL01lZGlhNE1hdGhQbHVzL0Zvcm11bGFzL2dlYXJzX2ZpcmUyXzJfdnJ0X21lLmpwZzwvc3RSZWY6ZmlsZVBhdGg+CiAgICAgICAgICAgICAgICAgIDwvc3RNZnM6cmVmZXJlbmNlPgogICAgICAgICAgICAgICA8L3JkZjpsaT4KICAgICAgICAgICAgPC9yZGY6U2VxPgogICAgICAgICA8L3htcE1NOk1hbmlmZXN0PgogICAgICA8L3JkZjpEZXNjcmlwdGlvbj4KICAgICAgPHJkZjpEZXNjcmlwdGlvbiByZGY6YWJvdXQ9IiIKICAgICAgICAgICAgeG1sbnM6aWxsdXN0cmF0b3I9Imh0dHA6Ly9ucy5hZG9iZS5jb20vaWxsdXN0cmF0b3IvMS4wLyI+CiAgICAgICAgIDxpbGx1c3RyYXRvcjpTdGFydHVwUHJvZmlsZT5QcmludDwvaWxsdXN0cmF0b3I6U3RhcnR1cFByb2ZpbGU+CiAgICAgIDwvcmRmOkRlc2NyaXB0aW9uPgogICAgICA8cmRmOkRlc2NyaXB0aW9uIHJkZjphYm91dD0iIgogICAgICAgICAgICB4bWxuczpwZGY9Imh0dHA6Ly9ucy5hZG9iZS5jb20vcGRmLzEuMy8iPgogICAgICAgICA8cGRmOlByb2R1Y2VyPkFkb2JlIFBERiBsaWJyYXJ5IDEwLjAxPC9wZGY6UHJvZHVjZXI+CiAgICAgIDwvcmRmOkRlc2NyaXB0aW9uPgogICA8L3JkZjpSREY+CjwveDp4bXBtZXRhPgogICAgICAgICAgICAgICAgICAgICAgICAgICAgICAgICAgICAgICAgICAgICAgICAgICAgICAgICAgICAgICAgICAgICAgICAgICAgICAgICAgICAgICAgICAgICAgICAgICAgCiAgICAgICAgICAgICAgICAgICAgICAgICAgICAgICAgICAgICAgICAgICAgICAgICAgICAgICAgICAgICAgICAgICAgICAgICAgICAgICAgICAgICAgICAgICAgICAgICAgICAKICAgICAgICAgICAgICAgICAgICAgICAgICAgICAgICAgICAgICAgICAgICAgICAgICAgICAgICAgICAgICAgICAgICAgICAgICAgICAgICAgICAgICAgICAgICAgICAgICAgIAogICAgICAgICAgICAgICAgICAgICAgICAgICAgICAgICAgICAgICAgICAgICAgICAgICAgICAgICAgICAgICAgICAgICAgICAgICAgICAgICAgICAgICAgICAgICAgICAgICAgCiAgICAgICAgICAgICAgICAgICAgICAgICAgICAgICAgICAgICAgICAgICAgICAgICAgICAgICAgICAgICAgICAgICAgICAgICAgICAgICAgICAgICAgICAgICAgICAgICAgICAKICAgICAgICAgICAgICAgICAgICAgICAgICAgICAgICAgICAgICAgICAgICAgICAgICAgICAgICAgICAgICAgICAgICAgICAgICAgICAgICAgICAgICAgICAgICAgICAgICAgIAogICAgICAgICAgICAgICAgICAgICAgICAgICAgICAgICAgICAgICAgICAgICAgICAgICAgICAgICAgICAgICAgICAgICAgICAgICAgICAgICAgICAgICAgICAgICAgICAgICAgCiAgICAgICAgICAgICAgICAgICAgICAgICAgICAgICAgICAgICAgICAgICAgICAgICAgICAgICAgICAgICAgICAgICAgICAgICAgICAgICAgICAgICAgICAgICAgICAgICAgICAKICAgICAgICAgICAgICAgICAgICAgICAgICAgICAgICAgICAgICAgICAgICAgICAgICAgICAgICAgICAgICAgICAgICAgICAgICAgICAgICAgICAgICAgICAgICAgICAgICAgIAogICAgICAgICAgICAgICAgICAgICAgICAgICAgICAgICAgICAgICAgICAgICAgICAgICAgICAgICAgICAgICAgICAgICAgICAgICAgICAgICAgICAgICAgICAgICAgICAgICAgCiAgICAgICAgICAgICAgICAgICAgICAgICAgICAgICAgICAgICAgICAgICAgICAgICAgICAgICAgICAgICAgICAgICAgICAgICAgICAgICAgICAgICAgICAgICAgICAgICAgICAKICAgICAgICAgICAgICAgICAgICAgICAgICAgICAgICAgICAgICAgICAgICAgICAgICAgICAgICAgICAgICAgICAgICAgICAgICAgICAgICAgICAgICAgICAgICAgICAgICAgIAogICAgICAgICAgICAgICAgICAgICAgICAgICAgICAgICAgICAgICAgICAgICAgICAgICAgICAgICAgICAgICAgICAgICAgICAgICAgICAgICAgICAgICAgICAgICAgICAgICAgCiAgICAgICAgICAgICAgICAgICAgICAgICAgICAgICAgICAgICAgICAgICAgICAgICAgICAgICAgICAgICAgICAgICAgICAgICAgICAgICAgICAgICAgICAgICAgICAgICAgICAKICAgICAgICAgICAgICAgICAgICAgICAgICAgICAgICAgICAgICAgICAgICAgICAgICAgICAgICAgICAgICAgICAgICAgICAgICAgICAgICAgICAgICAgICAgICAgICAgICAgIAogICAgICAgICAgICAgICAgICAgICAgICAgICAgICAgICAgICAgICAgICAgICAgICAgICAgICAgICAgICAgICAgICAgICAgICAgICAgICAgICAgICAgICAgICAgICAgICAgICAgCiAgICAgICAgICAgICAgICAgICAgICAgICAgICAgICAgICAgICAgICAgICAgICAgICAgICAgICAgICAgICAgICAgICAgICAgICAgICAgICAgICAgICAgICAgICAgICAgICAgICAKICAgICAgICAgICAgICAgICAgICAgICAgICAgICAgICAgICAgICAgICAgICAgICAgICAgICAgICAgICAgICAgICAgICAgICAgICAgICAgICAgICAgICAgICAgICAgICAgICAgIAogICAgICAgICAgICAgICAgICAgICAgICAgICAgICAgICAgICAgICAgICAgICAgICAgICAgICAgICAgICAgICAgICAgICAgICAgICAgICAgICAgICAgICAgICAgICAgICAgICAgCiAgICAgICAgICAgICAgICAgICAgICAgICAgICAgICAgICAgICAgICAgICAgICAgICAgICAgICAgICAgICAgICAgICAgICAgICAgICAgICAgICAgICAgICAgICAgICAgICAgICAKICAgICAgICAgICAgICAgICAgICAgICAgICAgCjw/eHBhY2tldCBlbmQ9InciPz7/7gAOQWRvYmUAZMAAAAAB/9sAhAACAgICAgICAgICAwICAgMEAwICAwQFBAQEBAQFBgUFBQUFBQYGBwcIBwcGCQkKCgkJDAwMDAwMDAwMDAwMDAwMAQMDAwUEBQkGBgkNCwkLDQ8ODg4ODw8MDAwMDA8PDAwMDAwMDwwMDAwMDAwMDAwMDAwMDAwMDAwMDAwMDAwMDAz/wAARCAJmAxoDAREAAhEBAxEB/8QA9QAAAwABBQEBAAAAAAAAAAAAAAECAwQFBgcICQoBAQEBAAMBAQEAAAAAAAAAAAABAgMEBQYHCBAAAQIEAwQDBwkODA8LCQgDAQACEQMEBSEGBzFBEghRYRNxgZEiFBUJ0TLSlLTUVZUWobHBQlJykrIj01RWFxjw4WIzU3OzJIR11TbxgkM0RHTkJTVFhbUmVziik6PjpEZ2hjdYGeJjZKWmttYoOYPEZSdnd5dI5UdoEQACAQIBBwcKBQQCAQUAAwAAAQIRAwQhMVGR0RIFQWFxoVITFPCBscHhMlMVBhYiktIzNPFCciOCJLJiouJDNcJEJf/aAAwDAQACEQMRAD8A9k5JynlK8ZYtt0vNiNzuda6qfV1z6yrY6Y4VM1gJbLnNb61oGAX1eLxF6F6UYzaSeRZD5SeIUMm6nkRyn5Baf/imPb9d9/XX8VifiPUthnxa7CMEzIWQhsysB/D677+r4rEfEepbC+KXYRgORchj/msPb9f9/V8TifiPUthfFR7CIOR8hj/msPb9f9/TxOJ+I9S2DxMewh/IjIX4rD2/Xff1PE4n4j1LYXxMewi/kPkL8Vh7frvv6eJxPxHqWwvio9hB8hshfisPb9d9/U8TifiPUthfEx7CJ+Q+QvxWHt+u+/p4nE/EepbC+Jj2EP5DZC/Fce3677+p4rE/EepbDXiI9hEnI2Q/xXHt+u+/p4rE/EepbC+Ij2EQcjZE/Ff/AJfXff08VifiPUthfER7CJORsifix/y+u+/q+KxPxHqWw0sRDsIXyHyJ+LP/AC+u+/p4rE/EepbDXfw7ESDkfIv4s/8AL677+nisT8R6lsJ30OwjE7JGRx/zaPxhXff1fFYj4j1LYTv4dhGB2SskD/m2fjCv+/q+KxHxHqWwnfw7CMLsmZJ3ZdcP8oV/39XxWI+I9S2E7+PYRhdkzJm7LzvjCu+/p4rEfEepbB38ewiTk7JbAQcvOc89NwroD/h9qvisR8R6lsMO/HsI0UzKmTWH+b7u55wr/v6scTiPiPUthHfj2Eamnyjkt+3Lznd24V/39c8b99/3vUth15YldlG6S8k5HdCOWzj/APiFf9/XJ31/tvUthnxS7KNSMjZF35ZPxhX/AH9Xvr/bepbDPi12UZBkXIn4sn4wr/v6d7f7b1LYPFrsoDkXIn4sn4wr/v6d7f7fUtg8WuygGRci/iz/AOsK/wC/p31/tvUthfFrsoRyPkMD+bBP+UK/7+r31/t9S2E8UuyjRTsj5JgeHLbm/wCUa+P7une3+31LYXxS7KNJ8h8lHZYHx6PONf8Af072923qWwnil2UHyGyX8AP7nnGv+/p3t7tvUtg8Uuyg+QuTd2Xpg7txr/fCd9e7fUtg8UuyhjImTPgCYf8AKNf9/Tvb3bepbB4ldlB8hMmfAD/jGv8Av6d9e7fUthfErsoPkJkzZ5gmfGNf9/Tvr3b6lsHiV2UY/kFk7dY5h6vONf8Af1O+vdt6lsL4ldlDGRMm/AMz4xr/AL+nfXu29S2DxC7KL+QeTPgGZ8Y1/wB/Tvr3bepbB4iPZRYyHkvfYJh/yjX/AH9O+vdvqWweIXZRXyDyT8ATPjGv98J31/t9S2F8Quyh/IHJPwBMH+Ua/wC/p317t9S2F79dlD+QeSoQdl58OkXGvB7v6/1J39/t9S2E7+PZRlZkTI7QQ7Lj5jXD4Rr2uHcPbwwTv7/b6lsL38eyifkBkiJAy/Mw3G43AHv/AHdTv7/b6lsL38eyg+QGSPxfmfGNf74Tv7/b6lsHfx7KH8gMkfi/M+Ma/wB8Kd/f7fUthe+j2UP5AZI/F6Z8Y1/vhO/v9vqWwd9HsoY0/wAkfi9M+Ma/3wnf3+31LYO+j2UWNP8AI5EDl6Z1OFxr4/u6jv3+29S2F72PZRlbkHIuAdltzulzbjXg7fqTUQ3wwV8Rf7fUtg72PZRlbp9kN3rcuucRtHnG4RHe8oV8Rf7fUthO9j2Svye5E/Ft/wAY1/vhZeIv9vqWw13seyh/k8yF+Lb/AIxr/fCqxN/t9S2DvI9lD/J5kPb8m3fGNf74UeIv9vqWwd5HsoyDT3IMQTllxA2jzjX4j/f1lYm/X3+pbC95HsoT9OchGLTlx4P0sxtxuAMIGGBqIb9+K08Rf7fUtg7yPZQxpxkQtLRlxxJjAi43CIiYjbUREIda43icRX3+pbDXeQ7KNP8Ak5yLt+Tz/jGv98LXib/b6lsJvw7KLl6cZE42Ry68jiER5xuEDj/bCzLE4inv9S2GlOHZRkmacZC4sMuPaCBgLjcOjH+yOlSOKxFPf6lsLvw7KI/JxkP8XZnxjcPfCvisR2+pbBvQ7KNRJ03yFCc52XHug0hoNxuGDoEg/wBcdSzLF4iq/H1LYVSh2UYPyb5DJ/m7MHT/AHxuENu/98fOWvFYjt9S2E3odlA7TbIhx+TsxsBjC5XAjAf2xFPFYjt9S2Deh2UZWaaZDZLc92XZjuLxZcbjcCOs/wBcbk8Xf7fUthaw7Im6a5C35dmfGVw98KPF4jt9S2F3odlGUaaZAjH5OPw//Ebh74U8XiO31LYKw7KMjdMsgPPCctvHS8XG4Db1eUQTxeI7fUtgrDso3AaX6d8MDlhxwgT5xuEfD5Qt+LxHb6lsM1h2TTv0p0/xMvL8wbfFdcbgR4fKIrLxWI7fUthpOHZRjdpdkJrcctTAQT43nK4EEYf+kbll4vEdvqWw0nb7KJGmOn+/Lkz4xuHvhZ8ZiO31LYX/AF9lFjTDT78W3/GVw98J4zEdvqWwv+vsooaYae/i2/4yuHvhTxmJ7fUtg/19lFfku0+/Ft/xjcPfCeNxHb6lsLS32UUNLdPvxbf8Y3D3wnjcR2+pbBS32UW3S3TyOGW3QP0rrjcC3Hr8oiId0qeNxPb6lsFLfZRnGlunDoRyw9kdkblcCPCKiHhV8diO31LYKW+yjKNKdOcP9GX44j++Vwx/5QnjsT2+pbBS32UP8lGnH4sv+Mrh74U8die31LYWlvsooaT6cfiy/wCMrh74Tx2J7fUtg3bfZQ/yTab/AIsv+Mrh74Tx2J7fUtg3bfZRbdJtN/xXc4b2+crjjvhhUgjvKeOxPb6lsLu2+yifyQ6cQ8XLkww3OuVwjgDvFRvPV31HjsT2+pbBu2+yiDpFp2DA5amAmMAblcMe4fKCD3lPHYnt9S2F3bXZQfkj05/FuZ3POVw98KePxXb6lsLuW+yhjSPTj8XJnxlcPfCnj8V2+pbC7lrsov8AJBpz+Lkz4yuHvhPmGK7fUtg7u32UMaQacb8tzPjK4e+FPmGK7fUtg7u32UWNINN9hy3MIx23K49H9sgp8wxXb6lsL3drsoPyOabk+Ll6b1Ndcrh8/wApgp8wxXxOpbB3drsoX5HNOPxcmjojcrh75U+YYrt9S2F7u12UUNHNOD/zcmj/AClcPfKnzHFdvqWwvd2uyixo1pv+Lsz4yuPvlT5jividS2F7q12UMaM6bfi7N+Mrh75T5jividS2DurXZRY0Y02P/N2b8ZXH3wp8yxfxOpbB3Vrsor8i+mv4uzfjK4++U+ZYv4nUtg7q12UP8i2mv4uzR/lK4e+VPmWL+J1LYXurXZRL9F9NQMMuzR1+crh75WZcTxa/+zqWwqs2uyjwn5zufwjVf4E7H9ef+t/U7dnUvsd1dVfPp6TzP1U82g9bacj/AEKsn8L91z187jf3p9PqOhiH+LzL0HNCF1jhqQ5sQQUKpGje0gn5q0jSZiIVNVJggqW1QtSoKFTEQhScQhqo1k0QhSChonuKmkyT14qmiCEI0YXNVMmmcFQYCIbEIadwIjFUG01hgQVYmJGpoSTBduDyHVnnORysYLZxmrbgqQyRC0iCLugd9BUx4naUIUAhTFMbEHBUI29zYEoUQJCAyh0RFKCpeHf3hCjgUoUFKCoJQo/mpQBAdMO6lAOBG0Q61BUYgqUcIdxBUsFShahwx2YJQ0jIwgHhmti07CNx6QoC3NLSMeIHFp6R0g+qlBUn58Nh+gpQqYxgejpClC1KB6UKUEFSgFKFqV3ce76qiFTKHnf43d27enr61RUyNcDhsPQcP0lmhamTeerdsKqLUNijRTKPGaW/TMiRtOG0+r4UQBuHfUkshUxugcXDaNuw+Hvb1FmFRBvjNIxxHUdse4kkVMb4kNPREEfNj81ZSNVICCpqW4SiBtLSfC4D6CxymqmIQgtkqZpTS48EYcXgBG9ZeQqMk0gFrQCAwd/pUjpNNkDww6NvgVIW1hceFoiej1VGaKceHxWnZiT0lGDI2pmN9cOMJUGqZUS34E8J6CqmQyTHtY3Ew4tkNveRlRpAIEjoOJbAjuw2LjobLHcw3kbPVwUoWpQO8bOkYqUBYd+jagMgPUpQtSkKMR6duB7igMjXEby2Jxhs+xOHcQpnbMB9cIdJbEgd0HEQQGVpiIjEdIxUBQPUhSwlClg7tqlCmQOh3MIg4jDHFCBwNIwi2GwbRh3cRipQqZJY5uP0o+mGI6I9UesLLRqoAn5mCjRalB3fUoWpYIUKZB0YqAyAmEN3RtQhUAdh4fneqpQ0GI294+os0LUoEqUKZAVKAyR7ylAKKUKYpjsFiayGo5z5c/yQvvth5X6j2Jpz/Mqx/wAK91zl87jP3pdPqPPxD/F5l6Dmq61DgqClAYZkuIiNqGkzRFsCqbqY4LRopqgMgWSiIQtSYIWpOz1ENJih0KG0yCEKQQhRKmkyShupBCGWjTuaqQ0zgqQwOCpDZK8fPWomZZjUW8bF2Y5jqyznJpIwXIjjZqgFSDLQVUZHBaJQUEBQRIqBwiFQbfNZB2G9CkBnT4EBmaICAwCArgadohju9RASWEbPmYj1UFRdZGHShajENyFBANQDGGxBUOEH9SepQtQ8YbuIbyEKMFpQFIWo49/qUKmW12HD9LtA6D0hC1HiMDsOMD89QFYeoDiPVCCo4Dfh1nZ4UoWowYbe9+kpQtSxBQDULUEKUCe90IDI1/Ds2dB2eqoWpmD2nb4senEeH1VRUsGBBIiNo6CO6pQtSyOE4GIOIPV81GWo+JZoBjBaZSjAgggHHesFqTwg7Dj0Hvnb+ktUBkdENduHitEdmAK4qGqmLZt8C20KmqlQa3iO8Rh+pHqnBcUjSJceKD/q/XfXb/DtW6CoDGAG07B1qPIVGqiJLIDGY8Q4ugdRCwlU0YMN3g+YtEqENsMYeFGil8AZAv2/SsPzygDiJPjGPdQqZmBJa12MW+K4mO4YY9z5yzQ1Uri2Rx6SFKAzsll5Djs2l0YH5nSqojeMjpJBJYYjwH6ARxCkYQSDA7eg4FZoWpYMd6zQpkShSh30oUsf0FAZGuIMQfG6d5xjj049KgMwmdI4utu3vj1EKZQQQS1wcBtI8GO8d9AWChamQEdHfUoKlBShSw6BBBxGIIwKAcGGOHCerDdARGxShakmWY4eNE7tu2GIxPgipQtSQcI7R07Qs0LUygjudzYpQtTICDvioUpAW0kdzo6YbilClQaelp6lmhajgW47R0jYo0Wow4KNAUVKFMU12HfCxNZDUc58vv5JX3mw8v8AUexNOP5lWT+Fe65y+exn70un1Hm4j3/MvQc3XVOCoQQtSSEKaScyBjuKGkzTEKlTJQ1UsGChalqFEQqUghQooIbqSQoaTIIQ0QUKSqaTJIQ0YXKmTTvAVIzTO2IZNlr/AKK2s5mRloNy7Mcx1ZZzk0nYFyHG2alUjY4jditELA6VSAQgEFQPchTTzQEIaeEEKUChSgUIPi6koBmBjHBzvp+/HHpVBjcwwjDAbxju8Khak4jrEULUfEO4hRxQDioCo7xgRsKARAIxwO4jwQQovGb1t3EYoUoOBUBUUBmaQ5vZuPWxx3Hu7ooWpji5hgRsOIOClC1LDx0wigL27DA794PeQtRHDGEI7N48KhSg7pQFcSzQtRghQpUehAPi6MNyFMjXwMQMd43H1EBqBMaWwPilpPCDshvgeqCFqEYEgqUKUCiBUcFk0UDirLMCg4w7u0dPeUplKLhBI4TAAYtPVHYVWExvdAOBEC4wA6m4YdK46ZTVRMdEOaT17sSP0uhaFTUSjwNLnYHbHob+nuXHLKaTMbphc5ztkd3QFaUQqMOjBVoJmrlFspomTBxE/rbDujvXG226GzEXcRJcYlx2naNp760kGHc27xvHe2oC2EGI+qBA7u0Q8CgGHBkTGLjs6AqDPKqQ0cLwY/VIgzWNmNcItII3KkKdwvHC8RHWjRpM0zmGWcTxA7Pqh3t6w0aTG10d8ekDd3lihqpYcgqVFClcSlAWHhShS+KJjiCPWuG0HCBiOiCAytmnhg4cRH07dvUCO8gMwcDi08Q3kd/wIKlB3fULUyB6UKWHKAsOUBUQ6PEPGIgHjaN3fgNyUKmRwnd436pu3ftb3OhZoUQdvipQtTIHn+ipQ1UyB2CyUoHoQFh5BiMCMYhKFGYEbIO6R6ijQMbojrHSFmhamnmvwHdWJrIajnPmP/JC+62Hm/qPYWnToZLsn8K91zl89jF/ul0+o8vE+/5l6Dm3EF1qHBUcUA4oWpLmhwgoVM0L2Fp6kNpmIqlIMVTSKaSo0KmQGKhtAQoWpEFS1EetQ0mQQhakQUN1MZCpUyepDaZifgFSM0k1wAOOCqI2bNUXGVKdwiLjvhuW1GpxuVDaqqrlzQOE71pRZmUkbhbyDBdiKyHWkzksp8ABtPQuQwzUCJ9dh+pCpDIMNiEMoKoK7iAiCoKVQMMwAgghRg0JwjA7OtUDx7sFRUcRviFC1HFUgw7vdxClA/oCADA7Rj0jDFBUngjs8bubfAhSYbwe+FKFqAJ349xBUoOHTBCjQACRsKADA9R6QoUPGHWOn1d6AYd4OlCmcHtAGn9cA8XrA3d0IDHDePCoVBxEIKmQP8O8KFqVEHZh1bt+5C1CJxw8GKhSo79ylBUA5C1LDlKFqUD1qFKBh174FAZOLhIh63oOIh+jbBAZA8b8OvaELUuJ4Qe+D0wUpkLUqOIR5QUHdaULUoO/oqPOKlR3bujdh1IshQaAC1zfFIxaI4RGzrHSozSCYXCGEGkxJ3EkkbcejesqPKWpAOwQxOwD6CrBqWcLBxOIJGwdfV0lcbymkS6ZxuLjgTuWkqZBUQKUZamplsLmh7zwyh9McfAO8sORpDMxpHDLEBvJ9ce6USYyEuxdEYF27ZE74Q6+hVhMlQo2ue0+ISD1IshDVip4R4wBd0N2fo7i1UUMfa8Zi4QPSPUWWVMy8WAjBwGw7xt3rNDSLD+gx6jgfDsO3eoUYfjDYfqSIHqUBkDv6CFqOKFKB6EBYdgMVKFLD8Yk47nDA+FQGUTSNsHfMI+gYIDK14cYAxI2t2OHe7yAsOQpYcoDIHA9alClcXWhSyQ712JOBdv3b+9DFSgqKBhEGO87uknDYo0WpIdtIMR0j6KzQtSg79NQ1Uyh4O9SgK4lCkl4B6DuKlCmnnEERhiN4721ZmshqOc+Zf8AJC+32HnfqPX+nZ/0Msn8K91zl8/i/wB6XSeTin+PzL0HNV1zgBQo4oKjBQpjmw4S7oGxKFTobV2p4jHZFa3TSZka8OWWjdTIAFAZAIKGhqFTJIQ0iSFTRBChakIaTJKGjE4gIjSZop9RLljFwW6ByRxurq3zYtZ4rN/SVtI4ZSrmNqLIgrZxGhmtIK5EyM3q3EgNXNE4ZM5NJc5oEFyUMVNWJvT4VKFqZ2vEMQR3lKAzNcqimQEf0UoKiJggHFBUlwVBt80QcVEDFErQKDj3UIPA7PUQBjuKFqME9B7yCpQeI7cf0daCpeBxQtQMDie8d/hVAi0E4eDePoKFqTA+qEAu4UKOJ3hQtRxBQDBhiO8gDA7RjuOxQoQIxbj3Nvg9RAWXcfjQ8b6eG/rQCDu+lC1DDudSgHGHqIUsO6DiCoWow7pH9MPohKFqVGP0CPUUKEeuI6QgKDv01KFqVxKULUyNMQekCIShRg9CgKDiIwMI7SPohAZQ8E+N0QBH0URalxwJBwjgUKUHblKAsHvICw7wrNDVSw6LSIwIxHfwK0EyhwDbFsdpb6i485owuDtp2AbsQBt2bVrdoKg0OJgMd8d3hUaKjUAy5QBd47+jcO8forjys0S6a+YYudE7lpRSzEqIFR5S1M8sveDLEXGMWt247D8xHkNFlrGCD3RdsLAYgbsTuWK1KQT0eK3o3eFaILZtUKUEKZOKGwoDI0OfsECelKCpnErxfXY7xuV3RvGOJYYOiCIQaT847llo0mWJnXj0LNCmQO2x29GxQpcULUcUBQPWoUrjjgRxAKAzNmneePpDsD1wd6qAyteDARgYetOHg6cUBkjuOB3hKAoOPSoWpYehalhylCl8QdtxIwDthGENqlABbHYYjoMARj4Dh3FGipk4gwOBG1p2qULUYdDfgslqSXdKULUwTHeLGOKxNZDUHlPml/JC+12Hn/qPXunhhk2yfwr3XOXgYv8Ael0nkYt/7PMvQc0iuudaow5KFUhxULUcUKmBgRA4goWpt1RIg6Ld6qZpM0vC6MFTVTWtwACwaqWCoaqXBQqYoIaqJQ0mQQqaMZEFDRhmOgFUi1obTUVUIhuLurYtqJlzNmmcUwxcYnrWzjbqadzMFTNTA6WEFTb6lkCtxDNzt42LsRzHBI5LKGA7i2jjMxadvzFqooZGzOHA/NUaKappDxFShUzKB3iqWoiCgEEBRMRiqQ0s4YRWS1NGVSglQCpCg7+gdqAYcCgH3VQEOgkICovG8H5hQo+0A9cCEBcWnoI6PUQoodfePqqFJIgYb93zkAiIoUWI9RQD4txG1C1KBB2FAVGO3Hr3+FCgWeKHAgg7dxB6EBMSMDt3qAcf6CAeKGqlA/o3qFH3PAhSuLp3dO3wqFqVxAwG3cOlAAPQY9YUBbXEEEYEetPWgKLhHxcAcQOjq3qULUYcpQtSge8oUsOxjEx6QYIDIHxP1ROwjA+D1ELUyAxEWni3kjchSw7YgKDiCOkKFMhIBw2HZ3EAwVG6FRfEDEA8JJiXjpO+CzuVystTEWEY7RvIjhv2bcFaFqJoc71ojHDq8Kyy1M4bLl4zXRMI8DfolZbbNFeUuwDAJbI+sGw/XdKiikKkkiJhiNoOBwOIitUFRh0CoKmVkXkANJPQPDs9RQ1UcABiR3sR+khaj4uH1oh0Hb81AUye5hMfGB2omGaxkxrxFp2bRvC3UyW6DxB3hG1GqippnMcwfVM6ejDeuNxNpjDhuPD+pdiN+/bhFZobqZA6GHrY7I7PDsUoCw7pwUoUsOigqOIULUqKAYdAQ3deKFMzZpAgDAbmuxA7h2iEUBmbMadviE7js+y2IDJGG1QDDkoUsPUoCw9KFqZOKIg4Bw3A/ow2blKARbhFru8fV7vT4VmhpMwuiDA7dw3ndh095QqZp5rvF+gsTzG4vKfNn+SF9nsOj+o9cafGGTrL/Cvdc5eFiv3ZdJ4mMf8As8y9BzMO6116HWqOKFGCpQFAoWpts6u7OeWHABaUMhKmdlUyYCdu4KOJpSOR5dbKmVFRxMa8BgI4hGGPWss7Vh1qctNPT7pEv7EeosnaGKeR+wS/sR6iArsJH7DL+xCgH5PI/YZf2IQtCTTyP2GX9iEAeTyP2CX9iPUShReT0/7BL+xHqKAwTKaQR+sS+vxB6i0gzSOo6Qf2NKH9I31FRQx+SUm6mlfYN9RBQXkdJ+CyvsG+orUlCTRUn4LJP9I31EGQ082io8P3pJ/3tvqKoUM8mjpBCFLJHcY31FyJsw0jWtpaeAhTy/sB6itWKIzClpx/UJf2I9RSrFEBpKY/1CWP6UeorvMUQ20tOP6hL+xHqJViiK8nkfsEv7EJViiAyaeMDJlj+lCVYog8nkfsEv7EeolWKIfk8j9gl/Yj1EqxREupacgjsJf2I9RKsURg8mp/weX9gPUVqSiF5NTfg8v7AeolWWiDyam/B5f2A9RSrFEHk1L+DyvsB6iVZaIfktN+DyvsG+olWKIfk1P+wS/sR6iVYog8mp/2CX9iPUV3ibqDyaR+wS/sQlWKIPJ6f9gl/Yj1EqxRD8mpT/Y0oH6xvqJVjIHk1PukS/sB6iVZaIfk9PsNPKgf1A9RSrFELyalP9jyu5wD1EqxQPJqf8Hln+kHqJViiF5NTfg8v7AeopVlog8lpvweV9gPUSrFEPyan/YJf2I9RKsUQxIpx/UJcDtHCPUVqxQDTU2wyJR6PFCVYoHk1N+wS+4Wj1FKsB5NTx/WJf2A9RKstA8np/2CX9iPUVqwPyen/YJf2I9RKlDyen/YJf2I9RKsB5PT/sEv7EeolRQfk9PvkSz/AEo9RKgOwkfsEs/0o9RSoK7CnOHYS/sRt8CAPJ5H7BL+xHqKVA/J5H7BL+xHqJUD7CR+wS/sR6iAfYU/7BL+xHqKZQV2EiIPYy4jYeERSpR9jJ/YWfYhKgoSZH7CzucI9RWoH2Mk/wBRZh+pCVYDsZP7Cz7EKFGJMk/1Fn2IVqB9jJ/YmfYhSoH2UrH7kzHaeEeogI8nk7pLD/ShQtRdhJ/YmfYhAZBTyi0RlMAbsJaNilQHZU42SWO/pQAmUtR9nKI4ezZD6nhEEFRCTKBiJTAenhCoGJUn9hYO40KCo+xkn+pM+xCCoCTKGLZTBDeGhBUyBsoDGWyPUArUAWSzh2bR1QCgF2Ur9iZ4AoUfZStnZtgdogEFRiXK/YmbfqQgqx9nK/Y2+AKFqx9lK/Y2eAIKsOyl/sbfAFBVh2cv9jb4Agqx9nL/AGNvgCCrAMlj+pt8AQVZYbL2BjQOiAVJVmxVT2NqJoI4ACIGHi7OrYss7UMyMcenu95DRQPQoUsHrQFcfSpQVJLhiDsO49/1VKFTNPOA4SQYQ2NOI7gO3YFxzWQ3F5T5tfySvsdh1P1HrLILoZQsv8K91zl4mJX+2XSeFjX/ALPMvQcxD+lcFDqVLD+tShalcSlDVSuIdKlC1NjrJEwznPAMCcCuWLM1NKDMlmGMduCoqc7ye4vmVZJx4B89cM1Q7mGeVnOlxncCJQowUBagqCFqShQQEOCA07m7iqDAZfQIqgghyFoTF3QEFDDMPSFpEaMskLaMM3BgQFoAQAgGqQxOaYkjEKgkOI7nQhKmcYgFDQKAwOECVSCVAkAlCoEA+JShRxBQDQBgrUlAQgRVAw7pUKVgUAEdCFFBQCQAgBQoxjh4FQJAOKAFACoBCggGgBACgDrQD4kBUQgBAOKAcepQo4xQFh0OsIAwKAI7kKEUBYQB31AOPV1R3pQC2mJxjtShSUAkBYDu90lQFYdMe4gCPQEAR6UAIUaAoFQAgCKFGgGD3kA4/wBEKUA0A1ACAEBxmtdCrnwMMQPmBDsw91GBkwtwBgPqdrd27ds3KGjO2aD67xT07R4RsQGSOzr2dfcKFqVFQElyhamGa7xXdwrE1kNQznze/khfX7DrfqPVuQ3QyjZu5U+6py8XEfuy6T5/Hv8A2+Zeg5fxLhOpUoFC1LDiFKFqMPUoWpXEEoWpidKlvdFwxIwSoOU5VltlzqoDYWD56xI7WGzs5idqwd1MSFqCFLaYKBl7UBKhSVS1JKFMcI4nZuQD4AgILAlSkGWhTSzWqoDkjYuRHGzXt2IQpUCQAhBqgEBJYDjCBVBSgBUGN43oDEqQEAIBKGhIUEB8NPS7/wA7tFP4ovHuimXj8S95dB73CPcl0nhDTTk+5i9YMp0eedOtO/lFlavnT6ekunne0UnHMpphlTW9lV1smaOFwIiW47l1LeGuXFWKyeY713GWrUt2To+hnP8A/wAO7nF/1P8A/tBl7+UlvwV7s9a2nH8xsdrqew+x/o9NGNStDdF8z5S1Sy38l8wXHOtbd6O3+WUdbx0c23W2Qyb2lDPqJYjMp5g4S7iwjCBBPqYK1K3BqSpl2Hi8RvQvXE4Oqp62e8Opdyp0ACAqKoHH+goB7ulATAHZgpQC/RBCiQFEg4796AShQQDigDAqgP0QQAhT8rfPR/tZa1fxxI9w0y+dxX7suk+qwf7Meg/VHFfRHyowQVANACoHFAOKgGgHFAOPWoCtoHUhRx76AcehAEUA+6hQigK2qVBRhAEniPqIBRMItAHz0oUiMcTj1oBIBxQD4kBSAofoKADDpUBkABAVBUBsUBjI4T1IUAVCjigHFAOKgHFACA4rXn9+T+6PnBRnYhmNNFQ5CwVCFB5bGB4Y4kDEHbuVKagTASWugw4wdHxDCOwnuIQRdAkEQI2hKCphmu8Q9xYnmNwznzk/klfW7Dr/AKj1PkZ0Mp2fuVPuqcvHvr/ZLpPnOIP/AHPoXoOWhy4aHUqUHEJQtSxMUoWpQcOlQVNFcKo00oPAMI4kblqKqGzQyLwx72kvEAIY4YquBas59lKslz6iqA2iWNh61wzjQ7eFdWznhx7y42d4hQ1UIoUAUFSg5AHEpQtRFw3lWhSD42JwG4KAaFqNCjUKSQhTR1AVQJlD5i5EcbNc3YqCkAlSCQDRAFSDggFsQCdHhMNqoMGIVIJACAEAIAQtRKFTPhn6Xf8Andop/FF490Uy8fiXvLoPf4R7kuk59yPc4PLpo/y9ZcyNqLqJ8nc00FyulRV2vzRd6vgl1NW+bKd2tJRTpR4mkGAfhvW8Hibdu3STy15zjx+Du3bu9FVVNKPXX/iIcnf+uD/2fzB/Jq7fjbPa6nsOl8uv9nrW09i2a8W7MFotV+tFR5Var3RyK+2VXA+X2tPUy2zZT+CY1rm8THAwcARvAK7MWpKq5Tpyi4tp50fGbn356s65czjetD9Grwcty7HK8kzznajcW3A1s0Bz6OhnCBp+waYPmsPaF5LWlnBF/lYzFyUnCDpQ9vAYCLipzVa5ked7J6Ovm5z5aKbU26XW1W3NFc2XW09uzFeqv5ROMkNbTPfNZTz5bH8DGlgfUNcwAB3CRAcEcFdkt7+p2ZcRswlu+jMb7y3c6esXL3qb+SrmAuF3vWUKa4eZsw0V+mmfcsv1HalpqZVTNLnzJTC6L2Oe5pl+NKIw4rYxU7Ut2Wb0ExOChfhvQpXk5z67c4eZrvYOV3VbNGUMwVlkutLZ6aps+YbRVTKWpldpV04EyRUSHNe3iY4iLXYgr08XJq02no9J42BgnfjGS05H0M+AeS+brmLpcp56yBb8/ZyzjmTUt1tt1pulZdrhda+gkSnVHlMm2S5syc+XOq+1lsL5cHBrTDxuFzfGWJuUaq3U+glhLVVLdSpzHsj0cei+u9h1yueZ8+2XPen+VrRa6yvr7fe5FztNNfLjWDyaW2dJqWS2VfZiY+aS6Ja9st22C7OBtTVyrTSOnxK/blapFpuvM6HmbP8AzQa15B5os6151TztdMqZK1TuVR8h3ZjuTLdUW+23uY/zcaftzKEl8qX2XBwcPCYcMMFwTxE43HldE81ec7MMLbnaS3VVxz0WjOd06kcsPPJzFZKrNb9SMwW6ZTT6KZmC06V1lwqaWqpqRjHzZLKS2Np30kh3YvPC2bPE6BhNPaEx5Z4e9cjvy1HDbxWHsy7qK5q8/SefeXznW120Utl4yblqun52oL7RMtuULBdnTq4WqvPZyaWbQSjxvIa0cAp2wY48OERjw2cVO2qI7F/B27rTks3Wdk64coHOHS5Jrtf9Ws10+Zqy0SBebxa5t7qau9WmXNmNdMLZZktpZYkmBLKacWsA8QQbAbu4a6o78vacdjGWHLu4ZPNkPUXoyOZzP2cMyX/RLP8Af63NlLT2mbfMoXm5TX1NZTeTzpcuopH1E1zpj5bmzg+WHR4OFzQeEgDsYC/JvceU6vE8NFR7yKo+U0npRNVNT9P9QdMKLIWo+aMkUdwy9VT6+ksF4rbbKnzW1Za181lLOlh7gMASIwUx9yUZqjayDhlqE7bcop5eVcyPdvIhmXMeb+VLSvMWbb/cs0ZguPnzzhfbvVzq2sn9jfbhJl9rUT3PmP4JbGsbE4NAAwC7uEk5Wk3leX0nn4+KjekkqLJ6EeEvSiaqan6f6g6X0WQtR80ZIo7hl6qn19JYLxW22VPmtqy1r5jKWdLD3AYAkRgulj7kozVG1kPR4ZahO23KKeXlXMj3byIZlzHnDlT0rzFm2/3LNOYbj5884X271c6trZ/ZX24SZfa1FQ58x/BLY1jYuwaABgAu7hJOVpNury+k87HxUb0klRZPQj4Lc9H+1lrV/HEj3DTLxsV+7LpPoMH+zHoP0m635/vWmOlecs7Zbyncc75hstC51ky1bKWdVzp9VMIly3Pl07HvEqWXdpNcBgxrivdvXHCDaVWfN4e2rlxRboj8/OW9IecDnazfnFmY77XSH5bqZFRfGZ0qK622m31NRKc+mp6agZIndm/sXlzWypGDX8TiO0Bd4sbd3ESdes+gnds4WKotRw7VLSTmS5GsxZaqHZ2fl92ZHvrLNf8AJ90q/IKqfQcHaSp8uZKpi8yxPAcydKLXNcR4zS4KXLVzDtZdRu1etYqLyV5mfoA5TdZbjrzoRkrUS+U8umzDWS6igzE2S0MlTK2gnPp5k6WwYNE3gEzh+l4obl7GGuu7bTec8DGWVZuOKzHo9dg6o/0RQAgGCoBxQDCAcYKAYPh6UKVHp8KAcUA+4gDFC1GI7OlBUIoB7e70oA4SoUUBvdHuKAItGwR7qAOIqgUSgHxIBh8MfmbkBnDgdiEHtwKFqY3Nh3FCiQo4qAoIBoAQHEbgSK2f3R84Ic8MxpQ5w9RShssP6oKUBcYoUriwI+YoBdpwxAMB9S7Eb9m9AQ+a0tI9aYGAOw7dhGCzPMahnPnb/JK+s2HB+o9RZIcBlW0DqqfdU5eTfX+yXSfM8Sf+59C9ByyK4To1HxJQ0pFBylDSkXxbELU0tbL7anms6QYKxzkbOvy5zHFpEIHauQ5KnYmn04+W12OAktw/plw3cx28JnZ3RLfxNBHfXAd4TjBZKmYXP3A4oaQuI9KFH2jkA+0PQgFxEoUcT0qEKDulC1LDh0qFqPiHSlDVQ76gqaOo2LSLUmSVtGGa5uxUhaoJUKJUgIBhUhapBQUAoIUlzAcRgVSGAgjaqBIAQAgBACA+GXpd/wCd2in8UXj3RTLxuJe8ug+h4P7kuk6n5afR3/nEaT2jVD8sHyP861ldSeY/k/5w7PyOe6TxeUecqaPFwxh2Yh1rjw+C72O9vU83tOXFcQ7ie7u18/sO+/8Awf8A/wD6H/8AZL//ADS5/ln/AKur2nW+cf8Ao6/YfYXJ2X/knlHKuVfK/OHyZs9DavL+z7Lt/Iqdkjtez4n8HHwR4eIw2RK9OEd2KWhHkXJ78nLS6n5duXKTK1L5utN6jN0ridmTPjbzeKZ+AfUiofXmU8O2h01oaQdoMF87ZW9cVeVn1eIe5alTkTP1XAr6Q+QPzl+lKs9ttnM5IraGTLlVOYcnWq4Xh8trWumVLJ1XRh7yMXO7GmlticYADYAvCx6pd8x9LwuTdnobPoHnq6V969F1JuF0nzKmum6bWNk6omu45kwSZ9JKY9ziSXEtYCSTE78V3JuuEy6F6To24pY7JpfoPCHorMo0d95iL5mGuopNU3JeUayrtk6Y0OdIrquppqRkxkRgewmT2xG4w3rqcPincq+RHd4rNxs0XKz9EcV7h82fk51HttJeebrPlnr5Qn0F11fulHWyDsfJn3+bLe0whta4hfNXFW4+n1n2Fl0tR6F6D9XddKZ5vrJfC0S/J5jezgOHh4CIQ2QX0klkPkYvKj8pnJvaqK880WiFFcJDammbmilquxeItMyjDqmUSOqZKaV85h1W5HpPrMU6WpdDP0kc0TQ/lt16a8RAyBmJwB6Rbp5B8IXu4n9uXQfNYT96PSj4Zei+JHNJSAEiOVrwD14SSvIwP7q8573Ev2H5vSdv+ly/7S9JP+jNZ7sK5OI++ug4eE/tPp9SPof6O7/Y60f/AOsH/vDcl3sF+zHz+lnm8R/fl5vQj54elz/7S9JP+jNZ7sK6PEffXQenwn9t9PqR9D/R3f7HWj//AFg/94bku9gv2Y+f0s8ziP78vN6EfDHno/2stav44ke4aZeRiv3ZdJ72D/Zj0H6XtVtUsoaM5EvuomeK11FYLDKD5jJQa6fUTnnhlU9Oxzmh82a4hrREDeSACV7t24rcd5nzNmzK7LdifHDMXpQNdNQMwOsWhOj9FKa5z3UtHOpq3MN3nSWva1kzsqMyGS4x8ZvBMgXBofhF3mSx9yTpFes9qHC7cFWbr1I8d8zVXzf3605LzRzNtvki1XKbUMydS3eTQ23hm9lJdPhbKRsh0l/BwcRmSWndt4l1r7uujuVO3hlZjVWqc9Np9lPRlgjlTy9hCN+vRB/hMF6fD/2vOeRxT97zI+ggPSu8eaUgCOxANACAcVAPHfvQAgHEqAqPh6QhSo/0QgH30A++gHHq2oUcT3AlBUSUFRmCARHRiFAShQQDQBBAMGBiCgMna9SCguMnudCAFAMbUKUCoA3oUcUBw64n9/VAjDxhgcRsCpzRzGl4oYHxe79A7CoaqVxY4hKAYOKFK4jBSgqQXdcFCmJ7sOo7d4WJ5jcM58+P5JX1mw4P1Hp3JRhla0D+2PdU5eXeX+yXSfK8T/ffQvQjlId0FcVDoVLDzvUoXeKDgVKGqlxQtQjhA7Coa3jbptqpJri7hLCcTwrW8wclyZbG09bXFr48UpogR+qXHddUd7BSys7NlAy2wK4GeiS+ZHBCpGKKGxxKhRxSgHEIBqAIlAUXJQFNJ9VQqMkAhRQQppJ+CoFJW1mMmvaiIWqBGCAWCAMOlAMKoMpUgIAQCQGJ4w7iFMKpAQAgBACA+Gfpd/53aJ/xRefdFMvG4n7y6D6Dg/uS6T2p6NP/AGTsofxve/d0xdvh/wC15zpcVf8Au8yPe8F3TzaghT8wHM/pznHlZ5oavMlqpn09EcxtzrppeZkpwpZ7BVNrBIiwtDvJpp7KYwOBhAmAe2Pz1+27Nzz1R9XhrscRay6KM+uuVvSZ8sN2yhS3zMd/umVMy9iTXZLm2qtqqls5pg5smoppMyle1xxYXTWmHrg04L048QtuNXkeg8afC7qlRZVpPj3n++5557OaCdOyjY58ibmqop7dl63PDXi02SjAZ5TVvZAAMaXT5p4j47ixhPiBeXOUsRcyLOe1bjHC2cryI+2nNdlK15B5G8/ZHsjSy0ZRyjbLPbQYxMmjqKSSxzokkucGxJJJjvXq4qChYcVyJelHiYObuYpSfK36GfPj0Rv/AGl6t/8ARmj92BdPhvvvoPQ4v+0un1M+8eJXsnzx+UnOX+2bmv8A/emu/wDeJ6+bn+6+n1n19r9lf4r0H6r64/vKs/aJn2pX0beQ+RisqPyt8kf+1bol/H//AN2nL53Dfux6T6zF/sy6Gfo75oP9m7Xv/wDb7Mf+bZ693E/tS6GfNYT96PSj4X+i9/2paP8A6LXj50lePgP3V5z3+J/sPzek9Bel3y1cm37RvODaSY+0TaC52edXARly6mXNlVEuW47i9j3FsdvC7oK5+JRe8nzHX4RNbko89TkXI7zwaFaXaDWXTLVLMdVlK9ZOq7l5BMNura6TW01dVza5plvoZM8tc1897SJgaMAQTHC4TFwhDdlyGMdgbly5vwVangvnY5g6PmP1aZnHLturaHItgoBl3KVRWM4H1baaa+oqKkthBjnuqQeCJcGcBdAmA6eKvd7OqzHfweH7i3uvPnZ9vPR3f7HWj/8A1g/94bkvWwX7MfP6WeHxH9+Xm9CPhlzz/wC1lrV/HEj3DTLyMV+7LpPewf7Meg+tfpWLLf7ly85euVsZMm2fL2caKrzMyWQGy5M6lqqWROmCIi0T5zGYR8Z47o9LiKbgtFTyOEySuNctDxn6Ovmg0O0Gs2oNi1Sq3ZVumYq+mraHNzLdUVwn00mSZYo5hopM+e0S38T2gt4fHdsO3q4K/C3VS5eU7vEMNcvUcMtOQ695/ua3K3MfmDJ9m06p62bkfT9tW75QVcp1P5wrriJUSyQ8B7GSmU8GF8HOLn+KAATjGYhXWqZkcmAwrsRe9nZ9QfRlVtNV8qlgkSJrZk22X+9U1Y1pBLJjqjtw1w3HgmtPcK7/AA9/6vOeZxRf7vMj6BrvHnDCAqKAaAaAfzUA44KAUepANANAOJUA4oUcenwhUFg4YYw2FAAKgHj/AEUAd0hKlDDpJUA4tJ9b30KIk9XeCUAiSdpigEgBACAEBYPR3wgHFQDiUA4hCjCgOF3I/v6o+uHzgtHNF5DRh27cdoQ0WD0d5p2b9m9QFcUMNh3NP0DvQtRlxG3bvClAYi5SgqY3OgO+szzG4vKfP/8AkhfVbDi/Uelsmuhli09yo90zl5t1fjl0nyHFnTEPoXoRygPWKHnqZYes0NqQw5KFqWHqUNVLDz3VKF3ig4b1KFqcoyrMlmqrG8Y4mymxbHGEVx3Ud/AOsmc2M0HAHvrhPUSJioaGhQQo0FRhQFIBkhuJQVMbYuMenYhKmqa2AUNFqUKChTR1AwWgTJ2lbWYya9ioLQCggCCCpKFBCFgxVINUAgBASdiA0zhAn5iASoEhBoUEB5S5jeT/AE05nbjle559vmZrRPylTVNLbWWCpo6dj2VT2PeZoqqKqJIMsQ4SO+utfwsbzTdTuYbGzw6aill0/wBTtDQ/RjK+gWntt01ydX3W5WK11NVVU9XeZsidVl9XNdOmBz6eRTsIDnYQYMOlclmyrUd1HFiL8r8t6VK8x26uU4AQHBNQ9M8g6r5cqcpai5VoM2WCqiTRVrCXSnlpb2tPOYWzZEwAkCZKc143OC47luM1SSqc1q9O26xdGeFbj6LHlmrbw2501dnWz0QfLccvUl1pnUZEuHEwvqaKfUwmQ8b7tHHxS3CHTfDrel+XmPQXFruhde09haQaA6R6E2yotmmGTaTLprg0XO6kvqK+rDCXNFRVz3Pmva0uJa3i4Wx8VoXatWIWvdR0r+JuXn+JnINV9NLFrBp7mjTXM1XX0NizZTMpbjV2yZKlVbGMmsnAynzpU5gPFLHrmHBau21ci4vMzFi87U1JZ0dGcuvJtphyyXzMV/yHfc0XeszNQy7fXyr/AFVFUSmSpU3tWmWKWipSHR2xJENy4bGEjZdU2dnE46d+KjJLPXJ/U9axXZOkfPy5+jd0Ouuptw1WqM1Z6ZmG5Znm5sn0UuutgohWzq01zpbWOtjpnZdoYAGZxcOHFHFdF4C25b1X1bD0o8Uuxio0WanLtPoHMltnSpslxIbNa5jobYEQMF3mjzU6HgPSz0cGh+keoOVtSMt5qzzW3zKNZ5bbaS5V1smUj5nA6XCayTbJLyIPPrXt7q6VvAW4SUk3k8tB6Nzid2cXFpUfTtPaufMm2vUPJObsh3qfVUtoznZ62yXSponMZUy6evkPp5rpLpjJjA8NeS0uY4R2g7F25wU4tPlOjbuOElJZ0eUtB+QzSHl4z9L1FyVmTOFzvcqgqbc2lvdZb59L2VVw8ZLKa30z+IcIh48OorrWsFC1LeTZ27/Ebl6G7JKnn2nqXUHTvJmqeVbnkjP+X6XM2WbsyFXbqkEQcPWTZUxhbMlTGExa9jg5p2ELsXLauKksqOrauyty3oujPCMr0WXLJLvxvD6nOc63F73/ACVfdZAoAHMLQzjbRtq4NJ4h++IxGJLYhdP5dbrynofNrtMy8vOdlao8gugWpuW9P8oNpr1p/lvTaXcGZfteVKilkCabkaYz5tXMrqStmT5h8lZ90c7jOPEXYQ3cwVuSSzJaDit8RuwbeRt6fJHobRnSbLmhumuW9LcpVtyuOX8r+Web6y7zJM6sf5bWT66Z2r5EmnlmEyocGwljxYRicTz2ratxUVmR1r153Zubzs8par+jl0R1h1DzRqVmbNOeKG+5sqWVVxpLZXW2VSMeyUySBKZOtk54HDLHrnnFda5gYTk5NvL5aDt2uJXLcVFJUXTtPdN7slnzLaLll/MFspr1Y7zTzKS62mslNnU9RImtLXy5kt4LXNcDAgruSipKjOjGTi6rIz59Xv0XPLFdswC9Ujs25eoe1bNmZWtt1lG3vAmF7mE1VLUVQa4HhPDPBA9aQcV0nw+23XKeguK3kqZH5vadvZk5H+X+/aQt0Wt+W5+T8ri50t5fdbJMlC7TK+lY+W2fNrK2TVmY50ua9h4gYNcWt4QuSWDtuG7mOOPELqnvt1ebmOYcunLRkzlmseYct5FzHmW82fMddLuVRR5gqKOoEipbKEl8yQaSjpCO0Y1gdxcXrWwhjHdjDxsppN5TjxGKlfacksmg9FLnOuCAaAce+gGCgH3UBX6IoQP0RChQigCKAaAagHFAOPRvShSo9PhQBHrSgBUVGoUEA4oAw7iARHg6VACFBAOCAYBO9KAfCenuq0AQI+ilAEe8oBqA4Vc3fv8AqPrh84K0OWOY0YchoqKFqMOMIbR0KFLjsA+xP0D6qAg7YYx+pO3FAYXnYsTzGoZzwH/JK+p2GP1Ho7KLoZatQ6qj3TNXQmvxy6T4zjEqYl9C9COSiYsUPN3jIJgUoaTMgcpQ0pFBylDSkWHdalDSkMzIDFKF3jrfN+s+W9Gpkm6ZuZcKihvRNLQNt8hk17ZjBxu4g+ZLEIda7WH4fcxeS3TJpPW4PaldlKnJQ4UOerRsf2Dmb2jT++l2vtvE6Y6/Ye+sFc5jNL57tGWmLqHM3XChp/fSj+m8TpjreweCucxqfz8dFPwDNHtGn99qfbWK0x1vYPBXOYPz8dFPwDNHtGn99qfbWK0x1vYPBXOYPz8dFPwDNHtGn99p9tYrTHW9hfB3OYY58tE/wDNHtCn99p9tYrTHW9g8FPmKHPnomP7AzR7Qp/fafbWK0x1vYPBXOYg8+WirjE0GaIbh5DT++0+2sVpjrewngrnMZG8+eiTf7AzR7Qp/fafbWK0x1vYPBXOYyjn30R+D80+0Kf32p9s4rTHW9hfB3OYf5++iPwfmn2hT++0+2cVpjrewvhJ8wvz99EfwDNPtCn99qfbOK0x1vYXwk+YwTefPRN/raDNHfoKf32qvpnFaY63sHhJ8xMvnx0UZtoM0e0af30tfbeK0x1vYTwc+Y1TeffREbbfmn2hT++1ftvFaY63sHg58xX5/OiH4Bmn2hT++0+28VpjreweDnzB+fxoh+AZp9oU/vtPtvFaY63sHg58wvz+NEfwDNPtCn99p9t4rTHW9g8HPmF+fxoj8H5p9oU/vtPtvFaY63sHg58wfn8aI/B+afaFP77T7bxWmOt7CeDnzDHPxogP8X5p9oU/vtPtzFaY63sHg58w/z+dEPwDNPtCn99p9uYrTHW9hfBz5g/P50Q/AM0+0Kf32n25itMdb2Dwc+YPz+dEPg/NPtCn99p9uYrTHW9g8HPmD8/nRD8AzT7Qp/fafbmK0x1vYPBz5jG7n20RP9gZp9oU/vtPtzFaY63sHg58xH5+miX4Bmj2hT++1ftzFaY6/YPBz5g/P00S/AM0e0Kf32n25idMdfsJ4OfMH5+miX4Bmj2hT++0+3MTpjr9hfBz5g/P00S/AM0e0Kf32n25idMdfsHg58wfn6aJfgGaPaFP77T7cxOmOv2Dwc+YPz9NEvwDNHtCn99p9uYnTHX7B4OfMH5+miX4Bmj2hT++0+3MTpjr9g8HPmD8/TRL8AzR7Qp/fafbmJ0x1+weDnzB+fpol+AZo9oU/vtPtzE6Y6/YPBz5hfn56JfgGaPaFP77T7cxWmOt7C+EnzB+fnol+AZo9oU/vtPtzFaY63sHhJ8w/z9NEvwDNPtCn99p9uYrTHW9g8JPmF+fpol+AZo9oU/vtPtzFaY63sHhJ8wfn6aJfgGaPaFP77T7cxWmOt7B4SfMH5+mif4Bmj2hT++0+3MVpjr9g8JPmH+fpon+AZo9oU/vtPtzFaY63sHhJ8w/z9dE99Bmj2hT++1PtzFaY63sHhJ8w/wA/bRL4PzT7Rp/fav25itMdb2Dwc+Yf5+2iP4Bmn2hT++0+3MTpjr9g8HPmD8/bRGH9YZp6v3hT++0+3MVpjreweEnzC/P20S/AM0+0Kf32n25itMdb2Dwk+YPz9dEvwDNPtCn99qfbmK0x1vYPCT5hfn66JfgGafaFP77T7cxWmOt7B4SfMH5+uiX4Bmn2hT++0+28VpjreweEnzB+frol+AZp9oU/vtPtvFaY63sHhJ8wfn6aJfgGafaFP77T7cxWmOt7C+EnzB+frol+AZp9oU/vtPtzFaY63sHhJ8wfn66JfgGaPaFP77T7bxWmOt7B4SfMH5+uiX4Bmn2hT++0+3MVpjreweFnzB+frol+AZo9oU/vtPtzFaY63sL4WfMH5+uiX4Bmj2hT++0+3MVpjreweFnzB+frol+AZo9oU/vtPtvFaY6/YPCz5h/n66JfgGafaFP77T7bxWmOt7CeEnzB+ftol+AZo9oU/vtPtzFaY63sL4WfMP8AP20T/Ac0+0Kf32n23itMdb2Dws+Yf5+2iX4DmnDZ+8Kf32n25itMdb2Dws+YPz9tEPwDNPtCn99p9t4rTHW9g8LPmD8/fRH4PzT7Qp/fafbeK0x1vYPCz5h/n76I/gGafaFP77U+28VpjreweFnzB+fxoj+AZp9oU/vtPtvFaY63sHhZ8wfn8aI/gGafaFP77T7bxWmOt7B4WfMP8/jRH8AzT7Qp/fafbeK0x1vYPCz5h/n86I4fvDNMR/6BT++0+28VpjreweFnzB+fzoh+AZpH8ApvfafbeK0x1vYPCz5h/n86Ib7fmmP9oU/vtPtvFaY63sHhZ8w/z+dD/wAAzV7Qp/fafbeK0x1vYXws+Yf5/Wh4/sDNR/gFN77U+28VpjreweFmH5/Wh/wdmn2hT++0+28VpjreweFnzB+f3oh8HZp9oU/vtPtrFaY63sHhZ8wfn+aI/gGaR/k+m99p9tYrTHX7B4afMH5/eiH4BmrueQU8PdafbeK0x1vYPDT5hfn86IfgGafaFP77T7axWmOt7B4afMH5/OiH4Bmn2hT++0+2sVpjreweGnzAOfrRAGPkGafaFP77T7bxWmOt7B4afMX+f5of8H5q9oU/vtX7bxWmOt7C+GnzD/P80P8Ag/NXtCm99p9t4rTHW9g8NLmI/P60Pjhb80+0Kf32p9tYrTHW9g8NLmH+f3oh8H5p9oU/vtPtrFaY63sHhpcx3nlTPFm1IsFtztl9lTLtF/Y+bQyqxjZc8NlzHSTxsa54HjMMIOK8nEYaWHuO3LOtBhxccjORBxXXoKlByULUsOUoCoqFqSXbjBw3AoUxvMYQMeo4Hw71ieY1HOeBu9/ilfUbDH6j0PlV/Dl21Dqn+6Zq6Ul+KXSfEcadMS+hehHIhMG/BSh5akZA7rUoaUig4hShpSMgmHepumlIsTApQ1Ul7zuxShHKhvGVrfR3CprmXCkkVrWSwZbZ0tswNPFCIDgYLhuuUaUdD2uGXVWVDkkzL1jluLTZaD2tK9isq7LS9Z6+89IhYrEP8TUHteV7FO9lpesbzNfT2WwHA2SgI/taV7FcbuT0vWaUnpNd5gy+f8SW/wBrSvYqd7PS9Y3npDzBl/4Et/taV7FTvZ6XrLvMfyfy/wDAlv8Aa0r2Kd7PS9Y3mBy9YTgLHb4f2tK9inez0vWN56TI3LtgA/wHb/a0r2Knez0vWZ3npMwy/l/4Dt/tWV7FO9npesbz0j+T+X/gO3+1ZXsVO9n2nrNb70h8n8v/AAHb/asr2Kd7PtPWVTekfyey/wDAdv8Aa0r2Knez0vWXeek0k/L9gEIWO3j+DSvYqq7PS9Zd56SZOX7B8B2/2tK9itq7PS9Zlyek17MvZf8AgK3n+CyvYq97PS9Y33pMnydy/wDAVv8Aasr2Knez0vWN56Q+TuX/AICt/tWV7FO9npesu+9IfJ3L/wABW/2rK9inez0vWN56Sfk7l/4Ct3tWV7FO9npesbz0iOXsv/AVv9qyfYq95PS9Y3npGMvZfH+Ird7VlexTvJ6XrG89JXyey98BW/2rK9inez0vWTeekfydy/8AAVv9qyvYp3s9L1l33pD5O5f+Arf7VlexTvZ6XrJvPSHydy/8BW/2rK9inez0vWXeekRy5l8/4it/tWV7FO9npesbz0mA5dsHwFb/AGrK9ir3s9L1jeekn5O2D4Dt/taV7FO9npesbz0h8nbB8BW/2rK9inez0vWN56RfJ6wfAdv9rSvYq97PS9Y3npH8nsv/AAHb/asr2Kd7PS9Y3npD5PZf+A7f7WlexU72el6xvPSHyey/8B2/2tK9inez0vWN56Q+T2X/AIDt/taV7FO9npesbz0h8nsv/Adv9rSvYp3s9L1jeekPk9l/4Dt/taV7FO9npesbz0h8ncv/AAHb/a0r2Kd5PS9Zd9i+Ttg+A7f7WlexTvJ6XrLvPSP5PWA/4it/taV7FO9npesm89IfJ3L/AMB2/wBrSvYp3s9L1jeekXydsHwHb/a0r2Kd5PS9Zd9h8nbB8B2/2tK9ineT0vWN56R/J6wfAdv9rSvYp3s9L1jeekfyfy/8BW/u+TSvYqd7PS9Zd5j+T+X/AIDt/d8llexTvZ6XrG89JPyfsG6xW8dfksr2Kd7PS9Y3npF8nrB8B2/2tK9inez0vWN5h8n7B8BW/wBqyvYp3k9L1jeekfyey/8AAdv9rSvYp3k9L1jeekfyey/8BW/2rK9ip3s9L1jeekfydy/8B2/2rK9inez0vWN56Q+TuX/gK3+1ZXsU72el6xvPSL5O5f8AgK3+1ZXsU72el6xvPSP5O5f+Arf7VlexTvZ6XrG89IfJ2wbPMdv9qyvYp3s9L1jeYvk7l/4Dt/taV7FO9npesbzF8nrB8B2/2tK9ir3s9L1l3npGMvZf+A7f7WlexU72el6xvMPk9l/4Dt/taV7FO9npesu89I/k9YD/AIjt/tWV7FO9npesbzH8ncv/AAHb/asr2Kd7PS9ZN56RfJ2wD/Edv9qyvYp3s9L1l3mP5P2D4Ct/tWV7FO9npesbz0j+T2X/AICt/taV7FO9npesbz0j+T2X/gO3+1pXsU72el6xvMPk9l/4Ct/tWV7FO9npesbz0h8nrAP8RW/2rK9inez0vWN5lfJ6wDbY7f7VlexTvZ6XrG8xjL2XztsVvh0+TSvYqd7PS9Zd5h8ncv7BYrf7VlexTvZ6XrG8w+TuXx/iK3+1pXsU72el6xvMfyesA/xFbx3aWVD7VO9npesbzKGXsvH/ABFbwf7Vk+xTvZ6XrG89I/k7l/4Ct/tWV7FO9npesbz0h8ncv/AVv9qyvYp3s9L1jeY/k7l74Ct3tWV7FO9npesu8w+TuX/gK3e1ZXsU72el6xvMfydy/wDAVv8Aasn2Kd7PS9Y3mHycy9usVv7nksr2Kd7PS9Y3mT8nMv8AwFbvasr2Knez0vWN5h8ncvjHzFb4b/3rK9inez0vWN5mQZdy8cfMVu9qyvYq97PS9Y3mP5O5e+Abd7VlexTvZ6XrG8yTlzL4OFit8D/6LK9io7s9L1l3mcYrZMilq51PTSZcinlkCXIltDGNwBwa2AHeSrec0maYGPX9t+mgCO/ahSg5QFcSlC1ILkoUxuds7qxPMajnPBn8kL6fYT9R6Cyw6GX7WP1M/wB0zV1GvxS6T4PjsqYp9C9CN+4ugqUPJ3ig9ShpSMgmdalDSkZA9ShpSLDlKGlIC7pShd45jkgfvuu3/cW/bLr4nMj1eEe9LoOfTqVs2GJBC6yZ7tTTGiAHriUqVMplO1pBBKjZampEoqCpXAQhaj4e6oWpYBQVMzcFCVMqgBBUaFJULU0s8qlRMoraIzcGHBUGSKFCJQBEoUUSgFEoAigKDj0oB8SAcUAAoBoDE7agIggEhQgqQUSEAbUAIUEAIBIAQDxQCxQtQUAIAQUBCiQoIBoAQAgBAGIQDioBoBoAQAgBAIoBIUEAwgHFQDQC2IUaEBAUhRhAOCAcIqAuG7chRjDAYKAOEDH5/wCgICYD6odatQUOtwIGwoB4HGMR1IAw6fmIB4daAIjrQVDDoQo8NnzEII9MIoBcR3IAiTtOCFBQHArsYXGq+uH2oXIsxpM0IdFC1K4okk7YQj1QgqUqPejv3HvqUARhhDYlCkEqFMbjs7o+esTzGovKeEv5IX0uwv6jvbLrw2xWwRh4s/3TNXCllfSfnX1BKmMl0R9CN9Ew91GjyFMyCYFKGlMoTBvU3TamZA/rWXE2pmQPWaG1IrjQtTneRiDV10P2Jv2y6uJzI9jhHvS6DsldM94gYnqCGqklsMR3wqQysgdu1RlqXAFQVIhBU1USUB5kzvzn8r+ndzfZc0awWhl0kzp1PVUlqlVd5dInU5aJsuebXIqhKc0uhB5BiHDa1wHWnirUXRyO5Dh9+aqovqXpOy9M9c9ItY6d9RpnqBaM2ukymT6qgpZ3BWyJcz1rp9HOEuolA7PHljHDatW70LnuupxXsLds+/Fo7YGK5aHBUFACGjST9iqKjHK2LaDNwahEZUKCAELUEFRICSgGCgNgkZtyzVZlrcnUt9oqrNVsopdxudgkzmvqqalmv4JU2fLaSZYe4EN4ocUDCMCs78XLdrlNu3JR3msmk6u1f5k9FdBqqx0WrGdPkpU5klT51ll+brjXdsymcxs0xoKWoDeEzG+uIjHBcd3EQt5JOhzWcLcvJuCrToO6aOrp7hR0tfSTO2pK2SyopZsC3ilzGhzHQcAREEYELlTqqnA006M1UVSCIQGNCAhRd9C1EqQ6P1f5jtGNBZ1hp9V85fJSdmZlRMsbPN1xru3bSGWJxjQU1QGcJms9fCMcI4rhu4iFv3nQ7FnC3Lybgq06PWdNf+Ihyd/63/8A2fzB/Jq4vHWe11PYc3y3EdnrW07L0q5sdANbcyzsn6YZ++U2Yqehm3OdbvNV1ooUsl8uXMmdrW0ciWYOmtEA6OOA2rkt4m3cdIur85x3cHdtR3pqi6UeiVznVGgOAal6n5G0fynWZ51FvnydytQTpEirunk1TV8EypmCVKb2VJKnTTxOIEQ3DesXLkbarJ0Ry2rM7st2Cqw001PyNrBlOjzzpzfPlFlavnT5FJdPJqmk45lNMMqa3squVJmjhcCIluO5LdyNxVi6oXbMrUt2aozn0Vs4wKBMUVDQIAQAgBCggOjdXuZPRXQerslBqvnT5K1eYpM6os0rzdcq7tpdO5rZro0NLUBvCXjBxEdy4buIhbdJOhz2cLcvKsFXUd1UdXT3Ckpa+kmdrSVsllRSzYFvFLmNDmOg4AiIOwhcqdVU4WmnRmpVICABDpQHA9StTsj6QZSrs9aiXv5PZVtsyRIrLp5NU1fBMqZjZModlSSp008T3AYMw34LjuXI21WWY5LVqV2W7FVYtNNUMjawZTo886dXz5RZWr50+npLp5NU0nHMpphlzW9lVypM0cLgRi3Hclu5G4qxzC7ZlaluyVGb9T5tyzVZlrcnUt8oqnNNsopdwudhlTWvqaalmu4JU2fLaSZYe4Hh4ocUDCMCrvqu7XKR25KO9TIciWjAiQASTADEkoDYMuZry1nCkq7hla+UeYLfQ1s+3VNfQTWz5Daqmdwz5QmsJa4y3eK6BMHRG0ELMZqWZ1Nztyg6SVDf1owJCjCEBAbdd7zaMvWuuvd/utHY7La5Lqi53e4T5dNS08lgi6ZOnTXNYxoG0uICjaSqyxi5OiVWeVa7n15R7deDYqjWa3zK0TJUrt6agulVR8U4Nc0+XSKOZTcIDhxO7SDcQ4ggw6zxlpf3ek7i4fff9vWtp6VyhnbJ+oFlkZjyPme2ZssVSXNlXW1VUuqklzTBzC6U5wDmnAtOI3hc8Jxmqp1Otctyg6SVGcoWjAIUw1VXT0VLU1lTM7OmpJT51RMgTwsltLnGDQSYAbgo8iqVJt0R0npDzLaKa8Vd7oNKM5/Kqry5Jk1F5lebrjQ9jLqHOZKdGvpacO4iwiDSSN64rV+Fx0i6nNewty0qzVNR3rHrBXMcA+KG3DuoDgepWqGR9H8o1uetRL58nsq26bIk1t0FNU1fBMqZjZModjSSZ008T3AYMw34LjuXI21WWY5LVqV17sVVi0z1SyNrDlOjzzpzfflDlavnT6ekunktVR8cymeZU1vZVcqRNHC4ERLMdyW5xuKscxbtqVp7slRnPeInArkOIYQBs6j0oUsHpw69yAaAEICAaFBAHzFACAPnqFOAXY/3xqvrh9qFyrMU29Uo4oCg+H0d476gqUCCIDwHZ3juQtSD1eDeoWpie6EO6sTzGoZzwtD/ADSvpNhr9R3XYpnDZbaD9RO90TVmCz9J+Z/Us6Y2XRH0I3kTBuctUPDUzKJvTisuJyq4ZBMBUobUzIH9alDamWJh7qzQ0pmQTOlZcTkVw5/kJ8au4ftLPtl1MUqJHucFlWUuhHZbnbAN66J9CigRgEBE+Z2ctzscN43KpFNnNXMJjxGG7ct7oqS2oeHBxOzwpulqb1IqBObiYOG3rXG1QqPlj6TjmKzFpzlnLekeS7jMtF31App9dme7U8zgqZVplO7FsiWWniZ5TM4w52HisLR64w8ziF5xSguU93g+FU27kuTIuk1vL36NnRWh05y9dNZrFU54zxmCik3C6UzrhW0FLbXVMtswUkltvqJBeZQPC973O4nRLQBAK2MDDdTnlbJi+K3N9xt5Enr1nVWpHo9NStPNZco565RrmLHbaRhuLzeLoZTbVW0kyUBTdrF9RUSKtjzFjmPEGzGzHcL2NPFcwUozTtnPZ4rbuW3G9n6M59fq/MNJlfKs/M2eLhQWGlslu8tzRce1d5DS9lL46hzZsxrHGW0g8JLQSIYRwXpuW7GsjwVDfnuwq6vJpPllnv0tmQbPd5lDp9pVdc8WuTMmMfe7lcmWNs0N4eCZIkilrpha48X64JbgAPFiSG+fPiMU8kans2+CSa/FJJ9FfWj1zy2852k/MtMr7PlwV2WM52yWZ9TlC89k2fOpxCNRSTJT3snMaXAO9a9p2sDeFx57GKjdyZmdLF8PuYfK8sdO04Xzf85n5rN3yVavycfLr5YUlZVeUeePNnk/kkyUzh4fIavj4u0jGLYQ3qYjFdy0qVqcmBwHiYt71KPRX1nQupfpVtOcpX2fZdPtPq7UqnoZrpNZf5tyZaKKa5oHjUZ8lrJk5nFFvE9kuMIt4mkFcc+JRTpFVOzb4LOSrKVPNX1ntPl45n8j8yuTL3mPIFNUU9+y47sb1k26PZJqqedMa91KXzJfat7Ko4HBkwA+tcC2LSF2rGIV6Lcc65DoYrByw8kpPI+U6k5X+eGn5hdRs3aX33TZ+mOa8r0c2qlUM27G5uqHUlQKatkmFDSCW+S57cIu4vG+pK48PjO9lutUOfGcOeHgpqVV0e07P5sOZ+18reRbNm2qyw/OdzzDd2Wq1ZdZWi38QEqZOnT3zzJqCGy2sAwlklzmjARI5MTiFZSdK1OLBYR4mTVaJHIcja/2y6cv9p5gdTbTI0rsFfaXXyrt82udc/J6F73CkeJrKaQ6a+pl8D2S2SuIl7WCLlYX07e/LIiXMK1e7qD3nq8qHgK/el1yXSZjFFl3Ru73vKrZzWTb/WXaTQVhl9oWvmSqBtLUtd4gDmh1Q2J8U8O1dN8TVckcnSejHgrplnl6PafQ3QTmH055jMovzZkCtng0MxtPfrBXMbKrrfUObxiXOY1zmkOHrXscWugYGIIHdsX43lVHm4rCzw8qS8zPIefPSR5c0110zjpJm3TabS2HJj7hLq86094E2dPfSW6ZWyJUq3OopbeOpnNZTtDqkAOeHF0BBdWePUZuLWY7tvhTnbU1LK6ZKeupwG1+lJkZgyfqbmeg0Kr5UjIkmimyJjr/ACxJny7hXS6KS2dNbQF0icRMMxrGsmNIY8cYgCcfMap/h6/YcvyejX4+r2nze5Uebqt5aM159zbccnTtS7hn2mlSq+bU3h1BOE5k98+ZPmz30la6c6Y554iYGOJJXRw2I7mTdK1PTxmE8RFRrSj0H0u9IfqNorlm46PztV9APyx1N5tVxqLLP+Vdxy95uZx0pmy+GglPE/tC5pi6EOHDau/jbkE470a5NNDy+HWbrUtye7R6Ez2VrlrtT8vugdPqvSZO+UdJb5Nnp6XK3nA0fDLrjKlMb5W6nqSeyDhiZfjQ3Ls3b/dW1JLQdGzhnfvODdM+Wh43uPpX9N6DT7LV+l6eV1y1Bv0qrnV+Q6S5MdSWtsismU8ltXdZlKw8c+XL7ZrZdM6AIDoRaT1nxKO6nTLoO6uDz3mt7Jpp6q+s7o5Xuf7T3mOzI3IlXluq07z7U086ptVmqqtlfSV7ZHG+ZLpatsunc6ayS3tHMdJb4odwl3CSubD42N17tKM4MXw2ViO8nVaj0BzAcw+nnLjk9ubM+VU6ZMrpjqfL+XqFrZlbcKlreIy5LXOa0NaIF73ENbhvIB5cRfjaVWdfC4WeIlSPnZ4Z0y9Kzptm7OEjLuesgV2m9luNUymtmbTcpdyppfG5wbMuEvyemdTs9bFzDNDYnig1pcupb4jFuklRHfu8HlGNYyq9FKes7z5WudGVzM52z7lGn0+ZlOnyXSirkXqXeRc2VrDUmnaWsFFTBgIHECHu+iufDYvvpNUp5zgxnD/DwUt6tXTNT1nuLiXdoeafET0vRjedB/7SzF+6W5ePxP3o9B9Bwb3ZdKPX2QuQLlHvOSMm3e6aTeU3G7WO3VlfU+fr8ztJ8+mlzJjuFlxa0Rc4mAAHQu1awVpwTceRcr2nTv8AEL8bkkpZE3yLT0HfWlfKZy/6JZlnZw0vyD8mMx1FDNts64edbrW8VLOfLmTJfZ1tZPliLpTTENjht2rmt4a3bdYqj851buMu3Y7s3VdCOhuZb0g2m/L7mOsyJb8u1moue7cyW662qlqZdDQ0bphY4SqmsdLnubM7Jxfwskv3BxbxRHBfx0bT3Uqs7OF4ZO9HebomdM6aelg09zPmGls2oemtfp1b6+fJkU2Yaa6S7xTSe04g6ZVtdS0L5TGnhxYJmBJIHDjxQ4nFv8Sp1nPc4NJKsZVfRTad1eknmS53KVmydJmNmypt1sb5U1hDmua6ulEEEYEELl4h+150cPClS/5meKOXLnk025a+V3JmVp9rqs86gTq+81Tsq0M5lNKpZUysmulOrKt7ZgldphwtbLe6HjFsIR6mHxkbNulKup38Xw+WIu71aKh7f5XefbIHMhf3ZIqMt1enufXU82rt9kqaplfSVsuSXOmNpaxsqQXTGSwHuY+UzCPCXBpK7mHxsbr3aUZ5+K4dKxHeTqjNzdc6v5q9+ybZPya/Lv5W0FTXeVeefNfk/k81svg4fIavj4uKMYth0JicX3LSpXzjB4DxEXLepR0ze067yv6SfKmetdbJpBknS67Zjst+vPmWgzrKuEiXMmuExzHVcugdKgacMb2vE6oa/gieAEcJ448QUpqKjnZyy4U4W3Nyo0q0p6/YdpczHPXpby43N+UptBWZ61CbTtqZuVrdMbIk0jZrHOk+W1j2vbKMyAPCxkx4aQ4sgW8XLiMZG06Z2cOF4fO+t7Mjp7RX0oWmGo+ZKDK2fMnVulldeKptLabq6vZdbYXzCxsoVFQJFJMkl73ERMosEAXPEcOK3xGMnSSoc97hM4KsXXqPYXMrriOXnSa76ojLHyxFrq6GlFkFb5v7Ty2e2Tx+UdhUw4eKMOzMepdnEXu6jvUqdPC4fv57taHh+4+lb04oNPstX6Xp7XXLUC/SqqdXZDpLkx1JbGyKyZTym1d0mUrDxz5cvtmtl0zoAgOhFpPUfEo7qdMp31wiTk1vZNNPV7Tublg5+9PuY3MbciVeXKrTzPtTTzqm12apq2V1JXtkcb5kulq2y6dzpjJLe0cx0lvih3CXcJK5cPjY3Xu0ozgxXDpWY7ydUeKvS7/zu0U/ii8e6KZdTiXvLoO9wj3JdJ3Lnn0omm2nMuy5UyFkqq1TnWe30dLdr024stVvE2XJDZjaab5NVvncLgBxcDWnHhcRt5HxCMEklXIcS4VKbcpSpV9J7f5cuZbIHMxlOtzJkttXba6y1DaTMeWbiGNq6KY8F0pxMtzmPlzWtJY9pxgQQHAgd3D4iN5VR5+KwssPKjyp5mdVczHPZpby43N+UptBWZ61CbTtqZuVrdMbIk0jZrHOk+W1j2vbKMyAPCxkx4aQ4sgW8XFiMZG06Z2c2F4fO8t6tEdPaK+lC0w1HzJQZVz5k6s0srrxVNpbTdX17LrbC+YWNlCoqBIpJkkve4iJlFggC54jhxW+Ixk6SVDmvcKnFVi69R6I53Mw5Gyzy75ovOoen35UcqSa61NrMni7VNl8ofMrZTZT/LaRr5rOzeQ+AHjQgcFz4yUVbrJVWo62AjKV2kZbrpnpU8+6c8x+R9I+R2RrJpvoucs5YpL3UW+j03GZKqrMubVXE00yeLpV006aYvcZnCZeHrQRtXXhfjCzvRjRVzVO1cwsrmI3Jyq6VrT1Hyt5Uubms5ac1Z9zbccnTtS7hn2mlSq+bU3h1BOE5k98+ZPmzn0lY6c6Y554iYGOJJXQw+I7mTdK1PUxeF7+KjWlOY/UFQ1QrKKjrODsvKpEud2cY8PG0OhGAjCK99OqqfLSVHQ+X3pPNfK7IendPo1b7NPM7Vy3vmTs109xdSuo5FvraV8+ndTMkuM9lTLLpTwZrBwuMQ4YLz+IXt1blM56vC8PvS7yubkOgPR0c2vmSfp5yu/IDynz/drtUfLnzrwdjxyJ9dw+QeRu4odjwR7cbY7oLhwWI3aW6Z2djiWE3q3a5lmofRXmR5y9JuWmZRWjMzq3MmcrlJbU0mT7OJbqiXTOdwifVTJr2MksdA8MSXOhg2ESO7fxUbWR5WebhcDO/lWRaTx/kf0t2Qrvd5NFqBpNdsl2qfNlSm3q13OXexJDyQ+bPkupaB4ZLwJ7PtHERg0kBruvHiSbyxodyfCJJfhlV9FNp9XcvZgsma7Hasy5bulPerDfKaXWWm7UjxMkz5E0cTHscNoIPe2HFehGSkqrMeTOLi6PI0bytGT4Lc4WoWeeaHmns/KxlC8G05Ps18k2ObLa7ikzrixva3CvqmMeO0FG0Pa2XHDs3Qg52HjYqcr13cWatD6HB244ez3jztV83Ij3faPRp8qVBlyns1xyhc75eJchsuozdPvNwk1kyaAA6aJMifLpWxIJA7EgR3ruLAWkqPPpPPlxS85VVEtFPJnRfLRyfcw3LhzF3i6ZWvdBV6Gz62bb7l50uHZz7taZkhs6RUCipmzWipppruza54lkuZMgGypkTwWMNctXKr3fUdjE4yzes0fvehnvTmA5jtNuW/KsjMuf62e+oukyZIy5lygYJ1fcJ8tnG5sphLWtY0Q45j3NY2IEeJzWnu378bSqzz8Nhp33SOs+feXfS55Krsx+RZo0eu2X8rvmlkm/0V2k3GqawzGtZMm0LqWla0dmS5wZPeQRwtDoxXTjxJVyxydJ6MuEOmSWXoPp3T5wy3n/AExqM5ZRukm9ZczDYamstNzkE8MyU+Q/a0gFrmmIc0gFpBBAIXe31ODazUPNVuVu6oyzpo+Ovoho/K7WyHwPZ/dFSvM4d7z6D1+Le5HpPZmrvP8A5XyVqDdtJtLNMcx67ai2Ka6nutqy/wATKWXUyX8FTTCbJk1k+ZMkYiZwU5a13icXFxcPauY1RluxVWdOzw5yhvykoo4Tl30lVptebbflDXrQ7NmgtbdJssU1XdTMnypUibg2oqZdVR2+eyXxCBcyU8Qx3FZWPSdJxaNvhjcawkpeXSzv/nZzNkGwcuOZMw59yCzVfJ3lloM7Kku8VFnZV9tWShImtr6Jr5jQxxDxwiDoQ2Fc2LlFW6tVXSdfAwm7tIvddHyVNu5Nc4ZGuXLFQ5t0501/JrlainXuopMj+eam88EylnzXTXeX1jBNPauaTAtg2MBFZw0493WKosuQ1jLcu+UZSq3TLShsnKDzonmsu+drUNNfkH8jqOjq+388+dPKfK5k1nDw+Q0nBw9nGMXRjuTDYvvm1ShcXgu4invVrze0fN7zpfmp3jJNqOmvy8OcaOsq/KPPPmvybySZKl8PD5DV8fF2kYxbCG9MTi+5aVK1GEwXfxb3qU5vad+6p695E0X0rkar6g1E23WirkUvkFppA2orKysq5JnSqKkY4yhMmFrXGLi1oa1znFrQSOWd+MIbzOC3hpXLjhHkPCz/AEkGoFVb52brBya57u+mbGiobnx0+rl0/kjQDMnudKtE+maG4/2SW7IuEcOp46VKqDpp8kd75bFPddxV0eTPYfLdzT6bczdiutyyQay13jL8xjMwZTurZbK2mbOLhKnDs3zGTJUzhMHNdtEHAHBdmxiY3VkznUxOElYeXKnynpcY93oXOdUIIQIFKlCBSoBUAgCB3eBQHXt5DvONSQ04uER/Shc8Y5CVNui4YkEDrCULvFBwUoaqNQDQoiYCG0dCgMT3R6T8/v8ASszWQ3DOeGf5JX0Ww3+o7is7oWi2j9RO90TVbaz9LPyr6qnTHy/xj6EbkH9a5KHz6mZBMI3qUORXDIJpU3TauGUTQs7pyq4ZRNHSo4m1cRfawWd033h2Fp7NDqy5Y7JLPtl0sasiPoPp+dZz6EdptdvO9eefUVMgKgqOIIgREHcgNmqqUyyZkoRZ9M3oXJGRTRggrQqZZc0y3Agwgo0Wp8BfSoSaz84XLNdPkzBSVeRqBlHUEHs3mVX3DtGtdsi0uBIGyIO9fPcSVLvmPrODNOx536j9B1tqqest1BWUnCKSqppU6m4cW9m9gcyHVAhezHKj5iaak085cy5W+nraO2z66nk3C4tmvt9BMmsbOntkBpmulSyQ54YHt4iBhER2o2k6EUW1WmRHzP8ASr5pvFo0Fyvl+3VRprfm/NlPT3+W2H3eno6edVS5Log+L27JczDGLBuivP4jJqCWlns8EgnclJ50vSd5ciGmeUckctOnVfZ7VTm7Z5tQvWaLu+VLNRVzq4l/ZzJgaCZcpnDLa04AN6SSeXB20raek6/FL05X2q5FmPmLzI2W36E+kGyJeNNKeXlw3e55evc630ctjJDJtzqXUdfKZKA4WtqGB/E0fsjoQwXn313d/wDDzHs4OTv4Wk8uRo576XX+d2iv8UXn3RTLl4l7y6Dh4J+3Lp9R9K8t6R5EsXLGzTOTlui+TM3JLpd0oeyb++aibQ8c+pmuAiZz5hMwv28WIhALvxtRVilOT1HlyvzeK3q/3dVcx80fRFT5jc66z04P3ObZLVMeMfXS6meG9X05XQ4Z776D1ON/tx6fUbRzEU0/lL5+sp6v22UaHJ2e66Tfrj2Y7OS6RXuNHfpJEv1zgXOqMR657DjBZvruL+8s2fabwjWKwm486VNWb1G4c8NZVcyXOVpfy+ZeqxOt2W20lqrJ8h0TJqLrwV90ntc4Fh7KiZKOAOLCDE+KLjH315QXQTh0Vh8M7kuWr1ZvLnO6/SsXGflnRbSbI1kdMt2Xq2+lk6hkFzZTpFqouCmkPh65re1Dg0mEWh0ItBHNxH8MIxWbYdfg/wCOc5vPtOtNB+ZLUjIGiGUtPsu8gGbc65Wn2eUK/MdJKuBo8weUN45lc5rLBUMmNn8XEPujxAgBxEFx2b0o291W216eo5sTh4zuuTvJNcmTJ1mg9HlkjWHI3Mlm+uu2kGc9M9PM42W6B1DerTcaegpiyqlVNBINVVU8lj5klvFLY4gEguwxKmChON3LFpPmLxO7anZySTaazNHS+ecgWbVH0lt4yLmKWZ9hveepZu9KCB29NS0bKqZJJIOExsksO+BwgVwygp4hxfKzswuO3hFJZ1E+92WtMtN9OqK8jT/IGXMjm507WXR9htdJbnVQp2v7Lt3U0uWZnBxu4eImHEekr21bjBPdSR8y707jW82+lnxr9EV/PzWP+Ibb7qmryuGe++g97jX7cen1G4el6/nNof8AxXfP3ajV4n70egzwX3JdJ6u5/P8AYenf9Vv3enXPjP2F5jq8P/lS8/pNr9FzkDLVn5e5meJNppjmfOt7uDLreXy2uqHUlFMFPJpg8iIltLHP4dnE4lOHQW45crY4vdl3qjXIl1niCzWW1ZQ9KfJtOXKGVarZKzzNfIoZA4JUs19sdNnhjRANBfOeQBgIwhDBdNJRxNF2j0pSc8HV5903j0kkyszxzb6Y6c3GvfTWAWmyW+lDOEdgbxcZrKqeCWnxi3gGMR4gw2rWPe9dp0GOFJRsb3Oz7GZ50c04vujd60nqcq26TkeVZZlJbrNLktZKpDIknyedJgAWTJTgHtePG4hGK9S5Zh3bjTJQ8KziJq8p1y1PkF6JD/tK1a/6M0fuwLzeGfuPoPb4z+0un1M+7y9s+bPiN6Xn/DOhH9pZi/dLcvG4p70eg+h4L7sulGmyx6Jr5R5ay9mH8vvkXn62Ulx8j+Svadl5VJZO7Pj88N4uHihGAj0BIcN3op72daPaLnF9yTjuZm1n9h9CuUXlYPKtl/OFiGfPl38rLhT1/lXmvzZ2HYSjK4ODyur44xjGI7i72FwvcVy1qebjcb4mmSlK8tfUeddWdf8AlR0213qm5B0Hm6t8ydBW1wc7KVsa2Z54mSHGcybPYHOm1DsRMfKp5zmfdCT2gc13Wu3rMLn4Y1lzafLmO5Zw+Ina/FPdhTl0bPOfPbn2z1q5qNfNN80ap6Hs0VZUUFfKy1TT6tlXcK+SH08yZ5UYSns7ATJbWtfJYYuf1tZ0cXOc5JyjQ9HAW4W4uMJbx9I+eCY+byD2+bMcXzJlFk98x52lxfTEk91d7F/x4+Y87Bfy5f8AL0j9F5kHLVm5fDnintdOcz50vVwbdby6W11QaaimeTyaYTOHiEtpY5/DGHE4netcOglDe5WzHF7kncUa5EjxJa7XbMrelQlW2wUEm1W6XneY6VQ0zRKlMNda3TJ3AxsAA585xgMMV0klHE0XaPRbcsHV9k5j6XT+fmjn8Q3L3VLXJxP310HFwb9uXT6j6h6Ecuej+l+TtO6qxad5dbm+yWalc7PUy2Uj71Mqp9KG1M81/ZdsDN7R4PC4DhJaBw4L0MPYhCKaSrTOeVisTO5OScnSubkPhLpVqbmah5uM/ant0Zu/MPmhtzv1dTZSpBUTaqlmTKzs2VvDKoq9zW0zHdk0dkAziaAWwaF41qb73e3d56D6G/bXc7m9urIq+TR3Dza5n1r5pKTLE1vI9n/IWZ8uVMxz80stt2uM6po5svhNLMaLNSYB4a9pLncMCAPGK5sS53qPu2n59h1sGreHqu9TT51tPVnM/PzXP9GxlQ55orhbs3SLflSmzBR3WTNp65tRT1EmS41MqcGzGzHcEXcQjExXYxFfDLez5Dr4Xd8XLdzZTmPovMg5atHL5MzvJtNOczZ0vVwZdby+W11Q6kopgp5NMHkREtpY5/Ds4nErfDoLcb5Wzi4tcfeKNciR4hs9mtWUPSmSbTl2hlWu2Ss8TXyaGQOCXLNfbXTZ4Y0QDQXznkAYCMIQwXTSUcTRaT0HJywlX2TsH0u/87tFP4ovHuimXJxL3l0HDwj3JdJ9PMtaTZEyzyyStN6TLdA7LL8kul3OgdIlltXOm0PHPqJ/ijjmzJhLy8iPFiu9G3FWaU5PUedK9KWI3q/3es+X/oipz2501opx6ybZbTMcI75dTPAw/pyujw3330HpcXX+uPSeYtKtTczUPNxn7U9ujN35h80Nud+rqbKVIKibVUsyZWdmyt4ZVFXua2mY7smjsgGcTQC2DQutam+93t3eeg7d+2u53N7dWRV8qHcPNrmfWvmko8rzW8j2f8hZny5UzHPzSy23a4zqmjmy+E0sxos1IYB4a9pc53DAgDxiubEud6j7tp+fYdfCK3h6rvU10raesuZufmuf6NTLhzzRXC3ZvkWvKdNmCjusmbT1zainq6eS41MqcGzGzHcHE7iEYmK7F+vhlvZ8h1sNu+Llu5sp2z6OH/ZBy5/GN/8Adk1cmB/Z1nBxP9/zI8VeiL/n5rH/ABDbfdU1dXhvvvoO7xf9uPT6j7rRXsngHiL0jB/+UDVL9vsH+e6FdPHftPzek73Df315/Qcb9GV/sp5f/j+9e6Vjh/7XnOTiv73mR89tAbFQa9+kSz1c9S5bMwy7LesxXiVbKljH0851on+RW6nmS3Ng+XTs7PhB29m3iiOKPSsrvb/4tLPSxDdnDfgyZEj6i88+m2UM6cs+pNVeLPSuuOSLLMvWVrmJTGz6KfQATGtkvhFrZjAZbmjAtd3F6GMtxdtvQeTw+7KN5KuR5zz76KDM94u2h+csu3CpdUW3KeaXy7DLcB9wlVtPLqJsppH0vbF78d7yuHh0m4taGdji8EpxelH1KXonkn51dBmTLL6TqplXmQ+ROGomeJbpc8Fri+qp7s2Q/wAYRPEZjXNO+II2rw7OTEZdL9Z9JiPxYTJ2V6j9FS9w+bNHT3G31dVX0NLXU1TW2t0tlzo5U1j5tM6awTZbZzGklhewhw4gIjEYKJp5CuLSrpPz7+kWzDcbrzi5XstZZqzOVryvQZfp7ZkaUZn98fKZ5qp1LIayXMPHVumCUXNY5x8UQdwhq8XGybvU0UPo+HRUbFc1anc2tevGrus2kl80pqvR3Z5sdFV0QkZbuMuluk5tnqJZBkVFNIZl+RDsy0eK17eIRaTArlu3ZXIbvdterqOCxahanv8AfJ6c2XrO7vR5WDU/KHLtqnlLUjKWYsoNtd0r6nLVvzFbqq3TPJ6u3sdOEhlXLlky+1Y53iiHE528rkwcZRtyUk0cWPlCV2Di0+jpPOfohv53a2fxPZvdFSuLhvvPoOfi/uR6TimftIOa3lB5hs660aSZSn56y5mavuUymu9FbXXeRNobvPNY+kuFHTHymQZMxjIzW8DS5rYPg8sWJ27tiblFVN271nE21CTo9GbUdp5B9J3ka9Zjs8vmC0QpLTfbSDbXZ4tMlldMt5nPleWDyKtZ5TTye1ktfMZLnzH+K0cD3sEeSGPjJ/jj5zinwyUU+7m+j+mw9S+kUuluvnJpmW92isl3G03eqy7XWu4STxS59NUV1PMlTWO3te1wI6iuxjmnZquY6vDU436POkzZOQL/AGHpX/Wn92qFnCfsPzm8d/JXmPJ3ohf5362fxPZvdFSuvw33n0HZ4t7kekj0vL2nOWissHx2WW7uc3qdUU4B/wByU4l7y6Bwn3JdJ7J5yeXnOPMLy45DtuQDJqc15N8gvVDYpz2SRcZZoDIm08ubMc1jJkJgcwvIaYFpIiCOzibDuWo7udHVwmIjZvS3szfrPBWRudnmg5W8v2LTPWDRYXLKeVaUWC0MvdBV2SsfJpSGSpMuvayZS1EtkhpY1zZDi9vC/jdiX9SGKuWVuyWTnO9PBWr734yyvRlPpnyjc0GievFpr8vaaZXbpxfcrUkmZcsgGkpqZkujZwyZc6jdSASpshhcJfrWOYYAsa0tLu9hr8LmSKo9B5mMw1y1lk6rSezV2zolcR34jpQFde0dKAEAIAQDBh30BwW6kecar64fahdq37qOOWc28iIO8HatUCZoXRluLTs3HqXG0bTMgeFmhalRUoaqS5ylCpmF52d1YnmNweU8PfyQvothyfqO17bMLbXbhH6Sb7omrlsKqfSz8h+rpU4hL/GPoRrxN6dnSuXdPm1cL7YdKbpvvCfKg3apujvqE+XMG8JuMeIQ/L2dKnds2sQgNeNyndm+/bzHZumM902tusd0iXD7IrzuIKiifW/S8m5XK6F6zuTiK8s+woWCUFCuIqChXEDgcY7kKbVU0paTMlNiw7WjctpgxspZ7wHcPA3r2quQqeMedflPm8xuRbZVZWnSafUnJLp87LLqmYZUisp6gM8poZrvWtLzLa6W5wg1wgS1rnFefjcM7yqs6PV4Zj1h5NS919R4O0957tc+V3K1q0o1r0Rrr3UZYY+2Zcr7pUTrDVGkpAxjJJmPoqqVVsktLWsmS9rCwlzvXO6FvGTsrdlHN5j1r/DbWJfeW5Uroyo4VdLXzQekC1byfmp2UK3TvI1i7DzHmMS59NbrPRTHNqJlXTVk0S31dTMLGuaZO8S/1tnjjjau4qadKLqRyqVjAW2q1fWz6rc1XLUNcdApemtirnDMuT/JLhka43SfNnOm1dvkOpxKqqh7i9xqJL3sc95PjkPdHhXpYnD95b3VnWY8TBY3ubznLNLP5cx8ydKuc/Wzk5yfT6L6r6J1t1bYJ1VKyrPu1ZPtM6TKLxNfJZOdS1cqrky3TYsMsgBrmgO4eFefaxU7C3JRPYxHD7WLl3kJZ89Mvkzm2g2iOs/NVzIyeZjXDK8/J+TLHcaa5Wy01sidS+WPtsPN9DRSZxbMMiS9jXzZrhwvIc0RL3cGrNmd+5vyWQxisTbwlnurbq6U6K8rNN6XT+duiv8AFF5/d6ZXiXvLoJwT9uXT6j68Sz/+VDv+iZ9wr1P/AKvN6jxP/wCx/wAvWfH/ANEZ/PzWP+Ibb7qmLy+Ge++g9zjf7Uen1M9d+k10i+X+ggzxbqQT79pPWi6B7GNMw2uq4ZFewOMCGt+5znQ3S9i7XEbW9b3tB0ODX9y64PNL0o8yejGybfNRtTtTOYzOc51yrrZIZYLVXPDGh9dVy5bqh7WtbgZNLLlywQfWzDGJxXX4dbcpub5DvcZvKFtW1y+he09w893L5e+YPRY2zKEoVOd8m3Fl9y1bnzGym1vDLfJqKTjf4odMlvLmRIBe1oLmtJK7mNw7uwyZ0ebwzFqxc/FmeQ+bulnP7rHy55Dteh+e9FJ93zRliT5uyhUXSbU2ask0oe6VTSaihdRzXVPZvaZbHMdL4mtDTFwLz59vGztR3HHKj173DbeIn3ilkeemWvQ/6n0L5LM982eo9queY+YC0W6w5VFOyny1LqrRMtl9r6pr4vqnyhMly5cgNiPGkDtCWlnC1p4+9g53p5Z5us8ziNvD22lbz8uWqPnzbP8A6sE3/plV/wCZZi6C/lec9WX8H/ife2fK7aTOkx4e1Y5nFthxCEYL3HlPl06M/NRoNqxqJyKav58yxfdKqvNeYMwyGWOny/NnTrdNqJkqrc2kq6N3ktS6fLnODgwMb48RwuiF8/Zuyw83VZcx9dibEMZbVJZK1qeifSy1jrjc+X6vfKMh9dYrtUPkmILDNfRPLSDjhGGK5+Iuri+Y6vCI7sZrQz15z+H/AOR+d/1W/d6ddjGfsLzHT4f/ACpef0nJPRpf7JuUP43vfu6Yt8P/AGvOcfF/3/Mj5+Vv/wBV9n/Tan/zQxdF/wAr/keov4X/ABPRHpMeWvO2dqrKOuWmVlr77fMsUYtObLdaWPmV0ukkTZlVR18mXLPG7sXzJjX9m0vALHeta4t7HEMPKTU4rpOpwnFxinbk6aNh1xYuermQ5gMn12jmnui7JWo9bQeaM26mSqmf5FbGTJUyXU1k+lNK1lE8slzC0zJ7oPEGMe7hYuNYy5djuJZeVnM+HWbM+8lLJXIuf1nFPRHtcdSNW3cJ4G5aowXQwBNZgI9cCpwz330GuM/tLp9TPu7Be0fNnxF9Lz/hnQj+0sxfuluXj8U96PQfQ8F92XSj7A6Yf9munv8A0ZtPuOUvUs/tx6EeLif3Z9L9Jzlchwn5xJ951U5EeavOGoWYtP35mtN5rrxIpayqM2npLrb7rUOqZU2kuIlTWS58ZTS4FjyIPaW48Q+fTnhrtWvafVtQxlmidPUzbOcvPOuevFmyjrbn3Subpdprb6x+W8j2+rmPfUT6msZNqp8wunS5EyYC2khxmUxpgAzi8aExM53aTaosyLg7VuxW3GVZZ2fQTm2zFbc2ejlyvmO0TDMoLrasmzZQdDiY4PpmzJb+EkB0t7SxwBOIK7uJkpYaLXMedhIuOMknzna3o1D/APKdlD+N737umLl4d+15zr8W/f8AMj5/Vv8A9V1n/TaR/mhi6L/lf8j1F/C/4nI/S6fz80c/iG5e6pa3xP310HHwb9uXT6j7cZW/mxlz+K6P9xYvWt+6ug8G778ulnwp1WyBrZyRcz9/1409yhUZs01v1ZcLi+rZJmVNGbdcnGpr7bXzJLC6kdJeC6VMdhBjHxfCYxePchPDXd9LJ5ZD6Gzdt4yzuSeXr6TsC38+nNXzA5zy5auXbSCTYqRjplHe5FW199oDNn8BZUV1xNNRNpGSGtcRiI8RjxngC3427dklBes4/l9izFu669WpHqj0iDL1L5Nb0zMc+iqswMrMvC+VNtkzKejmVYq5Pbup5U6ZOmMll8eBr5jnAQi4nFdnHV7nLnyHU4ZTxH4c1Gbp6NT/AGTsofxve/d0xXh/7XnM8V/e8yPn7Wf/AFXGf9NpH+aGLov+V/yPTX8P/icu9Lt/O7RT+KLx7oplviXvLoOLhHuS6T7C/wD+o/8Aqh/9wXpf/V5vUeT/APd/y9Z8cPRF/wA+9Y/4htvuqYvM4b776D1+L/tx6fUbDqtkDWzki5n7/rxp7lCozZprfqy4XF9WyTMqKM265ONTX22vmSWF1I6S8F0qY7CDGPi+EyWs3ITw1zeSyG7Vy3i7O5J5evpOwbfz681fMDnPLlq5ddIJNipGOmUd7kVbX32gM2f2ZZUV1xNNRNpGSGtcRiI8RjxngC5PGXbskoL1nF8vsWYt3HXq6j1b6Qxl5l8mWYmZjn0VVmBlRl0XyptsmZT0cyrFdT9u6nlTpk6YyWXxLGvmOcBCLicV2cdXucufIdThtO/yZqM1Po2pfbcpGVpPFw9rdL6zihGHFWzRGCYD9rzscTdL/mR8n9BtWNRORTV7PmWL7pVV5rzDmGQyx09gmzp1um1EyVVubSVdG4UtSZ8uc4ODAxvjxHC6IXm2bssPN1WXMetiLMcVbVJZM9T9J1rrHXG2W64PlGQ+upZNQ6SQQWGawPLSDjhGGK9+Lqkz5ia3W0eZedjIOYtS+WPVHKeVKKZcr/OpaKvoLZIYZk6p8219NWzJMpjcXPdLkuDQMS6AXXxkHK00jtYC4oXot5vYfOD0d/M7mTLFyyvys1Gmc+pdOv1zqLrms1E6VOtUlzHOmy6qg8lcQW1LRLL3zWAF4aWxhHoYLEONLdOU9TiOFU07tcyJ5gNDda+V7mXm8zWiWWKrOGUbzdqi8V1voJM+q8lm3MuFxoK+nkF0zsJ75j3S5jRwsLmjxXMbGX7M7Nzfisgw1+3iLXdzdHSntRxbU/nX1t5w8n1OimkuiFVbJuZX01NmqqtlZOu82bJ4u0EozPJaWVRypjpcXumuI4GuBcBxFS5ip31uRias4G3hpd5KWbNyH1L5OuXg8t2jtBlC5T5FbnC91cy9Z1rqYudJ8tnsZLbIlOdiWSJUtksHAOcHPgOKC9DC2O6hR5zysbie/uVWZZj1WuydM+P/ADycoOo07UWm5muX2lqa7NtFOpblmawW4GbcW19uEsU9xt9OQ4TjwymiZJaCXFvEGP4nry8Xhpb2/A9rAYyG53dz2U0HBpHpVdTrPRysoZj5fJUzUyW2RSTHPr6uiD6ya1nATaH0T54MwuBDBPieIQPThcRklRxy+XIbfCYN1Uvw+XKYuT3QLmF1O5hqjmd1ip7xka3TKqZdart+3tFXeqh3i09HLpGuZNbRyezlucJo4HtYxgEwFxaw1i5O5vyyes1jMRbt2u7hRvNpp7Tn/pGOXDUy652yfzHaQWuuvl3yzTU0jMdBbJflNbRzbZPdU0NxkU3A901rS4tmAB3DwsPCWl5G8dYlvb8Ti4biYqPdyfRsOrbl6TfXvONkpsgZD0WNs1gkPkyrrdbeKi6zHTqSazytkqxPo3TJXaFplua+bMcwOMDxQcON4+5JUSy+XIcseF2ovek6x8uU+pOk9brZc9Da266+0tmtmfrnb6+pdZrNTvkCjpHyCZMmr4p89jp4xLuDha0EMgXNc53ftu47bc89DzLitq8lbzVR8u/RC/zu1s/ieze6KldDhvvPoPT4v7kek7A1U5uuc3ly1Xuk7VfTi35r0uoPKZdBPslBOt9nr6epqJfktUy7OZXPkzpYHZ9k9xh2njseTLet3MTetT/EsnVrOO3g8Pfh+B0fX50eV9Z9V9TfSGZiyNYtOeX4WOfY6ydJqMw00yZci19UyUHeX3bySklU8iW1gdwvHRAkwB6925LEyW7E7dizHBxblPy5kfQfnWySdNvR/U2n5rPOLslUWUbJMuEICe+hqKWQ6YAcQHFpIG4YLuYqG5YUdFDz8Dc7zEuWmpyf0c9vbduTix2t8x0plyrcxUr5zREtE6rnMLgOqK1glWzTpM8Rlu309CR8q9JNQdXPR56xZst2btNJ97lX2Q+zz7XUTJlBIubaac2ZT1lurxIqGzGjj+la7B/C4NeMPPtTlhpuqPUvW4Yu2qM45zo561o1czBkzVfVPIE7THL+YKWutGnGUqrtRUS6S1zJUyqnTRPlyZjjMm1ghMMtgeBBrYNiZiZzuNSkqaDWEtwtRcIurWc+3mvuYuY7KeiGTsycuVmtmY7xarfSzMz2GpoZtdcZ1GaRgY+3SWTWCY+W6JdL4HvfhwetLX+pddyNtOB4tmNmV2SuacmjOfPW3+lF1Gs2XafTzUjQKVmrUKRTSbfdKu4Vb7ea2pexnZzKmy+bXQfNJDyxjmNPF4jWiC6ax8t2ko1flyHffC4729GTS8uU536NLl11Hy1nbOOu+e8sz8iW282uqs+WMtVNM+hmzzWVcmpnTmUk0CZKp5QkBkviHjcUWxa2J3gLElLfeRGOJ4iLioJ1dcp3BM5z9UWc8I5aBYcrfIQ3tlt87GlrfO3ZOtYrS7tvLuw4u0MI9hDh3RxXJ4uXfblFSpw+Bh3HeVdaV5vQfTaK9A8sO5ggKjHdA9HqIBxQDQEnpQHX90fG51bdha5v2oXat5jjlnNGHLZCZgExuHrm4tUaqVOhpR0bCNoO0LjzGy44KFJLlGEYnOjDurE8xuGc8RfyQvodhz/qOzaJ/Dbrf9ZN/d5q7GHX4X0s/GfrKVOJS/xj/wCKNR2sBt767G6fLd4aSfV8AJB2blVEz3mXIbeJ7nxJcTHdFRo54vIZmzdgiVlxOaM6GpbM6lhxOVXDI16ULvnbulUzirbsOiRL+2K8viSoon1/0rPenc6F6zuyK8k+zqUEFSooKmNr4uMNm5WhKmpaVkFpQpDmnaO+OlAYg/piR80d1KFMkd6hqowQRgYjpQZzIEBcFBU0lRsVRUzHIOK0Rm4sOCCpaGhqgEBOI2FQtR8XSpQtSohKAahQQAgGqUcUIOKUKeFOcfKPNZPdl3PXLBnKvpay105oMz5Ep5tLCqZ23ayayRKrg6nc9hc5swYOc3h9cGwXRxcL1VK230HqYC5h6OF1Lmb9B4oreZj0lV9stRp4/l9rKa63GnfZZ2dWZOu1PU9o9pkvqhVzJ4tjCcT2nZCVvADYLqO/iXHd3fPR/wBDvRwuDjLeU1ky03lTaepfR8cqmbOX3LWa80aiy5dBnbPvkcoZflTmTxb6CkD3sZNfLiwzpkyaS8Nc4NDWgGPEuzgcNK2m5Z2dPieMjeajDKl6T6Lkgb16B5IuIdKFCKCoRPQgqMEtMVQZ9o6igqYCIGCFGOtQoxDcoBoAQAgBANACFEgTEoaBACFBCAhQQAgBACEBCggGhBIUaAYKgKQAgBUFRw7iAIqAe3Db1IAhDrHR0IAQDQAgDcgDHpKCo4npKhahxEb4j5qAInq8AShRxPQPAgCPUEIER0D5qFCI6PmoKhEdB8P6SCpQLYYxPWgHhCIPcKARVB1xefFutU7iAg4RGP1IXYhmON5zR9rL+qA7uC5KkK7RggOIY7EqDHM4SQQY9YOI7iyypkmLRE4jc8fRG5YaNVIJxUaNIwuOI7qxczGo5zxN/JC+g2HY/Udm0f8Ag2gwj4k393mrsYbM+ln4z9Z//oy/xj/4oiaQATsXbR8dNmyznlz4RiAtiCoYw4hShyp0MjZpG1ZcTe+alkzrUaNKZqGv8CzQ3GZ3BpK+Ndd+qRL+2K8riiyR859p9ISrO50L1neYK8Y+4KBQEzHwZHZFKAUkYd1VkNUFClAoUoFQGOYGw44wLdhQVNA6a52AMG7wuWMA2ZJTy07cN4VlGpFI1rXA4gxC4HFo3UygqUKaWoOCqBhknFaDZuLSgMsUKOKFqEUKKIQCUKCAEAw4pQtSg4KUFRx61SBFC1HE9EEoKhEoBnu4IDGWiOKFCDehQo+4hQQCgVACEFEtMQtAviDsDgdyMpOKhoIlAOJQDihAiFKFCMUA0AIBoUEAIBKFqCFYIAQVEgBCggBCAhRoQSFBAZBghCoR7u4oBQh6ihRIA7qAEAICgevwoB9Y2oB7vnoAQADu6UAIAQAgF1t27whRgoBxUAIAQAgBUAOkbd4QpW3Z3wgOuL0I3Or+ub9qFzwzHG85tMFsg2iII747qAtoUKZQYdz9G5C1MTmjAsHi7XN3jrHeUaKaV0fFxiI4FcdzMbi8p4q/khe/sOz+o7QohG12/wCsm+6Jq7GGzPpZ+NfWa/8A9GX+MfQjQ1b4AjwLtxPjpZWbQfnrRtKg4dKCgwEMssYKkqZWvIWWiqR3LpC6Ndef7XlfbFeRxVfhj5z7j6MlWd3oXrO+AV4p97UqKCpgmui5rRu2q0FTUS8AoyVM0ULUcULUcULUwz5b5sssY8sJ3ogbSHvku7OcC07nbiuWMqkNcwb9y2ZqahhgVHGqLU1AcuvONDalU01QcFEWpiknHvrQZuTTggMkVC1CJ7qpQilC1DvqCpSCofNQtQj1IUFAPwIUO+gCJCoKBQBFQFDoQCQqEoaEgGgBAJAKPTgOlKAZGGO7erQVJj1qUKEVRUEAIUagKBQo4hQDQAgCKCo0AIAQokLUFACFEgBCghAQAhRoBgRQjL4YIAxQBHpQB3fCgEhRnce8UAkAIAQDj0+FKAqJ394qUA4lAEdmAxQDw6PmqAPF6SgCA+q+YUKBbHHiEemKVAAO6MVQECNylQEVQCgBAJUB17D0oU67vLx50q2u8V3E2B3HxR4F2IZjilnNsWiDG2KFKwjhsOxAUoDGTDEIUwTAD40eB287j3R0rFxZDUHlPFH8kL3dh2/1HZlI8NtVB9ZO90TV2MOsj6WfjX1m6cRl/jH0I2qc/jmQOwLt8h8nbVWYy0bETNyVSSxUy0HBDrVqYaHDBDIwEIdw6QYV95/teV9sV5PFvdj5z7b6L9+70R9Z3yF4p9/UqOCgNO13G8k9KpDWNOCgTL4koUfEpQo+LrQVDjCFqY5rJc9nC8R6DvCVoDbfu1GYH7pJXLGYaqa5lRLdKM1p4ofS749C5K5KmS5JcW8bncRdiW9HUuvN1ORZCKh2CyimOScQtUFTcmHBCVMkSlC1HFC1GFC1GgqCFKj1IBqFBBUMULUI9IUKUIKgaASABEb0KMlCExUaNJhFC1FxDpSgqLj6ASgCLj0BBURBO0xQGRjgQOkLRGMgEHpRhMxrJoahQQAqAQDihajBUAA9KApCjUAIAQVGhRIAQVBCiUKCAaAEADFAUB1eBAVHr8OCEHHq8CFCIQg1SihvGzoUAgI/QUKJACAEA4FAPZt2IA+d85AG49G1AOKAIhANALvoA6toQBEjeYdKFK4j0xQBHqB7ygqER0BKCoeL0HwoKhBvSfAhTra9hvnSrBe0jib4uP1I6l2YZjilnNuaTseQRsEyI8BXJQzUohw+lPeUoKijgQcDtH0VaCouM7IqGhEqAxvKzNfhZqGc8UfyQvb2Hd/UdiSnwtVvH6ib7omrs4XM+ln4v9aZeIy/xj6EaHh2nbFdls+bjCkRwPdQlBgbUMsoBUyLhVM7ocPgQjR3BpE2Ffef7XlfbFeVxV/hj5z7T6MX+y70L1newXin3xL48J4dp2IQxy2OAxCtSGoBhtWQVxIA4wNpQtRxigqRAlBUY4ghalkAgg7N6hpM0jaWWyZ2g3fS7ld4pn4d7fFKhTBOmYQcOEqoBIOxWhKm5s2K7pmpcVC1GlC1HFQtSg7vqULUfEEoKlRULUELUYPfQtQiFQOIQtRKFqOJQVHxQ2q0FRcTUoUcSdyAkg9MO4hSOHHEkqFHABAUCgHEKAaFILd4wKAYeRtxWqkoBIJwWWUUUKLiCAYKAaAcUKClQCoHFC1HEqAYKApQoIB7e8gEgEhRoKggqCFqCgBAUPAfnoCgenwqgcB/QQBDv91QC2fpIUeKAIb9h+egF1/MQCQoIBoAiUoBxSgGCNsIdKgCA6R85KgODvpUCMRuQD7yAaAO4gFCGzZ0IUfcQgIAQAgOsr4f761g/VD7ULs21+FHHJ5Tao+A7RuWzJmkOIdwgxa7YDuKqIzVxWiVIMth3Q7ilC1MExnAAQYjYYqUKmYHOwXHP3WckHlR4s/khe1sO9+o59KMbfb2/qZ2H8ImrsYf3X0s/HPq6NeJSr2Y+hEcIBhHBc6Z81JUA8I2kd1aONtIwuqJDPXPGHRirQw3UxGup4wHE8nZAeqrQGV9TJlkB7iDCPDAk49xUyYzXS/pGOf8xKEZ27o/VTH3C9Dsg0eTyoRMfpyvK4qvwx859l9G/uXehes7545p3Ad5eKfelDtDtKAyhp7qELgVKgl0QCqDRuc8mMFQW2Y7elAaphJGKlAZFBUaGiUKmChamlqIEYqoVMcgkHBbRGzdpeAAXKkYqZVlxqWoorDizVRxWS1HFQtQiqKjihaj4ipQVHxKULUfEO+lC1FHqVLUInqCCo8elQpQgqAQo4qFHtQtRFQtRIUSEEgKihQDomBxwVSIxkbYY9SULUjE9ShQh4VAJUo4qAcelKAcQgHFAEUFRoUEA4oKhFCjiVAUHBKAeEcNihQQAgBACAEAlDSKGOCoKHRGB3dCAfdHfCAY6jFAOPSoAQAgCEd+KFJ3w2IAggBCiQDQgkKVDCI27CgF+gqAoPI3pQD4ukA91SgCLTuI76tGAg36ojuhQDh0EHvoBFp2wIO/oVKIGP0UINACA6xvn+Faz65v2oXat+6cMnlNpWiVFEtIcDAgxCIG5NPEARsIiFsyUgMbxxNI6QhUbY4kYHAgwK4biyM5LedHjGP+Z17Ww7/6jsempy+2UEwRiWTvdE1djDvI+ln459Y1XEZNdmPoRoplLNJOLu8Su2qHyDlKpp/IHE+MCe6rkJvMfkEPpUqjNWNlIGvBLditSxqxOpi95cRElXIYcnmNRLoo/Sqbwo2dyaR03Z114MNsiV9sV5HFZVjHzn230XFqd3oXrO9BL6l4p98VwdSAfCgAiCoMXGw4RQEwY4nZggH2bUqQuCFCJG1AEUoAJiEFSY7kNVNLPOBQGGXxQHCYEHBbRGbhKqIeLNHCelciZk1geCIggjpCpSohKAmK4maQ+JZoUfElAHF1ICoqFBBUYQtRxULUcULUcUKOKFqNC1CKFqOKgCKFqKKUKIkDalBUjjG4RSgDxj+pCAWLDEY9KqDMrXh2zb0ISo3bCehGipiis0NCUKJUAhQQAgKBQDiCgGoAQVGhQQDihajjEQ6EAwVAOIShRqAEAIAQAhRxQpQO4nuFCFd1ACAEKNACACBs8BUKSQd+3d1oBYoBxQBghRw6EAAdO9KkF8w9KFD5+8IBIBoAj30oBxUoB4jYYFAPiO8xhsjigAOB+lx8CgDxesfN9RUHWl7YDdayExoPEPFMR9KOqC7MHkOGWc2ky3jHhiOlpBHzFtMyYiPClCmrpnxllu9h+etoyzUxwVIYygNvqRB4duf89cV1ZDktvKeLo/5nXsbD0dp25bJYdabdH6id7omrksZn0s/Ivq+CfEJf4x9CNQZDDtC7CbPlXbRPk8voSrJ3aMb6dsNiqkYlbNvmSwHhvdW0zj3aGSXIHqI2ZjCpqWygB0KVORQO1tLG8Nbdv2iX9sV5fE3kifY/SCpO70L1ndS8g+6BAJAYp5LZTyNsMFQbOHPG9UpkExw3oShuMuPA0nacUIZFKASAgiCoBAQVAaSecFUVESTsW0GbiA1wgRFDJPC+WYy3Yb2laTBll1Adg4QctAycZG3YuNlRcQVKFqNQo1aCoKFHFQDilAVFQo4oWo4oWo4oWoRQVCKFqPihtShaiLxuShakniO+CFTFwgdfWVkoxh1IUqKAIq0JUgjE8OBKAGvJ8R2PWgLJgoUkuCULUcY9xKFqOKhRoAQoIAQBGCAriQDiEA1ANACFGduCAIoWoIBxUAwelClKAEA9o6whUwHzEBcdgPeQDQAgBACAeEEKG3AqAjHv9PShQigBCggHE9KAriGERFSgDxTDcdyAfAdyVBEFQCEEhRxKAcVAG2HSNhQBHwhAdY30/wB9az65v2oXbtr8JwSeU2mK1QzUrjd9Ue4cVQT2jm4gCPTsPzIJUGUVYbHiaYdRj6itSUKNTLiNo4hEHv8A6StRQicBMlxGMPGB7ixcypmredHin+Rl6+w9PadyWgA2e3fWTvdE1as8vSz8m+rFXHy/xj6Ea4tHQuap8zQgtVRlowOVOKRtx8ac4ndsW+Q4maljQIjpUZEqGThglTdDtLS4Qrbt+0S/tivM4lmifYfSPv3Ohes7mXkn24IAQEuaHAg7CgNO+nlwJ2KgPJmfMSpDOAAAOhALDcqBIBKAiBVISQoU0VQqgjHKWyM3FhwVoZqZYqAgsY4x2FKlqZYoWotmwwULUriI2jvqgcpwLBAxhhiuREMijSYqEVlwNJjisGqggHEoBxUoBkhKFqRxgbMe4lClcTj1KlqEOkxQFKFHFC1DBZoaTDuqGiXENBO1VEbG1wIiFsxUajRVIkmB2YrNDdQxO1QVJMQqmADob1QVEHuqFTHiFk0HEUBQchRxQVGhQQAgCJQFcSAcQgKUAooKjQoIBoWo4qAcUKMHrUA9iAcdxQFjHA7enpQo0AIAQDHz0AIUNvUgJh4QoUUEAYjb4UAIBjEQ74QCQo4ncSCgK4z0B3UVKCoRYdxb3EygOEH1rge7glQItcNoSoJVINChtxHrh81AdY3yButYR9U2I/pQuzb91HXnnNpXIZBAIoCHAKFJIizD6V3zD/QQGMF7S0sJBj4wG9Ym8huGdHjqH+Z4L2dh6P6juWziNntv1k73RNWrPL0s/KPqv+fL/GPoRrj1rmPmWQ4YQVRlmlfhEFaOGRoZbYmJ3rRxyNWGbMFKjdMmxQ3mOz9MIeW3X9ol/bFebxHNE+u+kvfudC9Z3KvKPtxIQEBhnuLZT3DaAgNrNVMIhxFaoCxVv6SoKG4SX9owO8KEK7/gQCUAo9SACCd6VBPCVQaKoCqKjFKW0Rm4NCpxmSEEYBQoIBxQVHFC1MTJrZbntdhF0Qe6txBqQ8ERBiFqhKhHrUKEVxyWU0mPiHSoWouMRgNqqQqOJO+CbrLUIDeYrIqWoWo4qlGgCKFqOKFqBKlDSZJcqokcw4hDHYo1QqkYvWmLfsVURmRkwO7u8KgriiT1LEjURqGgUKEAqBYBAPFKFqClC1BChFAPiKgKihajQDQoIAQDBggHxBAOIQDUA4oKghQihajioC44DwIUIqAqMRDwICgYx6QhSkAIAQDQAgFt6iNhQpOI6obQoUYduIQBAHEKAIEHDFUCO3q3IAQD+egBCiQDBI2GCAriJ2gO7qlAHiHcR81ALh6HA/M+elQdY35jxdax/CR4wiYYEcIXbtvIjrTzmz9Y2HYuQyEUFQioAOIQpjaMSNzgR6nzUBhO1vdC47mY5IPKjx5/JC9nYejtO5rMP7zW362d7omq2uXpZ+UfVarj5f4x9CNeesLmPmjG6EVUYZop+Ad8xaRxSzmmlbIHpWjjkaoEQgoVMC4BUrkjs7S9wNddgMfuEv7YrzeJe7E+t+kZVuXehes7livJPuAUICAl4DmkHEFAbOaaYCRwlbqMgeTzOLhghamuppb5YIMYFRkZqeFQgcKAUFaAIIAVBo6kYIgjTSltBm4tCpgpQAhAQotm9AKKAlwa7aIqgx9mW4scQVUxUYnTG4PbHrWkwZg7jHE10IrMgmOJG0R61C1ImEQDt7UQMocCA4HArkIVFC1La6PdXE1Q0mUsmqmIzfH4PWlbSRGyuI9Ku6KlNfjA+FZcTSYPEQRGChqpiY4jxXbthWjJk+ilC1AQWJI3FicyJiMD0qVLQtsAIKM0VFQBEIAj0IKkqgXEWnpVQL4gd6oqPDce8stFTFFZNVHFC1CKFHEoCg5QFRQtRoAQobu4gBAOJCAYd0qApAEUA0KMR2dKFBAMHvKAsHwqFKjHEYdIQo+LpQFRigGgEgGgERHEbR85CkHqQBFCjBI3qUBfFEYjYlBUXCDsKlQItcN2xWoF1+EIAVAKAEKCAEB1le3vZdq3gcW+M3YYfShdqCrFHVn7zNrMwD10trmu2wHCR4ID5i1uUJUTuz3cTeiPjD6HzlUhUXDH1pDuqP0CqQRa8AktIG/BAmYuKB6wVC1Mb4B4hs4gR3Ny47mZnJbzo8d/yQvZ2Hp/qO6LL/ga2/WzvdE1LXL0s/KPqp/9+XRH0I3ArmPm2aeYQNuC0jilQ2yfMieEd0rkSOvWrNF2x4nAAkg7ltLIcUpOrMrXzjsHhUdCqMnyF8Mx3r3Q7ilTXdt5ztbSuWG1122mMiXt+uK8ziT/AAxPsfpGCjO50L1ndLvFEQvIR9wyQSVTJagBACAwOmS4Eh4iFaAfbyoAl23qKUBbHtfi0xVIWgoCASAUEBo6keKVQaaVtW0Gbg3chkpACEoJABQEFUgkAIAQDGGxAUCpQo9oxxCCpga7snFjjBu1pXJFgyh7TscCtMFRhsUaCZYcehcRsxzAXY8OI2KphiY/iHQRtC2QuKUFSgSdhWGjaYOl8QxOO5SpSBMLYtfgRsWs5CmvLiIDDpKyzSMsVg5KhFC1FFCVHFBUcVC1HHpxCFHEbEBEGoAgFRUcYYKUKMFShRxUoWo4oKjihajQo4lAPiSgKioWo0AIUEAIBxUBUUA0FR9fTt7qFAoBgoUqMMfCoC+5sOxKFqChSgetUDj81QDQDQCIG2MI+BQpEIbVQCABgepAGzf3VCjDnDuJQFcQ3jwKUFR8IOx23cUqCS1w2jvq1FCUA4oAQHV99/wtWfXN+1C7dtfhR1bnvM2gHEg4g7QtmQGB4D/Sn9HSlKARw3oDUU7j4wjs2BaQZb5UtxiWiPSMFaEqaObIeXsMvxvWiG/BcdyNUcluWVHjeDvqT/giHf6F626+o9SvpO4LRODLPbgTDxZ3uiaraWfpZ+TfVkqY+X+MfQjUPqmbAVzpHzDlU0cya9+A70VpURxuMmYWtMYuPeRssYUzmThClTe6hhqVJQsdaEZ2rpb/AF9df2iX9sV5vEs0T676T9+50L1nckz1hXlI+1McvYFTJmgoUaoFBBQ2OoY+U90Tg7EFaQMAcVQZpU50t0Qe6oDeZcxsxvE1ZIZEAlSCQGjqdiqBp5W5aQZrm7lTJaASAEAlCCgFQLhQCgVSAgBACVAKgRAd64AqAgymHZEK1LUns3D1r1aipqA6AA2nessVHEnahamJ7SDxM27wqmUQM76hWpKFt7SIi2AUqaR+f/MPNBzj6ma6ak5O0PzddbjR0N8vDsuZatlJbX9jaqKrdJlPD6iREgM4Iku2lfLyxV+5cag3ndEtB9xDA4a1ai7kY5Eqt6TkpunpVzAmTm0w2HyKx/elquM/9Rjd4f8A+jWjuvl2uPpDJ2s+RZWsUvMg01fVVAzSa2ltTJHZeSTuy43U8sTAO24PWn5i5sO8T3i3t6lcp18XHBdzLc3d6mSh9dor3D5eoRQlQihRxQpUVC1CKCoRQtSY9alAPiI7m8LSBkDsBDYqBmDhsUaCI7iyaqESjKUHDuKFHFQo4qio4oWo1ClR+YgCKlAVFCjQAhQQDBggKiCPnKAcdyAcelCj2dxAWDu3KFGqBqFqOOHcQB3EA4lCjBClAEcSDgR3wpQtQgNow6xiEBJBHcKAZxAPRgVQJQAgDq8CpSmvcMAYQ3KUA+Jp9c2Ed4UoA4QfWuB6jgVagkgt2iCA6svx/vtW/XNw/pQu3bpuo6tz3mbTELkMVK9cIbx631FChGIjvHrvVVIVTmEwjcWlVCpq1SMhv65L+uHz0eYsc54394L1j1tpzqge426hHEYAT8P4TOSxmfSz8p+ror5g/wDGPoNY0dOPWuY+ZSoZmk/pKFTMu0Y+FZDygAI7Vak3UUBuQjKAVMnael39e3WP7BLx/pivN4jmifW/Sfv3Ohes7jmesK8pH2pEvYFSGZACAEBhnSWzmkHbuKA28UD95ACtRUyCiDTFzojqCVJU1stgY3haYhQGRAJAJUho6nYiBglLSDNc0YLSMlIAQAgCHUgyBwoQREFSCQAgJLUAoIAQCVIKJ3IKh3UFRqFHEpQFRCFGqWpw3UfNUvI+n2ec5TpzaeXlSwXK7mc4cQaaOmmTh4sDxYswAGOxcV+e5blLQmdjC2+8uwjpaXWfG70T+WRVZ21f1CrZTiLLZaO0S7nOJ4eK5VD6qeOJ2BIFE0uMYgER9cvD4RD8cpciXl6D6j6guUtwgs7fo/qj7J0uo2n1dXC2UWesvVlxLuAW+Rc6SZP4owh2bZpdGJhCC9pX7byby1o+aeFvJVcJU6GcwJK5KHBUSpStqgEhRxQtQiUFR8RSgqEe+pQo8ClBUcELUmB3GCtQMOd0pUo+InassBFQ1UcULUcUA+IqUBUVQOKhalAoWo0LUFClRSgGHKUKPrQVGhQBQDPVsKAYO4oCo/NUAwYjDdsQpYMRHfvQDQDBgpQtR78ELUEA0KM4iO8fOQhPcwUNVKDjvHfCUFShwnZv/RsUBJBHWOlCiiqQEAHpG7aoUO5sVIJClBzhsOHRt+epQHWN9fIN2rBMYWkOHjsP6gbiu3bT3VQ6lxreZtPYl2Mp7ZvQBg77E/QWt6mcwYiHNMCC0jccFqtSgTAh42O2jr3oC5JAnMG4xx6oKojNWcCtEIb69n1w+eksxqOc8ce8F6p6205vb8LdQ9yf7pnKWcz6T8s+rv57/wAY+g3FvzlzHzBkEEIZejeFkBwlUULET3kMtlhDLO1NMCPLLru+4S/tivN4jmifW/Sfv3Ohes7iePEPcXlI+1McvYqQyqgEAIAQAgJOxCGndOZLOLh3koCHVjBsEVaAyyp7JuwwPQo0DKhDRVOwKoGGTtWgzcQMFSBBUUEhAQFIZBCgoCCIKkEqAQElASgBCCQAgGqAQBFC1KBQHk3nircwSOWLUyhyxZ6y+Xq/09JaZFDQU02qm9jV1cltU/s5LXOg2R2mMIBdHiTpYaXLQ9bgkU8VFt5qvqp6z47ctXKhzAa5ZdvmW5WYa7S3SRl0E6/vuUqoltr7g2W1kJdA0yXVTpTIfrr2sZE8LuIuC8PC4S5fTSyR5T6jH8Rs4VpyVZUyUz06eReXIei88eidvFFZZ9bp7qzJv17ppHEyxXm2+Qy6qa0EkMq5VROEsu2NDpZEfXPAxHcucHklWMqvooefZ+ooSlScGlpTr6kbDyZc2Woul+pdJy8a41NwqLPW3PzFbpl6cXV9hurpnZy5EydNPE6nmTCGQc4hkWuYQyIPFgcZK1Pu55s2XkZzcT4dC/bd2371K5P7lt0H3OX0J8iEUFRxQtQigqEUFQigHFQtRxQtQigCKhSxB0CFqhKhwncpQtSSSNqlDVQBUoCooWoRULUaFHFUFcXSpQFRiAhRxUFRxQ0mNC1GD81QDB6UoBqFqUNnWEAbcfmIUYO75qANiAsOEeiIUBUUKOPSqCo4DqUA4qFqPd9FCgMDjsKEJ2EjeDEIUnFShajBSgqZePARxHTv8KjRRwa7YYFASWlu3Z1bEqBA4w3HBUDG8bCMQoUSAapDqq//AOF6365v2oXcte6jp3PeZtHzFvMYNQ2e4NLXATGnZxYkdzoWd3lNVJHA8FocWl0IA9PdC1QVExrmFjyPFYY8QxEO8qiM1Yc1wi0gjqWiEt9ez64fPUeY1HOeOfeC9U9fac4t/wDg6iB6J/umcpZ5ek/LPq7+e/8AGPoNe3o8C5z5cygQgoDMDuKyVMsQhDagKhDrBVMstoBwUJQ7R0wEK26x/YJeP9MV53Ec0T6v6UX47nQvWdxOHinuHFeUfamKWVSGo2hAKCAUFQCASEJcIgjpQGyT5cyW4x2HYQtIpp8VQUyY5hBBhBQG7088zRAjEb1loyFQMIqoGCUMVoM3FqEGQqCUKTBUy0UhAQAgBAQUAkBJHQgFAoQIFUDAQDgFSCghSUICASAw1FRJpZT59ROZTyJYjMnTHBjGg4YuMAFW0lVljFydEqsmmqaesksqKSol1VPMiGT5LxMYeElpg5pIMCCCommqosouLo1RmoBVIfnY9JFRUuW+aideLCWUFyuFis94q6inAY9tdLMyS2aYfT8FPLMTjsXy3EklfdOY+74LJywsa8/pP0QUcyfNpKWbVSfJ6mZJY6okAxDJhaC5sd8DgvpY1aVT4qdFJpPJU1MVSVFFUVFxJQlQioVDiqaHFSgHFAEUAbULUA/gwIiFUDIJjSNsO6qAdAgEeFZZUyFk1UIoUqKlAMFClRVFRxULUYPzUKOJClAOKUBUVC1KBj3kLUcf00LUNyhSgYFAOPzNqUA4x7vQoUYMdvhQo90OjYgKBiAlCDj30LUoH5uEUARQowUoCwejD5yzQtQcIwOwjpQpBMDAiHdVAsEoCgdo74UoBRShamRswjfHqKjQqVFj/wBSfmKZUUHMcIOAj1hKgg/MVA4qA6sv3+F63d4zftQu7a91HTu+8zZ4LkOMahRx2IUCSxwc0kB22HzUBPauY48TQ473DxT34bVagzyqiW+ZKaXEOLhAO34+BG8hY5zx52sv6of4N4/6XpXrVPX2nPLdjbaL+Ee6Zylnl6T8u+rV/wB5/wCMfQa0RC5z5V5DM0qMhlUBkaN4PeQplhgoUoCKVMyR2npj/Xt0/aGfbFebxH3Yn1n0p79zoXrO4jsK8o+0NMzAnqWzJnHgUA4nuoAj3kAiR0ICUICAlzWvEHCIQG3TqIjxpeI+pWqlFLoXGBeYJUVNbKlMlbBj071KmSKggtwVQMEnatBm4N2IClQTBUlRKFF1KmWhoQFAIhUGyXLMeX7LMZJvF+t1qnTW8UuVWVUmQ5w6Q2Y5pIWJXYRztI5YWLk1WMW1zJs1Nuu1qvEl1RabnSXSna7hdPpJzJ7A7oLpZcIqxnGWZ1MztTt5JJrpVDcId9aOMSAaoEgGqBIQklBQhACEPC3pCdHLxq1oLU1OWaObccx6e3BmYqO2U7S+dVUrJUyTWSpbACXOEuZ2oAxPBARJAPncUsO5aqs8fRynt8BxSs392WaSp5+TYeU/R282eQ8r5IOiOpmYqXKc+0V9RU5HvVxmCRQTqatmGdOpJlRMdwSpjZ73vaXcLXB8B4w8bqcMxsYR7ubpo2Hpcb4ZO7Lvbaq6ZUs/Tz6NOY+lOofMVoppfl+fmLNmotllUzJfHS2+iq5NZXVZh4rKalkOfMmE9IHCNriBivUu4yzbVXJebKeDY4biLst1Qa52mkfFXSyy5p55OcCs1HuNtnUeSLPdKS735rngsobTb4Nt9vDoEGZP7ENcG7SZkzcvAtRljL9XmzvoPrr9yHDsLup5UqLnk+X1n6FYr6ih8IImChd4mKpam1m+WVlybZnXiiZd34stRqJYqSOHjwk8XGfFEdmzFYdyNd2qroORWZ7u9uvd00yazdloyMEKUARQtRxCCoIWo4oUcSUoSooDGI2oCRhsihUXFZN1GgqEULUcVBUYKFKilAOKAqKhahFC1GoUoFKA2udf7FT3GVZ6i9UFPdp/D2FrmVMptQ/i9bwyi4PMd0AsOcU6VVTkVqbW8k6aaG7g+ArZkcd2/coKlR39GBQouvwKFKjHuoCg7cUKUDiQUQZQKUIHc74UKVtx3qgUUFRxQtSmndtB6VmhajBBEOj6U/QKlC1EW9GPUdoRMEgwxiqAJgcBAHEIAj0pQDB6FKFMjHOEQDBShal8bHjxhCG8KUAiwwi08Q6tqFOqL+f771v1zftQu9a91HSu+8zaQ7+gt0OOpUQhRIUoiLCPqcR9FQGJwi0HvHvIUxyx++Kfqms+eFlmo5zx/wAH+ZuFetsPX2nYlv8A8HUX8I90zlqzy9J+V/V389/4x9BuIIOBXMfMMytGHT0IZMg3KAytMEJWhnbiFlm0ZGhAdnaZFra26FzgB2DMTh9MV53EfdifVfSvv3Ohes7fMzi9Y0u69gXl0PsyQ0AkkiJ3BUFxG5CBigCCAfCgCENoQDwQlAgEAoKlEhBQigNDVEMhE47ulVA0suYe53FyJEZrpc0jarukNSHAqNFqNDLEhaCI60DBDJtt5vFqy9ablfb5cJFqs1npptZdLlUvEuTIkSWl8yZMccAGtBJWZyUVV5jVu3K5JRiqtnwt1v549aeYPOp0r5Z6O7WPL9dUOo7ZVWhr2X68CJY6e+eOE0UgghwDS1zQOKZMESxvz+Ix1y9Ldt1S5s7PssHwmzhYb92jfLXMvLSbrlb0V2qmapQvWp2rNty3ebgTNrZEimn3+qaS3Dtp0yfSNc+IAPC9w6HFat8KuSyyaXX5azjvfUNmGSEXLqW3qOHaj8h/MPy3UNRqbpPqBNzNJy7LfWXWry6ai03anp5EHum+TCbME6W0RL2tmOMAYsLYw47uAu2FvxdaaM5zYfi+HxT7uSo3yPM+b+p7q5FOcir18t9dp9qG+TL1Ry1SeWSbnKY2TKvVA1wY+cJbQGsnynOaJjWgBwIe0Q4w30OH413fwT970nj8Y4WsP/st+6860PZ6z6K93YvUPBEQOlUgkAkBBQCQAgoCCg4FUh4V1k9HroNq1eKzM1LT3DTzMlxnGoudZl58plLVTXkl8ybRzmTJYc4mJMrgicXRJMfNv8MtXHVfhfVqPbwvHr9lbsvxLnz69p0nYfRRaV0dfJn5i1KzNfKGVND32+lk0lD2jQY8D5hbUGB2EtAMNhBxXDHg0a5ZN+b+p2p/Uk2vwwSfO6+pH0W010tyFpDlimyhp3lqky1ZKc9pMk07SZtRO4Q0z6mc8mZOmODQC97iYADYAF6lmxCzHdiqHhYnFXMRLeuOr9HQc9IXMdYgqFOrtZdVLBorptmnUfMbuOiy9Sl9LQhwbMrKuYRLpqWXH6abMcGx3CLjgCuDEX1ZtuTO3gsLLE3VBcufmXL5aTwF6P7IGYtQb7nnm81Qebjm7PlZVW/KU2Y0hkqla4S6ufTtLncLIsFLKG1jJb27HLzOGWnOTvTzvN69h7vG8RG1COGt5Ekq+pevUfU5e0fNHxF9LDnLynN2k+QJVRhZ7TXX6upm7C64T200hzjsi0UcyA3cR6V8/wAYnWcY6F6f6H1307bpalPS6av6nCcuei51UzBl6w386h5Yt5vdupbgaCbLrHTJHlMls3snubKgSzigSFxQ4VdnFSTWVc+w5rvHrFubi1LI2uTk85vP/hQ6p/6z8qf71Xfelr5Rd0rr2GF9Q2OzLUtpzLTv0XufMsZ+yVmXMGoeXLhY8u3233O7W+klVYnz6ekqGTpkqWXyw0F4Zwgk4RW4cJuKSbapXn2GLvH7Tg1FSrTJmz6z7TxXunylRh7YwJxXIjLZcVRUMFmhUye4sUN1CKBMOJQ0eRucfmbkctenNPcbXT09yz9m6dNoMmWyoP3NjpTA6orpzBi+XT8bItBHE57GxAJI6WOxXcRyZ3m2np8MwPiZ/i91Z9h8v9N+VjmY5zLW/VHU7U+qs2W7zNfOsE++mfVuqgCW9rRWyW+VJkU4MQ0gsB2sYWniXk2sJexP428nOe/fx+HwT7uKy6FydJWoei3NLyIU9u1DyPqhMv2QqWpk09xNG+c2ilTJ03xZVfaah0yUZc0gNExpJi6EWEtJlyxewn4k8nN6xZxWHx9YOOXQ/Uz66csPMBaOY3S23Z5o6VlqvdJOdbM32JjuJtJcZLGuf2ZJLjKmNe2ZLJxgeEkuaV7eExKvwry8p87j8G8Lc3c6eVPy5TzZz3841y0FoqDTrTp0oal5noTW1F6mNZOZZqB7nSpc1sp4c18+a5juAPBa0N4nNMWrqcQxjtfgjnfLoO7wrhyvf7J+6sy0+w8cZM5DOZPmDs1Pn3WLVKdl12YGtuNtoL/NqrxcS2cC5kybTdrLl0wLHAtYH8TQeEsZCC6Nvh928t6Tz6c56d7itjDvciq00ZjjGouhXNVyMy6HUHIuo9Td8h0E5susuNpmzW0dO+dNHDLuVoqHPlGXOeQA4B7eLaWuLY5uYe9hfxJ5NK9ZyWcXh8ctxrLofqfkz628pfMbRcyWl0jNM2llWvN1jni2Z1tEgOEmXWNYHtnSOMuPZTmEOaCSWniYSeGJ9fB4nv4VedZz5/iGD8NcovdeY6R9IXoxcM1af2vW/I7ptv1L0Qmtu9Lc6SLal9rkzBOncLg4QdSvAqWkgwDZgAi9dfiNjej3kc8fR7DtcHxSjN2pe7L0+0795UdeqLmF0fsWcnTJUrNNB/evPFul8LexuchreOY1gJ4Zc9pE1nQHcO1pXYweI76FXnWc6vEML4e60vdeVbPMelY4R3jau0dKpYMUAA7lChGGCFqUDHuoUoGBEdygK3/OWiDioWpQMdu3pUoB7cDt3HpUKLZ1KgcUAH1x/VBQow+GBxA2R+gpQtS/Ffvx+b+moWoi0hp2QGwq1Bj7mxBUcYKgYwIMdm5QFfTFvTs+goUYJBwMCjQqdYX2oabvWsnShMaHNg8YOHit37127cXuqh0rj/Ezaux4sZDxOG9gwd4D9BbTZmqMMYGBBB61oDigqZGuAIB2HA9w4FQpjH07TtGPfCyUhn6/IP8A5xvzwo8xqOc8jcP+bOFeuextOd2//B1F/CPdM5LPL0n5X9Xfz3/jH0G4tC5z5ehmG5CGUQ3qFMrYKFojJ3wgaNJPrJMnxZk8N/UsxcVpRbOGdxR5TsjSiqZNuF4MqU79YlxmzCST4x3bl5/E40jE+q+kZ71y70L1nePju9ce8vIPuS2sQhk4UA4IAggBACECCFFigCKAe1CEwVBt1bLc4Ag7NyqYNFLaW7QuVMjNY1aMmaMFSGZkSMVhlRayUW1UMAEJQ+P/AKUnXavs9ty1oNl2udTOzHTtvue3yXwc+iZNdLoqN8B62ZNlumvEQfEl/SuMfF4rfeS2ul+o+n+n8IqO9LPmXrfq1nobkF5cLbovpVbs532hDdStSaOTcLxPnD7rQ26aO1o6BgcAZZ4C2ZOEI9oeF0RLbDs8Owvdw33nfoOnxrHO9cduL/DHrfLqzHvhrmuEQcF6J4YOa17XMe0PY8EOaREEHaCEeUJ0PldpryHZ50q5oDrHljNuX7ZkKhzDX1tpyxIfVms80XFk5j6N7fJ2SmmW2cWtAc4Qa08QK8i1w25bvb8WqJ89aatB9Lf41avYZ25J7zjzU3tOfSfUjt3L2aHzJkluLgSVCloQxTHEYBUGPiKoMjQTtUIXBQtRbFQKJUIUDHaqCVUAVIJAIhAfFb0mWf7tnbUjTDl0y04zJjJ1LcbhTmIZOut2mGkt8txET9yluccG/wBV3kYfPcWvOdxW1yeln2H0/h1btSvPl9C9voPrxkHJlq08yTlTI1kliXa8p2qltdHAQL200trDMdEk8TyC5xJxJJXuWbatwUVyI+XxN93rkrj5X5ajli5DhPztc0rpmtnPhPyXLk+V0L8x2HJkiTLLg7sZfYSqzic0xHDNmTiSIcLe5FfLYx97iWlpp6j73h6WHwUZPki5a/xH6IZbJcmXLlSmNlSpTQyVLYA1rWtEAABgABuX1KVD4Ntt1ZkCEGhqoYpQbxJAO1MxagC4YNOzarUFdoSIEbd6VBcVg1UQKAIgqUKmeQOZbk4yZzM3WxX3MecMwZdueXaB9vtkm3mlmUQZMmumvmPkzZBmF7iQCRNAg0eLGJPRxeBV9pttM9XAcUlhYuKimm68/l5j1JlewUGUstZfytaZTZNry3baW126UxoY1sikktkywGtwEGsGAXbtwUIqK5EdG7ddybk+VtnlrnuzpljKnLLqPRZhq5DazNtE2z5btkwsM6qrZ02WWmVLcQXdiAZriPWhsdsF0+JTjGy087zHocHtyliE1mVa6mjzd6KOw3mg0u1JzBWU02RZr/mGnlWWbMiGznUVOW1D5YO0B01rS4YRaRtaYdXhEXuyfJkO99QTW9CPKk+umw5xq1yI3nVPmRo9cblqRST7C29WKsq8k1NvmhzbdahTtnUcqobUOH3USXGPA0cTySOnd7h8rl3fbVKrUceG4vCzY7tRdUnR859IV6p4dTz5zYXGyW3lq1wqL/MlSqKbk660lMZpAaa2rp3SKFoiR4xqXyw3rgurjXFWZV0f06zu8OUniIbunq5eo+cHokKe5tq9cqsS5ws75NgkunGIkuqWur3Bojg5zWOJMNgIj64R83hCe9LRRHtcea3Yaavy9B9nKykpbjRVdvrqdlVRV0mZT1lLMHEyZKmtLHscN4c0kFe1KKaoz5uMnFprOj4ZcoN9q+W3nTz9oHXVUz5L5suNbYKWWSXM8opS+rs1S/iIPE+QTL34zccBEeBg5uxfcHmbpsPquIQWJwquJZUt7avLQfdgEd7evfPlajjA9zehSt3ED3VAMGPd3IUIoWpYMRA7dxUoKlxwEehC1BUg4wQpXFDaPFKjRSoiHSNx6FAGzr6ChRO2NPRggROwoUIqUBlbNI9dj171KFqWWNdi0gdI3fpKZgYzFu0QPWqACAZOLXfowQojtKA6lzA4i8131zftGrv2V+BHn3n+Nm0h+IOxbcamFI1PlDnQE0CaBsLvXeFZ3aGqgA13rHQP1LsPAd6tBUCXDAtIPQpQqkJzh2sfqoE98LLRqpEsnt5P7Y354WZZjcXlR5M/k5eueztOcW7/AAdRD+2PdM5Szy9J+WfVv89/4x9BuLVzHzBTp0uU3ie8NCtDDZjkVsufMdLYHENEePce4rQzvGCbc3hzpcmQeJpI43KqBxyvUyGH9+1J8eaQD9K3ALaSRwuTkaqRbI4uBJ6So50Krbkdx6V0gkVl1w2yJf2xXlcTlVRPsfpGG7O50L1ndgbBeSfcjggBACAEAIAQgkICAEAoIUMUBpKk4Kohp5QiYLaIzU9iNrcD0LSZCmyoYvxRsFF7G/Td5EQxme3oJWt0GRrw4RCjQKHWqokqfnD5kmv1Q9IFVZYuj5dTQ3LPOWspy6d545LabioqN7DCMA5znucOlzl8tiU7uJa0yp6j73BNWMFGWiO9/wDyP0Wtp3Na1jZYYxoAa0QAAGwABfVVofBt1NVKYWtgdu9ZbIZFAY3SmuMSrUC7Jg3JUGnrn1Eihq5tJJE+qlSJj6aQdj5jWktbhDacFmbdHTOatpOSTzVPmf8AnG8/f/dHoP8Af5vvxeR4vF/D6ntPo/lvD/jf+6OwX5xnP0f/AOo1B/v8334njMX8Pqe0fLeH/G/90dgfnGc/X/dGoP8Af5vvxPGYv4fU9o+W8P8Ajf8AujsOe6Ya5c5eZM/ZXsWf+Wyjydky5VglZgzLLmTXuo5HC49oG+VP+mAGwwjFclrFYmU0pQoq6HtOHEYDAwtylC7WSWRVWfUe/l6x8+KAQCgEII/MQEoAVAKgEIfn5ypVt1X9J06rq5cuolUuoVzdS9oONpl5UpqjyWYOKECG25jm9Bh0L5eH+3Gf8vR/Q+6u0scOo8n4KeeWT0s/QGV9MfCmkraunoKOqr6uYJNLRSX1FVOOxsuW0ue49wCKSkopt8huEXOSis7Pys5IzZq1fddLpqnpPlm6Zo1CF4uea5VDb7ZNvU6T5bOf2s+bTSZc0lrXVQBcRAOLd5C+Otu5K5vRq5VrpP0e7G1C1uTaUKUyunmPa/5yfpKv9V+a/wD+Pqv3mvQ8TjdD/L7DyfB8M0x/P7Q/OU9JV/qvzV//AB9Ve808TjdD/L7B4PhmmP5/ae/uTLPPMfn6yZ4vHMNaq/L0+krqSjytaLjYX2OcWNlvmVM/gmSpT5jXF8toOwFrt+z0uHzvz3u9ryUqqeo8bi9rC291WKPPWj3tFOVntgEEYGIXq0PEqNShaihDYsuJpSFFZNVGCpQVHFCh3MVC1AoKnmTmotPMJfcj5etPLlcW2TNlRf5T79enVNLTtk2ttLUtewmqY+IdOfKP3MF44eiK6WNjdlFK1nrpoenwyeHhNu/mpkVK5T4ja96M8yeQr9a9Q+Ze0XjUrK8mqly628MvZqaZwecKXylgmvomvIAH3JgOxnjbPBxFi9B71xN89an1WExWHurdstLmpTqyH2n5RddNI9YNN6S2aW2RmSG5IkyqK56dHh47Y2ZxGW6W9oAnS5pDiJsOJzuLjAfFe7gcRbuQpFUpyHy/E8Jds3N6b3t7l8sx6wJK7p5tTTXC5UFpoaq53WtkW220Mp0+tr6qY2VJky2CLnzJjyGtAGJJKzJqKq8iNwi5ukVVs+CPNvzL5l5tc82TQvRC21l3yfJugZQS6YObOzBcGAtFS9p4RLpZI4nM44ACM2ZCDeD53GYp4mShDNyc59fw/AxwcHO4/wAVMvMtB9cuV3QG1cumlNsyTTzZdfmCsmG55yvbBAVVxnNa14YSAeylNa2XLB3DiI4nOXs4PDdxCnLynzvEMY8Td3v7VkXlznowFdo6VT8/PP5MOmPOll7UC3y5lPVvo8tZtMyT4r5k63T3Uwc3EYwoA3buXzfEE4Yiq5n5aj7DhLVzCqL50/Lzn6BJU6XPlSp8h7ZsmewTJM1piHNcIgg9BC+jWVZD5FqjozLGI7iApp76ANmIOHSoWpUYiPhChQBOIQGRpi3HpShalAwwOzcUKGzagHHDuIBgkbEaLUsHo77dx7iyWoH1phuOI6EqCCVS1GCoUO4gKBMIg4t39SAyCaCIPEetZoUCzCLDxBKgn6Ud0qgZ6eoKA6hzCf79Vw/Vt+0avQs+4jzb8vxs2cOXLQ46lxUoWo+JShqpq6aY5z+GJgATD1FUhUyzpLZmLTwuGzoUcSqRpA17aiTxNwM1uO0euXHKOQ5ISynkzi/zZFeoe7tOa0M0Mt1GAYn98YfwmcllZ+k/Kfq6X/ff+MfQZu1nzDBo4B1DHwrsJHykrhQoi8xdEk7ziqcbbZq6emEp8QNuEVJMttZTM2la6Y4w2mMVVLIZlCrN0k0oAHi99cbkcsbdDXtlNA2LDZyqJ2bpuAKy5j/zLPtivOx+ZH1n0sqTudC9Z24vNPsgQEEQQCQAgBACEEhAQAgBAJCGjqYQ+iqimllPbEYraDNyYcARihCiSQencqShoHMfxQ4TFciZC2yHHE4KbwM7WhghFFlDMgWzJ+b3Xd8jTX0hlTf76zyG1WjUnLuZ6qfMdwsNG+dRXB80PdhDhLonYCCNy+TvvusU2+SVeup99hV3+BUVywp1UP0ggggEEFpEQRsIX1lEz4F1QYbFxyyFR09r3q1btD9Jc56lV7ZM+dYKF3mW3znOa2ruM8iVR054PGg+a5vERsbxO3LrYm+rNty1dJ28DhXibyt8nL0Hn7k45rc38z8vOFVd9NqXKVnymKaT8oKW4TJ8uprKgvd5OyRMkNI4JbeJzu0MItw8YQ62Bxk77dUsh3uK8Nt4RRcZNt8j2nuAmC9E8YwTp0qnkzaifMEqRIY6ZOmO2Na0RcT3AEbSVSxi5Oizs85fng8sP+u3K/tr/wAldTx9jtek9H5Pi+x1raH54PLD/rtyv7b/APJTx9jtekfJ8X2OtbR/ng8sX+u3K5/hf/kp4+x2vSPk+L7HWtpveW+ZzQDON9tmWcrar2C+X+8zuwtdppKgvnT5kC7hY3hxMAStRxtmTSUsr6TFzheJtxcpQolzrad7Ltnnm2XqgnXWzXa2U9a+3T7jRz6WRcJYJfIfOluY2a0BzDFhPEIOHdCzOO9FrNVHJanuTUmq0adD5i/+HzrP/wB+DOvtK4//ABAvI+Vy+I9XtPoPn8PgrX/8Q/8AD51n/wC+/nX2lcf/AIgT5VL4j1e0fP4fBWv/AOIv/D51nP8A/d7OvtO4/wDxAr8ql8R6vaPn8PgrX/8AEP8Aw+dZ/wDvvZ09pXH/AOIE+VS+I9XtHz+HwVr/APid+cuvK3qDojna6ZrzXzF5h1dt1wsc+0yct3anq5UmROm1NNPbVtdPula3iY2Q5gAYDB58YbD2cJgnYk5OdclPLKdHH8UjiragrajlrWvTzLSezV6J5B+e3lRneQekRqaS4U7KytqMz54pRVPdjJntprm981vE2JLhLczcYOPcPy2AyYlV0v0M+74tlwMqaI+lH6ESvpz4M8383WcW5D5bNYb8Kp1HUTcvT7TQT2R7RtTdy23ySzhxDg+oBiNkOLcupj57lmT5qa8h6XCbXeYqC0OurKfO70TmTXOqNX9QJzG8MuXbsvW2ZAFxLzMq6sR2gDhkd3vLzeDQ/FKXNTX/AEPc+pLtIQhpberJ6z7OQXvpHydSSOhVoJkERjEKIjMZHBi3buC0mQ6L15081K1Ly5ZrRppqxV6QXiguQq6+90cl851TTdjMl+TlrJsmA43NdGP0q6uMs3LqSty3dZ6HD8VZsSbuw3k82Z01nlU8qfNtHhHO1ez0/vCf79XQeAxS/wDtetnqriuCf/0LVEf5qPNt/wB9q9+0J/v1Z8DifivWzXzTBfAWqI/zUObf/vtXv2hP9+p4HE/Fetj5pgvgLVE9W6B6calaaZbvFq1O1Yq9XbvX3I1dBe6uS+S6mpuxlyxThr5s0kcbXPjH6Zd3CWbltPflvHl4/E2r0k7UN1LoVdR3tFdo6NTqDPOv2jGmt3Fhz3qRZcs3x0uVOFnq5/757OcYS3mUwOeGu3GENvQuvdxdq06SlRncscPv3470I1XmO3zj3l2DqVNlzBl+zZssV3yzmK3ybrYr7STaK622oaHy50ic0se1wMdxw6DisTgpxcXmZyWrsrUlKLo0fAz0fM2qyhzgV+VLXVvqrZUUOYbLXTmuBbOp6JxnSpjsWgxmUzCCBv2ARh83w1tX0ly19B9nxmKlhZN8lH109Z9587Z2ytp1li85zzneZFhy3YZBqLnc6gnhY2Ia1rWtBc973ENYxoLnOIa0ElfR3Lkbcd6WRHx9mzO9NQgqtnwn1l1/1k56dQKfR3Ryz1lvyAZ5fJsoeZXlciTNb/fK9Th4suVL8VzZeLWmAHaTC1fO38Rcxc9yKyaPWz6/DYOzgLbnN5eV+peVWfVHlc5SsjctthE6mbLzDqJdaYS8yZ1msg8h3C59LRtdHspAc3Z658AXnBob6+EwUbCrnlp2Hz+P4nPFOiyQ0etnrNpxEdi7p5tSgcT1IkWp+f70qk2XM5h8otZMa90rT23MnNaQS1xut1dBwGwwcDjuK+d4r+6uj1s+u4En3D/yfoR97svtfLsVllTGulzJdBTNexwILXCU0EEHYQV71pfgXQj5e+/9kul+k3YGEOg7Vs46lbChajDsYHYd3QpQo48J/RioKlbCYbCMFSsppwPdRCpYO47OnoUZajBh4rtm4qFHvh3lQEUARShamRrojxjA7ndCy0UCI/Xjd0hQpjj3lQVFAMHHoB2oWo9+KhajDi04GCNAzBzZgg6DXfVLLVCkOBbAHZuKIh05mJ489146Ht+0avTsr8CPKxEl3jNmDguShxJlgqGkyuJQ0maukOLz1AeFVCprOLrShagx33SX9cPnrMsxuLyo8hdm3o/xdwd5ehQ+h2nYlot4mW2imQ9d5Qf+UzUsyon0n5L9XQcuIS/xj6Df5VA0Qi1bcz52No1PkjQMBBZ3zXdo002QGg4dwrSZndoTJaMEbFDc5YEAuNnLEyEKVNUOxtOP68uf7Sz7YroY7Mj6f6Y9+50L1nbS84+xBACAgiCASAEAIAQgkICAWyO9AaedN4JbiIkj6nFVA2KZOfMPjOJHQVyJFM0lrjAARWkzLN4kMLR4wxWW6kNRBQoodCoqESgIe0O24qpkaMXZFvrHEdS0pEaPlH6R/lazDqJS27WvIFpfdsw5Yt5oM6WWlDn1NVbZLnTJNVIlNjxvpy94eAOJzCIesgvG4phXP/ZFdO0+l4FxCMP9M3Sr/Ds2f0OueVr0k9jy5lSz6fa9U1w4sv0zKOz6g0Ms1hnU0lobKl19OPuvGxoDe1l8ZfhxNBi53Hg+KKEVC4s2ZnPxHgbuzc7TSbzp+lbD15ffSOcqFnt1RXW7PNwzVVSmOdKs9sslzlVE0gRDWur6ekkgnYOKYB0ruT4pZWZ1822h5VrgWKk8qUelr1VPmLqFqPrb6RTVK0ZJyXl99lyJYKt0+324l76S2SZo7N1yvFS0cDppY1wYAMImXKDi5zneRcu3MbOiWTRo6T6KxYscMtOUnl5XyvmS8uc+42hmjmWdB9NbBpxlbin01rYZ10ukwQm19fOgamqmCJgXuHitieFoa0GDV7+Hw6swUV5M+QxuLlirrnLzLQjt0dyK7MUdMxVFPJqpE6mnyxMkVEt0qdLMYOY8cLhhDaCq4KSoWM3FprOjy5+ZFyq/6mLN/vtZ74XS+WWOz1vael86xfb6lsD8yPlV/wBTFm/32s98KPhtjs9b2l+dYvt9S2B+ZHyq/wCpizf77We+Fn5dY7PW9o+c4vt9S2G/ZW5TeXbI+YbTmzKmltssmYrHPFTabrIm1XaSJoBbxN4pzhsJGIW4YGzFpqOVc72mLnFcTci4ynVPI8i2Hoddw84FAJUgoRQAgGgBASVQfn81Hp3aFeklt9/q5LKe0XvOlvvjKnBrDR5kAlVs+A/Y5lRPjHaWnpXzF7/Ti6vtV15T7rD/APZ4fRZ9xrzpU9R+gFfTtHwp8xvSnZvmWbQ/KmUpDmtmZzzPKdVR2mltsiZOeAOntnyTHqhvXj8XnSEY6X6P6n0X05ardnPQqa37Dn/o4MntyrywWG7PpTJqs9Xm532pLgeNzWzRQSTjsBl0bXNAwgY71zcJhu2a6X7Dg+oLu/id3spL1+tHvUEOEQYr1zwhoQgg7lKFqY+GCyzSEWg7QpUtBBoaMEqQaASFqMFKFGCpQHyO9JzoBeMyUdg10yrb5txmZaofM2eaSnY58xlA2a+dS1vA2PiynzXsmECIDmk+K0keHxbDPJcXQ9p9R9P4xJOzLPnXrXr1nO+WX0g+ll+yNl/LGsWYjkzPdhpJVBV3evlTX0N0EhrZbKoVEpjhKmPABmNmcI4olpIOHJg+JQ3FG5ka5dJx8Q4Ld7xztKqeWmZrXyeVCuY/0iel+WspXvL2jN7fnTPd1pJlJQ32jlTZVvtbpoLTUmfOYztpjAeJjZYc3ihxOEIJi+JwUWrbq3y6BgOCXHNSvKiXJnr6qHWnozuXa/WSfddfM40FRbReLe615CoKpjpc2fT1D2TKm4lrgDwPDGslH6cF7tnATxcKwrr3j8205+PY1bvcxeXO/UvX/U86ekS5irtqLqhctJrJcHSch6a1bqOupJRg2tvcqLKqbOLXEOFO6MljSPFcHna7Dq8SxLuXHFZo+nlO7wbBqzZU370lXzci2nc3LzzqcpXLxkChyjlrI2oFRd6iXKnZtzO62WkVFzrg2D5ribuS2W0kiVLjBjelxc53PhcbYsRok68rybTq47huKxU6uUaLMqvJ1ZzvkelU5extydqH8XWn+Vl2vm9rRLq2nS+QX+1HW9h6J5eebzTbmVuuZLRkWyZltNTlelkVlwffqajkS3sqHultEo0tZVEkFpjEBdjDY2GIk1FPz/1OpjOG3cLFSm003TJXYj1VHf0hdw88/P8A8ysj8uvpB7ZkOjlMq6CjvNhyxU9oRMY6mo2S6m5FzHCEJfaTwW7+HrXzOK/3YpxWlI+0wL8PglJ8icvWj9AAcV9NQ+MqWTER6VClRiI9G1QtQjh1hUVKBjgTj9KVDRTT9Ke91KCowSAY9IVQGCEoWpYdEQOzd1KNFqVH6U7fpT0qFAn5qoCKlC1HHxXdz6KMDD4AA4joUoWpZg4RjH9V6vqrOYpBi0wOC0UIqAsmIB7xQCihSo4d9SgqZBMLQAcWw9aVGinT+Y5TJt6r+xmfdONvFJdh9I3YV6NhtQVTx8TluM45xQJBECNq56HXqWH99ShtSLDwVKG1I19KfEcekqpFqaiKoqNh+6S/rh89ZayG4PKjyX7wXdPpdp3Jl+UHWO2mGMJ/umauCDz9J+YfVFuuOl0R9CN54B0LdT57cJcMEMyRoprYgraOJo0bBAwWzJrmLDLEz7Vk5DsbTkQrLn+0s+2K6OOzI+n+mffudC9Z2wvOPsAQAgBAY0AIAQgkBgmVEuXtMXdAVSbBoZlZMdgwcI6d62oEJl1E2Y8Si4HiwxCjVBQ3NssAYmJWAaWplM28Ij0qpgxyQAYLRGbgzYqC0AkICARCoJQolTJ5b1O5MeXLVm4Tb1mfTulo77PmdpVXuyzZtrnznQAJnCmcyXNJAEXPYXdBXTu4Czcy0o+Y9OxxfE2VRSqufL15+s6ps3o1uVm1VUupqsv3y/tlva8Ulxu88Sjw/SuFKKdxB3iK4VwuynyvznYnx/EtUW6vNtbPZ2Tci5N08ssjLmRssW3KdjpyXS7bbKeXTyy87XvDAC953udFx3ld63ajbVIqh5N6/cvS3pybZyqHUtnDQUQ3aYR2RW4kY4g7DFchkaAEBMQMIriNCPdigElANpiMRswXIkRjgOhWhKnlfWfnL0C0Mr51jzZmmZdc0U4Jqcq2CT5fWySADwzyHMkyXGIg2bMaTthDFdG/j7Nl0bq+Y9TC8IxGIjvJJLS8lfWdN5S9Jpyz5nucq3XB+aMkMnvZLl3K/W2T5NxPMBxPt9VWuYAdrnNAG0mEV1o8Wst0yrze1nan9P4mKqnF8yb9aR72st7s2ZLTQX7L11pL5ZLrJbUWy7UE5lRTVEp/rXypssua4HpBXowmpKqdUeLctytycZKjXIbkYwMNq2YMYdxDEQI2hciMs+VXpQtFJ2ZckZc1rsdK6ZdtP3C2ZndKBL3Wiqm8UmaYNJhTVDjvEBNcTsXicZw9Uri5Mj9Xlzn0305i1GUrL5cq6eXq9B7c5Y9V5WtGh+Qc9mcJt1qre2hzM3GLbnQ/cKuPFj472doMT4rhivQwN7vrKbz5n0ryqeTxTDeHxEorM8q6HszeY3DVzl40e11m2GdqrlF2an5ZbUssf98bjRNkCrMsz4NoamnDi/sWRLgdmCX8Jbuus1WnOzjw2PvYZNW5UrzJ+lHY+UsqZfyLlmx5OypbRact5co5dBZbaJkyaJNPKEGN7Sc58x56XPcSdpJK3btxtxUY5EjhvXpXpuc3Vs310t0YtPCejcuVSOIjtYYPECPmraZKE9o53rGd8pUtBtDtrjHqWW6lSKIWSkw+YqCUICAkiCFDcgJe1kxj2TGtmS3tLXscIgg4EEHaCjRVKh48z5yGcs2frnUXmqyM/Ldyqy51VOy9VTbfKe9zi8v8maXU7SSTi2WPnLz7nDLM3WlOg9ezxzE21Sql0+S6zPkDkS5Z9PbnTXqhyF8ortRkOpKvMNVNuLJbmkODhTTCKcuBaCCZRI3QS3wyzB1pXpF7jeJuKlVHo25Wevmta0MYxoY1gAa0CAAGwALv0ojya1PJV85F+VfMV6u+YLzpb5Zd77W1FwutX57vkvtamqmOmzn8EuvaxvE9xMGgAbgAuk+HWHlcet7T1I8YxSVFPqWw20ej+5RSf+yT/wBfX/8AlFT5bh+z1vaPnOL7fUtgD0fvKJh/+Un/AK+v/wDKKfLcP2et7R85xfb6lsO3NJ+XHRjQ2uvFx0tyb8l6y/yJVNdp3nG41vaypLi+W3hrqqoDYFxMWgFc1nCW7LrBUfnODEY+9iFu3JVS5l6kc81Gz1adM8g5vz9fHQteUrXUXKolgwdNMlhMuSw4+NNfwsb1kLV+6rUHN8iMYay79yMFyv8Ar1Hyd9GxpneM76g6h8zucZDnz6qsrqTL9S9pDJ90ukwz7pVS+MF0JbX9kHBxj2j2mJavF4XZc5u6+T0vy6z6TjmIVu2rMeX0LN1+g+zMV7x8qU07jsKFqMEtdj3CELUqMDD9EFChHb81KFqZAeIE/TD5qgKB4m9Y+gmYooqgcUBYd9KThu6lGipmSMYNO36U7ismiNmBWiVGT4p7yhaij9BQow4gxBgUoWpnDmuHCYDq9ToWaULUlzS3rHT6qqZQB2jcUAooUuOA6yoAJ2IDpHMzoX6444h7ftGr1bCrbR4eKl/tl5chtwqhMEJ7eI7BNGDu/wBK3uUyo4lMCIDiaQ9n1Q3d0JQu8Lj61KGqm6yPFlM7kfDitJDeMvEpQ1vDY8dpL+uHz1mSyG4PKjyj7wXbPqtp3Vl7/AVs+tn+6Zq60M76T81+pv5suiPoRvBC2fPtEERVONo0c1u1bizgkjQwg7oWzLRqmbllmVnNRCIEVlnKdjacx8sucf2Fn2xXQx2ZH1H0x79zoXrO2F559eCAFASSqCUAIQUR0oCXHDuoQ219HNmOLu1244rSlQpLKCaTCY8Nb1Yq7wNfKppUn1jcfqjtWW6gzqENLU+tVQMEnatBm4NVRCkKCEEhAVBJQpKpliQDQIagY0IQ5gcIERVBiMhu6IV3gT2cwetmHvqqQCM9vQ5XeJQsRIiRAnaFlgOEb0Aod1ARDgcHR8U4OWosjR5O51tcq3QnQm+5iy/UimzfmOplZeylVNILqerrGTHvqWghwJkyZUx7YiHGGx2rqcRxLs2vw53kPU4Pg1iL6Ul+FKr59CPmpyJ8nVk1up7jrZrKai/5bmXKfKsdhnVEziu1ZLeHVNZWzmvEx0sTCW8JIMx4cXHhEHeRw7Aq/Wc83pPoOMcUeFpbt+81n0LafSfP3I3y0Z5y1VWCRpta8nVrpRbbcx5fliirKWbwlrJkWENnQjEtmhwO/HFetd4ZYnGiVHpR4FnjeJtyrKW8tDp5I+c/JzqNnTlo5lb5ysZ4uflmVrzep9ppWnGXIupbx0FZTReTLZWs4GuZji9hMC10fIwN2WHvd1LM3Tznv8Uw8MXhu+jnSqujO0/LOfc7HpX0R8WY3sJPE0wcNnWtJg2i+2ez5nsl2y5mCgk3Ky3yknUF3tlQ3ilz6eoYZc2W4HaHNJCs4xnFxlmZq3clampRdGsp87eVDR/WHlk1h1B01mWWszPoHmqa645ZzoydTcNHVy2RlOqJBe2aHzJIEiaWsgXsluHixh4+Cs3cNecGm4Pl9D9R9DxPEWMbh43E0ri5OXnXrR9JhNjsY4r2Wz5uhn2iK42CXKAxloO0RWiiggAhCkoBHZ1oQkqgShQKoJO5CCOwIBKlCJx7iATSYpQVHEKFKGBCFqI4EoWpROMUB4B52cia3a4fIfRXTjLc6myLeLhIuGoefp86nZRyGy5hEmSZTprZ8wSYGe8MZ4zuza0xDoeVxGF281bgsnK+TyR73CLljDxlduSW9mS5fJnsbTTT3LmlGRcs6e5TphS2PK9EylpjAB86Zi6dUTeGAMydMc6Y873OK79myrUFFch5GJxEr9xzly9XMc7dtj04rlOGoR8CFLJ4hHeNqhSgeJvW35yhahHAKgYJGPWo0VMyxiA4YEYkKFqBMRxDvhEAjFUVHFQpbXwwOI3dSlDSZZxgCfrH9PdURSHEgQO87FSCJxQtRxChahHBCmdk3c7ELLRalOaD4zMR0eopUpBMYHp291UVHHAdxCjJxKA6MzSf9ILl9e37Rq9jDL/Wj57GS/3S8uQ2MPhvXJQ4FIzMmFpi0wPUpQ2pGcTGPwd4jvqhs74Uoaqa6XUEcLZgh9S8etKULvGo4lKGqgx33WX9cPnqSWQ5IPKjy37wXYPrtp3Zl0E2G2H9TP8AdM1dWOd9J+bfUy/7suiPoRuy5D54REUDRgmCK0jrzRtzxBxXIYSMks7kZk1bRhisM2jsfTofvy5R/YWfbFdDHZkfUfTK/Hc6F6ztZecfXkl0EACJ24BAIlrdpxQEF+BxgFSGimVJODDAbytxgDSOfARLlyURDUUge9wcWkMGwkrjky0NyWCghBIQEBpqn1qqBp5G1aDNwaiIWqUSASGQVBLooCVSBBC0CCChShkUEFQQoISgiqCVALYqCVSAAgGWg4HEJUHyn9LDRT/yS6Z1suU40cjNz5E+aI8LZk6gnultPWRLfDuFePxhNxi+dn0v03Jb81y0XrPR/ITXWW6cqOlQtPABbZNworlIYA0y6yXcal04OAjAvL+06w4Heu3wyVbEUuSvpOhxuDWLk3y0pqS9R7C7FnX4V36nkn5yecPONto+eu9ZmtT5VKMo37LDqy5h5IfVWumoXTZr4AFplOZ2ZAj6yK+Vx064iTXI11H3vCrTWDhGXKnqbb9DP0dr6k+BEgJLGkxIiqBhrRsaEA8AgESEoCIqEBQEkgLRTHxjpCtATxAkAb0oKjOJUKI/0FaEqSrQVBSgqBQCIQCgVQLp7iAkCEUBO+KAIoVMpxIKUA4/NShahHchalE4A9GBUKOPi9z6KAAUoCmugY7t4UaLUqPC7q+eFC1GcCQPpsQqgEdgUaKZOKBwxhgq0Eyo8JiMWnaPoLJqoHDrB2FVAcUoKj4lCmRrsIHEbwo0VMo4wBP1rvoFZNGIxBgcDvWgOKAcVAOKFqU15YcO+FGjSZqAWTQYYP6FnMUxmLXYiEPoK5wEVBU6JzU+GYbmP1bftGr2sMv9aPm8bL/fLy5DYg5ctDrqRkDgpQ2mWHLLRpMysmOaQB61x8ZpxBUN1NVKqGOwiW/qT9AqoVNZLd91l4/TD56klkOS3L8SPMfvBcp9ptO7suf4Atf1s/3TNXUjnfSfm31L/Nl0R9CN4MDtWzwCYK1MmF4Wkcc0aCa3HuLkTyHCllIB4XAFFmJPIzUCYIbVKCp2LpxMBrbmN4ks+2K6GPWRH0/0u6zudC9Z21AnfBeYfZFBoHX1oBoDBNH0ypDBMAewtLiI9G1UGBtua4YvcB0CCu8DJLoJUs8TozOiOxHIGs2KAEAIAQgkIaao9aqgYJO0LSBuDdiEKVKJCAgEhAQEkKlzggBAAQy0CEBASSgFCKASoEgCCAaAEB0rzB6NWrXrSjNGm1zqBQTbrKbPsd2LS/yK4057SmnloILmhw4XiOLC4YExXXxOHV+248vJ0ncwGLeFuqfJmfQfCfTTV3X70f8Ani+5LzTlB1Xl+7VLp1xyvcHTJVDXvkjs219rrmsc0FzeEF7WuBaGte3iaOHwLV67g5tNdKZ9hiMNY4jbUk+hrk5vYz1Nd/SZ6i6lSJOTNCtD6pmfr5KEmmqplU68PppjyGufJpJFNKD+DiwmTXBgwL2QiF258VncW7CNG/Oefa4BatPfuzrFf8V53Vnzx1v0PzdppqhlbJOeL4Lpn7PVDQ3rNlUHmpNPcb1Wz2vlumRjOe0Brnuj4zy6BIgT5l61K3Ldln2nuYbEQvQ3oe7mXmP1TL7E/NQQAhQQhJiqCC1UDAgoyDIioDG5ke4lQYjKC1UpQaGjDwqAICEd6AxOY4naILVRQjgfHd3Vd4lCwwAxJiVmpaBEDEoUniad62jIFwG9CADxRgMFGUANvcUNE8MQqQnhxUAOGDe5BATjBvWqUCcYoKltMYjp2KMqG04w6UYqEYIWoJQtSweIQ3t2KAoGLYb27O4oUAYmPQqSo4goWpbXQwOLTtCjRUzIDDxSfFOLXLJonYSDu2qgcVRUppx6t/cUoWoNftjiDtCy1U1Uy4OAxw+lf0dRWcxamMxGBwK2BcUNqhSo70BUVAMGGPQoWpnbMDhCZs2B29ShpMTmlsDtadjgiYPP2bZsMyXQdExn7m1e5ho/6onyXELlMTLzehGxtmDpXK0cCuGYO61lo5VIyB3WpQ2pGZrsHHvDv/pLLRtSJJw7qzQ3UyifMkzabhMeHhLmnYYlS46I5LWWS6Tzv24+pP8AgztP0lybx9xT0ne2Wx/eC1/Wz/dM1dZZ30n5v9SfzZdEfQjeCFs+faJVMGN4VRJI0E/hAK3E67SRpJsSxrmCJ6FtEnVrIEuTMcAZh4P1I2o5EjabznaWm0tsuruUBtksx/pivNx7qkfV/TEKTudC9Z26vMPrxKkME2cGCAxcdi1GNSM28vcSYkknauZJGamPicSGM8Z52Do7qNpFRu0oFrQDCMMYLhBkQooBASRBAJACAEIaWp9aqiGnlbQtIG4N2IQtUokICAEAIBFUhKFBAEEM5hoBIQmHT3kAooBIAQDIggEqAQHU+tWsmVNB8iVmoedKa5VVhoqmTSz5dqkS6io7SoJbK8SZNktg5wDYl20iOESOHEYiNiO9KtOY7WDwc8VPcg0nSuXyZsGkeqemvNBpxJzpZbE+vy1Orqmhn2TMlJSTJ8ippiGubOkMmVUoFzHtc2Dz4rhGEYLNq7bxMK0qq8qN4ixewNzd3qNqtYt5uo7UsmVMrZZE0Zby1asvif8Ar4ttHIpOOH1XYsZHvrmhahD3Ul0I69y/cue/JvpbZ8F7xVv5n/SMUL7G590yxZM1UTGVMpvHJFoysGOqZoeDAS58yneWuJxM1sMSAvnJPxOKyZm+pew+zgvBYDLkaj/7nya3Q/QQvpz4YEAIBIRggEqAggEcFCCJCAkkIUk9CoJKBCghRIA6ShCICBiOpCkljehWpBBjR1pUo4BsTsQCDmnYVuhljJA24KkJLm+HYVCknFncOCyiiPrWnuhAKGHzlQTsMUKU7BwI34hAN22O52KAUUoKjBIOHdUoWpkJgQ8bCoWpRgIw+mxCqKKKEAFKFMjXCHC7Ydh6FloqZRJIMR4zNvcRFqLiKtC1KLvF6zgo0KiOzDdgULUbXlvf2jpWWipmbxXtBGwbD0dR6lnMaMZwMDu2rRB7e+hajxHWoWpcYAdJQVKjGI8ChSmTC3Da07QVKFPPWc+E5kurpTuLhmM45e9v3NvhX0GCX+pVPieKz/7M/N6EcYZOXYcToxuUNWycuJxO1C6ahsxZ3TmjcNTx4NYDjtPdKw0c6mHFxOgDtwCzTKa3hudxTmH9WB4CFxXlkZz2JfiXSefIf5pgrsPvqek78y1/N+1/Wz/dM1cKzvpPzf6j/mS6I+hG8ELZ4DRjdgtI4mYHuWkccmbVPe57i1sXHcuSOQ60qtmWSxwYBMhxbVmTOeEcmU1IUNHY+nY/fdy/aWfbFdDHZkfTfTXvz6EdsLzT60EIbPPlVReXkgAnABcsZUIIUVU7EzA3qV3yUNRLpex8dzuN+9yy5VBq2uUBkQAgBAQRBAJACENJUHCCqIYJW0LSBuDdiAtUAgBAJACEEhCVSoEARghGEUMgUBBMUAQQD4elAECgHHpCAkhUCUB19qrpxl/V3TzNenGZ5ZdZs10TqWdNYA6ZImhwmSKiWHYccmaxsxsfpmhcd+0rsHB8pz4XESw91XI8h8Pcs2nnC5BM3X6lsOTJ2esgXqpBqp1PQ1NxstwEoESqgPpSJtHP4IiDy3Zi2Y1rSvAir+Dk8mTqZ9hPwnE4JN5dUlp8sqOWZ15rOc3mQts3TzTXR+4ZPocwSn0l1rbNRVpqZkpwhMY+6VXZSKWW4eKXeIcYceMFqeNv4hbsVqMWuGYTBvvJSzZt5r0ZMp7s5K+UCm5cLBXZhzROp7rqpmqnbIvFXTkvp7dRhwmChpnkAu4nNa6a+HjODQMGxd6WAwXcLel7z6jxOL8U8U9yHuLrZ7ogvSPFBACASEBACAEBjccVSElASMSoUo7ylQJUoKkJgoBHAd1ASdgHSgEFQIhQoQiDHYgMXBCJaYQWqkoLgJ2uSoGGkYQiNxVBfDgR0pQElviw2wKUBGPgwQEkICiIsHS3DvKFEcWNO9pgVSGOO9UDigqZWkHxDv2HrWWilB0R1s2Dq3hCiju29CoHFBUIoaqZQ+OO1w9d1hZoKiMQRDEO9aiAi7HDY1GVDa6OHSoUAUKW15aeo7RuUaqVMzkB4iNvSfnFZzFqYcQYbCtCpTSUKWHA4qAYOMRuUKPYcNhxBQtTzbnSeZea7vwmHjy49f3Jm1fR4KNbMfLlPz/jNymMmuj0I46C1/jSjA75e/vdK7LidCM65imzThisOJyxu0NXKmxPUMXLDidiFw1bZ+1x37FxuJzwumWXNHETuYCYLKicyuGSS/imyvr2/PC695fhZ28POsl0nRMP82QWdh+j/qO+MtQ+T9rjh4s/3TNXCs76T82+o/5kuiPoRu7nBu9ciPnpSoaKZOGz5i0kcLk2aR3G/bEBarQitNja0CAASprdoZOpQFjEdCBnZGnf9eXL9pZ9sV0MdmR9J9N+/PoR2sSACTgBtXnH1ppDUnc0LkUDNTC6c8u4jDDYFvcM1NVIe6YHFx2GAXHJUZpZTKREQKhDAItMD3lQZgYoBoAQEExQCQgIDSVJwgqiGCVt760gzcWjBAVBUARBACAEAkAIQRCpMxKFEqA2KEBDIQCAaAEAIAigIMOhAJUAhCCYqgcFAM4KgIoQIIBEQVKSgBCAgBAKAQC4QhBQAQElQooLRRIBIQR3IEJw6EAkKJUghscoAHrXIUlUhAcWmDth2LSIMvb095UC4zubHBKlIJjuh1LJQ2juKkGzbw7nYKMCbtcz6ofNVKY1SABvQDGGMYHcgLJPizGj64dahQdhiNh9aqhUkFBUruIWoNcWkFRopmBEI/Su+YVkEHxTA4QVKAKFKJjj07VBUUYIymRry3Ed/uKNFqZzwzREYOG5ZzFMfrcNhVA4ww6EFRgoWpYMRDoxUKeX89TAM23kdEyX+5MX0+AX+iPlyn5px25THXPN/wCKOLCdw4gwhsIXaaPNVyhu8l3HLBmDxn4lw29SjgdiF3JlILjLIbGId9N0rjlE5lcSMwnRhA4D9BXE4nOrhnbNLWOMcXGA7yjjkOSNwz0037tJAP8AVG/PXVvR/C+hnfwt38a6UdOw/wA3Lr7D9U/Ud15fmhuX7Y3eGz/dM5Yisr6T8y+pm/GyS0R9CNe5z3YYgdK5KpHgK1LlI4QNuKlTkUEighWMN8KVMboARIVM0KA6VTLOx9Ov67uP7Sz7Yro47Mj6P6b9+fQjsmsntlhrCcXbQOpdCCyn1jNvE8u9bLJXLvIzQtoqphHDK4R0lTfFDd5bOzY1vQMT1ribqUtBUwzG4cQ2hUgMcoDIgE4oCFQCEEhDS1AwVQMUnaFpBm4N3IDIgBAQRBUAgBAJAJDJKpRFUgkIWAoKDghaCIQjQkICAh21AJACpCSYoBgIBoAVAiEAoIBKgSEBAJzgO70KgxcRQD41QW0xUAyoQmCgEhokiC0Bb0IG9AQUKPpQhJQobihCfpe+hSUAiAdqoBrREYK5yDDSOIbjGCtATwdKUFSSIYIUnf3EIU7BzXjfj396hSHtg4w2HEKohIx7gVA8e9uCAbSBEO2O2owigDiw7R60qAxjatEBC1Af0VC1KD4H9ScIKNVKZSOIAAx+od0joWS1MMVSlgxBHfCAcUoBx6FClNcWmIMCEoWpqIiaIjB4+as5i1MUYGBwPQqCwVCjBgYqCp5W1AeW5xvQ+lL5RB6uxYvrOHr/AK8fLlZ+V/UM6Y+55v8AxRxSS4zJjW7tru4F3N08mNypvjZmyBRxOxG4ZeMPbwuxBWHE5lcqaZwfL2HiZu6u6uJwOSNxozvnQ4WR9YIHu71xyjQ7MbpqqOYDUyB/5xv2wXVvr8D6Dv4Odbkelek6s/k9dH9J+w/qO4sugGx26I/CIe2Zq408r6T86+oorxryckfQjeYRwWkeExcJ3q1M0FDGBVIZAIKGQ3qkZXDHupUw1U7D08wrLl+0s+2K6WOzI+h+nPfn0I7SeyU4gva0uGwmC89VPrDA58sTQ4etaN3StKLMtmTygFwAbtMIquDQqZ1hFYKigkMmAjhOGwoCwSUA4dKASpBIKAgNNUetVQMMnaFURm4NCoLQAgBAQRBUAgEgBCElUISAAEJQaEGhQUAiFSNCQhLuhASqCTihBwQDQoIAVICAklAJAJUDggMLmujFUhMCNoQAGxKAzAQwCAagFBAIqFRJVBP0FSC3FQCVAIBFAT9KUAoeL30BJCFEgFGDxjgQtoyyuJvSqQRe0b0KY3EOxCjKTt+igKHjMI3txChQOLGneMCiITAYQ7pK0A2xQEkbEBYMQHD1zNvcUKJ4x4hsdiO6qiEBUgEbvChSD/QQpbHQ8VxwO/oPSstCpkeIxO8eu9VRFMYMMejYqCjtw2HYhajB6FC1Kju3bygGCQcDAhRlM3EJoxwePmqUoWpAw3w6ilAUChTynqC6Ob72N7ZkuHc7FkV9bw7+PHz+ln5P9R//AKFzzf8AijjFP4g4jtd85egonh79Ga1s0jejicimZ2zulYcTkjdZmE7DasOJzRumjmOcxxdHia4xj3Vwygc0btDWUM4Gqpsf6qz7YLqX40g+hno4G7W7HpXpOv8A3gvL2H7j+o7ly4P7xW7+Ee6Zy4lnfSfn31Cv+2+iPoRvMFo8JoIKmGiYKmGOChGOHSqiMY3IZaOxNPv67uXVJZ9sV0sbmR9D9O+/PoR2BxmZFztpJiutFKh9O84i5rfXECG1aM0IbPYZjWti4kwiFG8hUjeV1zQKgwzZrZe3Fx2NG1VEZjaHv8aZ4g3NVIZOIDBo76gEqBwKgHwqgIYFAaWo9aiIYJO0LSIzcWbFQUgBACAmPSqBIBIQSACqQlC1GhkEA0AKFBUEoZJhvKARMVQJQAgBACpAQAUBMPCqCSQFUCRMEUoCuMHYhBgb1AMgKgmCAEAIAQCKgIQojsKpCTgAFQJUAoAUBP0p7qoEdgVAkAiEBjcAYRRARaAWQ3wj4VagHN8Y4b0AodGCAQ6FQNh4XA7thUBYEC9nTs7yAw/QVIP6KpRoCWnhMYd0dSMGXh2sBwPjSysgw7MT3gtAk/N6VQTigCChTKx0fFO0etj85RoEvbwmI2HZHd1ImBA4Y4EKgoHwqFqOPQhQ291ClAmMVAZI8eB9duPSlAKJCjRanlTP0XZzvQ/85Lj3OxYvruGr/RHy5WflP1G/+9d83/ijjXcXpUPnhhxHUrQFiYQs0NKTRkE3DasuJyK4BmREDs6FlxNq4FK8y6umIxb2zO94wXTxNv8ABLoZ38Dd/wB0elelHEY/5vivB2H9B/qO6MtiNhtv8I90zVw8r6T8/wDqH+W+iPoRvfCrU8RiIWjDRMBvVMNBBDFCodKBgBuQwzsLT0fvu4/tLPtl08bmR9B9O+/PoR2D5FOc533XhYSSAOtdLfPqaCNGyS5pJLw7B0dibxKGvayTLaC1rWBTKxkGJrCYR76brFSXTHzMJIgN8w7O90qAxgS5USPukw7XHFUD8Zxi7vIZMjW/0UBcAEAIAVAIDSVHrURDBJ2haDNwahClQCAEBCoBAJCAgBAJUyxIAQAgGoURVIxIQgmKAAIoB4Db4UAoIBKgEAIBIQxTH8OC0kDTF5K1QhCpS2lx2YqMGsYCBjtWSDKhSVQCEBACAEBBQoiNg6UIS7aqgJAJUAoBEeKe6gJdgAgEqAQCG9aSI2NaoQFAYnEYrJSf0FCgenp2ICyT4kzeMHIDG8QeRu3KoAP6CEGqCSMfnIUtnjCG9uLT9BZaBMwbHgYOHgKqZTEqAQgIUUOtAZ2kPBa7bv729ZpQGItLCY7VqoFiMN6AaAEKOKhalAoCweLDf0oDyvnogZwvkfXdrL8HZMX2HDP48fLlPyj6jr4650r0I4svQPCGoBIBxRgSywZaZ0Kmn/bWR8IXFdVYvoOxhnS5F869JxbhH/q+HeXzlEf0dX0ndGWDxWG3joNT7pnLpvO+k+D4864yXRH0I32GKqPFecRCplomCpxsIYQQlClTAIRnYWn39eXH9pZ9sunjcyPe+nvfn0I7Sc4MaXEwAXnn1Ro5k3tBCGC5VChipjXJRGREDeUBl7R0xoDcG9IO1cLVDRbWKVIZwPCoUcFRQEIJUAgBAaWo2FEQwSVoM3BuxCDVAIAOKAk9CoJQgIAQDQokISqZBACAaFEhCXR2bkILhQFIAQCggJMRgcUBJIG0wVIEY7CgAkBAYyOLAiMVrMQwukna3wK1KS2U4nEQCNg1TWhowCzUhSARQCVKJCAgBACAkhALf3EBKAIKgkhAJGAPrT3UBLvpR1ICVQCAxcfUt1Mj7T9SUqA7SOABidiVBCyUfzghQ2xQDZi17d+0d5AJ+LWO7yIMiOK0QpQCOKoJjAxG7YEKZiA4OA2P8Znd3rJTTLRAO3BACAEAxEY7IIUzuHaN4htG5ZWQGDcOpaAIUEAIAQDUFTytn58c33oRg8TZfCf/ALJmC+v4b+xHy5Wflf1Av+9c6V6EcYDg4Ag4L0VlPCaoVEjrQlBxBUoKBFASSsguS6E+SeiY0/NWJ5mctrJNdKOOxH/IF82f0htO4csO4bPbgdjvKIe2pq6jWfpPz7j0qY6XRH0I5LDvFYPNaqKHSqYZJCphoXdVMUBUy0NCUOwtPv67uP7Sz7ZdPGZke99P+/PoR2dNlibLcw7Cugj6g2hrnSHGVOw4fWu6lzxkYaA1DnYSmEnpKu9QlBtkunmMx5ENrBuWHItDcpUlstoa0YLjbBlLmt2mCqVRUrA7EKNACAUEJQSEEqDS1PrSiIYJK0Gbg3YEINUAgBARgqAQDgpUCVAIAQCQgiqRoSEGgFFBUSEHBC0AoRiQEOeG7VUgYXTSRgtbpDAXEnErSQG15G9GgZmniWMwMgCgGqBIQEAIAQEnZ3VUBgIAghRFAJCAgI6etAJACARKAhUD+l76gJeNncCqIQqUEAiqiA3EPG8hRgl3rGHoiEKY1SDJ+cgEgG08LwdyMpkLf1xn9M1QGAbVsFdSgJd0bkFCShDLLP0vTi09ajKKYIHiGEdvUd6qBhKoGB1d9AV1oUXWfAoBscWuj07QjQMj2j1w9a7aiBjh1YoAggFBUBBQAQhTyhqAP9ML3+2S/wByYvreHfsR8uU/LePfzrnSvQjist8T0O+mHT1r0Ys8SSM8StmKFRQlA7ilAQSsstCRM4HNePpXAjwrjue6zkhnRx+HX/ixfL7z6j+kaek7osTCLDapg2jyj3TNXDHPLpPzf6iyY2XRH0I5JLPEwHqWGsp0IOqLggaIIVMNCghKBBUy0HUqYSqdgafwFXcScAJLMf6ZdPGZke/wD359COx5lSYgSxEb3Lo0PpipsplQ1riIlqJ0ITLlAYQhBUhcxrGwcCWvHQiTZKkGY4iEYdxcqgjNTHtWwPtDLEeLhA2xUcUxU1cp4msDwQQd4XA8hqpkQtQQCQCQyaSp9aVUQwSVoM3BuxCFKgSAh7oYDeiBjAJWiGRrYYlZKWgAiKAhUAgEhCVTIIUEAIZDiAVoWog8EwCONBUpQpBIQyYZjA8YbQtJg02IMDgQtogbcBilQUJTjt8VTeBnYwMEIxWGwWoUFogIBIQEAICdpVBSgBANUEkICUBJVCJUKCEEgJIVIH0vfUKD9pRAgD+gtpEZRwWzJMEBIPj8PhWZFRP0hH1LlkpjKoEgBAG7uIDK04Md9SeEnqUKY3Ng4j5q0mCdg6vnoBHFAJAA8CAznx2xG3aR1hTMDTwxWgXDvqFBAHCUBJHUgKY4jA7DtSgG4QPUd6AlCjQAgEgPKWfx/pfe/wBsl/uTF9Zw/wDYj5cp+Wcf/nXOlehHDC3eMD0rupnkVM7Xwa3jwJwC5lI42tBkWjIooWhJKjLQwvMXMH6oFde88jNxyZTa+H/N8F8tsP6R/Ud5Zel8WWrWeqo90zlwxdJS6T84+pI1xcuiPoRrqd0HGUdo2LUkeRZlXIatYOcRCpGiUMsUI4KmaVNJVVcqkb45i8+tljaVuMd44Lk1A5hprOqKy4XV83BnYS+CWNg8YrrY6O7GJ7P03cc7lzoXrO5BKXm1PrTIwcGHSoCyIGO5BQ0FRT1BeZsp5d+oW4yoRmmFQWnhnMLHdK5VIzQszuIhslpmuPRsCrlQUMjKZ5MarxvqWjYPAuJzqU3BhYAGtAAGAAWCFkgCJMFUqgwumGOGC5Y29JN4BMO8J3Y3iuMFZcGhU01TsKyimCRjgtEZuDdiEGqBoUkw3oQBDcEA0AIAQCPcQEwK1QlRKFJVMoCgE0guLd4xW0iNgYrdCGMiCME7FGQyCLguNlK4elQtBwggaML5bXQJGKqZkYY1gwGJSpQQgIUEICFBACpBKEBUAMEAIAQAqAOxAQgEqBQUFRKFJVISVSB9KOsqFJfGJIVRDFxTB0QW6koPtTvarUCMzi9aIHeehKigh4rm91YKWR+ujuEIDEqBEIBIAHTuQGSWIlzTsdh3wjApmIa7pwPdCIpGCAkqgSFGEIZJZHFDZHYetRgHtAMdx2IgQfmnYqCoIAQoQQEkIChiOE95ATAiMUAIUSAcFAeU8/j/AEvvf7ZL/cmL63h/7EfLlPyv6g/nXOlehHDw2J6t5XeiqnjNkv8AGPUMAjZVkLlu2Nd3luMuQkkZSFyGKmI4KNm0aceM8HrXVuOqZt5EaTh9xQXzH6T+kf1HfGV2xyza+5Ue6Zy6/wDc+k/O/qH+XLoj6EXUMMuYJg3HFc2dHz0fwSqaph42hw3iK4nkO6nVVGhRYCJO5Uy3Q2msuLZZMqQO0m7I7h6q5YQrnOnevUzG3yaabUvM2eeJ5O0/QXLVROk63M529pxTCVVXGA2yWfbFedjpVSPp/pqG7OfQjtvgC80+tIc1UEjHAoUYwQgPly5gg9gcOtEyAyVLljhY0NHUrUFqAwT3SpbeJ8B0FaiqkZphMa8DheHdGK54qhhlgdK0Ql72y2lzzABXMDDKJmvExzixo9ZLj80rhnKpqg6g4LCKY5J6FqhDcWrkjEyy1oCgpQGOYYCAGJQDYCG47SsMpagEVURjXIQEAIDETiQsME8W7hQCxO5WoMbiWua4nDYVqLIDpzN0T3FqpCON7vWsPdKjkKB2Ux3rnADoCzvFoZ2t4QBGPWsvKClCkqmWEN6AgmKAAIoBgY4oBEQQCVAIAKEEhAQAqAQAgBAIqglACAEAigMaAUPmrSRGwh60deKbrFSXGBPdUoCIRxO7cqUSAEBB+chDLtJ/VNQGBUg0AoKlAYKAMYxG5AZXAFrug+MPoqAwKgEKKCAACqB7NyAz/rjP1Q+esgwDoWigNiAaAEAIBIC4RHWrQEdXzFAOCAAEKeVM/j/S+9ftkv8AcmL6zh37EfLlPyr6g/nXOlehHEiOEcI2nau+8h4iykBvUsGqiLBuWlkFS2u+lO3565YyqRoxzNkOlZm8hqJMtsXsHWF155mVs0UPcsF8x+k/pL9R3zlQRy1ae5Ue6Zy6796XSfn/ANQL/ty6I+hG4VUoPacFuDofPzjU2+ncQTKO7Z3lqa5TdmdchqJsxkppc93CBtWEqnNKSibDUVc6qJlyYy5eyO8rnjCh0rt6uYy0tv2EjFacqHWUHJ5TfJVO1ohDYuJyqc6to7GyE0Crr/2lv2y6OMzI+j4AvxT6Edmron0wiIoDC4Ed1UC291ClA7kIUgBAY5smXOEJjeIDYqnQhoH22WcZb3MO7etbwMRpKuX6ydxd0+rFa7wzQySpExzmvnu4nN9awbApKVRQ1/ZthAjvrFQaGpkshsgtJlNNJLWHxjCC5IoyzcmTZcPXBchkyB7PqggDjb9UCgIAO0uxK42ylCO4qVA4HpQGMuawjid3FuJGIz5Y3/MWiEmobuBKAO2cfWyz30qDIuMooBBQEFBFocIERCCgg1owAgrUlBqAEAIAQEqmROO5AIBAUgBASeg4oCVQCASEBACEBUAgBACAEBJ3qgSAEKCpCYKqJGxQWzIICHODcT4EYIB4hGEAsM2SRBQCVBDghDK3+pnugoDCd/dVQGqAQCQChu6VAZWHDH6U/MKjBhcIOIO5UChEoCoYoAghRHYgGx3CYnvoCpjYGI2O2IgQqBoBIUaAprY4kIQuC0Qh7fph31kqJCFBQp5Yz4P9L70TsEyX+5MX1/DV/wBeL8s7Pyf6hf8A37nSvQjh/DjH5q7Z41SoBMxBFqFqIsw6xvVRamMtiYkKNlTMktn3SX9cPnrinmYqbX73XzX6T+lf1HfGU/5tWnuVHumcuq/el0nwPH/5b6I+hG+PbEFVM8GSNsmyIO4htGwrkTqcVN3Kjb5tO6e6LzHoG5ciojim3LOamRRsbu76jmI2jcWyw0YBcdTl3TJBDVDneRP67r/2lv2y6eLzI97gXvz6EdmLpH0okIS4RCAwHAxVBSFGChDp7VPmC0Y0Vlynanag2zK9RUMEyntb+1qq+ZLL2s42UVIydUObFw8YS4bTsBhw3MRbt+86HZsYK9fVYRbXlpNXpXrnpJrbb6m5aXZ5t+bZVFA19JJ7SnraZrnvltdUUVSyTUSmvcx3CXywHQi2IVtX4XPddSX8Jdse/GnlpO2CuU6xicTsCpBgQ7u8qFKQGjqdi0iGmlsa44hbTIzVtlM+pVqZMnYy4Rh81Kg0xLQcBs2LQEXkq0IauXEtCwyouBUKQ5rXeuEVSHG8x5tynlBtqdme/UFi8+3CntVkZWTmSn1ldVzGypFPTsJ4pkx73ABrQTv2LE7sYZ3Spy27E7ld1VplZySA6Fs4hHDBUCQHROqXM1oRotWSbZqVqRbsvXafwEWWXLqbhXNZMDnMmTKSglVE6WxwYYPewN3RiQuvdxVq06SllO5Y4ffvqsItrzL0nKdNNZNLtYrZNu2medrZm6lphLNbKpJhbU03ajiZ5RSzWsnyS4RgJjG7CNoK3avwu+66nHiMJdsOlyLXlpzHZq5TrnF86Zzy1p5la951zhcvM+Wcu05qrzc+xnVHYyQ4N4uyp2TJrsXDBrSVi5cjbi5SzI5LNmV6ahBVbMuUc2Zfz3lix5xyrX+dct5ko5dfZbj2U2R21POHEx/ZT2S5jYjc5oPUkJqcVKOZku2pWpOElRo5EtnGdaS9X9O52qFRozLzDxalUtrF6n5b8kqxw0J4YTfKjJ8mPrx4om8XUuLv4b+5X8R2HhLvdd7T8Gmq6M2c7KXMdYWxCZiYd9CDQHHMxZvytlFtqdme/wBDY/Plwp7VZWVk5st9XXVcxsqRT07CeKZMe9wAa0E79ixO5GFN50qctqxO7XcVaKr5jka2cQbUBECgEqAQgkICFGqBIQEAIDj9PmvLVXmSuyhS3yjqsz2yjl3C5WKTNa+ppqaa8y5cycxpJlh7gQ3ihxQMNhWFci5bqeU5XYmod41+FulTf1s4QgqUSFJIiOhCGnIfLxDi7oC3UjBs6PrmwVqSgzMieFgiTvRsUIDcYuMSstloWslJcqgdZ5Y1f07zlnXOWneW8w+cs46fOY3N9n8kq5PkhmHhb92nSWSZkSP6m9y4YYiE5OEXlWc7N3B3bVuNySpGWZ1XSdklc51TyRdue3lUy/dbpYbtqoKW62StnUNyphZL5NEufTTHSprA+XQOY7hc0iLSQdxIXRfEbCdN7qew9RcGxbVdzrW05/pXzL6J64Xi52LS7Obs0XO0Unl9xkC2XOibKpzMbKDjMraSQwkueAGh3FtMIAw5rGMtXnuwdX0M4MTw+/h471yNFWmdP0M73C7J0Q2oUSASoKZ64A7HYFRgJm0E7/oKIEAfNVA0A0AkAj/RQpkGLSw4kbCrQEQwUBsFPmnLlXmKtyjS3ujqczWyjl19yscqa19TT0015ly5k5jYmWHuBDeKHFAw2FYV2Llup5TldiagrjX4W6VN/wBi2cQ2tjidnQqDJFUlRoUSEMThA9ShoAIlQp5Zz8P9Lr10CZL/AHJi+u4flsQ8uU/J/qH+fd6V6EcQXdPFHBAMBQlQggAt/SUaFRyx90l/XD5645+6zSzmy+9181+k/pf9R31lIRy1ae5Ue6Zy6kvel0nwPH/5b6I+hHIC2KqPEeUwuYCqYaMXYt2wxVqZ3SwwDYlRQcEAEIDnGRf67r/2lv2y6uLzI97gXvz6EdlrpH0gIBIQxuaiBj2YblSnENQs20+QMhZ2z1VyzOpsm2K43ufIGJe2gpplQWAAjF3BBYuT3IuWhHJYtd5cjDS0j5l8jugGU9Z8v5h5ntdbTSaoZ11PvFebfSX+Q2ut9JTUs91O8y6Wo7SW4mZLMtnECJUpjGS+EcUfOwVhXE7k8rbPc4rjJWGrNp7qS5D1BYOTfJmRuYy3686a3ZmnlsZaJ1uv2mdnt8uVbq+bOa6W6YHNmtZIllvZuMqXJA7SW2ZxAlwPYWEUbu/F05joy4nKdh2preemvl6TsHmrz1mjTfl91Ozvkq5+Zs0ZetsqfZ7p2Eip7GY6qkyy7sqmXNlOi15EHNK5MVNwtuSz+04OHWY3r8YTVU6+hnl/l31C5qrzlih5idbM5ZeotC6LIlXdanKVNTU7bvWTLfTcXnSaZVCxsvynspk7gZUBoDmtEkbutYuXmu8m1u0zHo4uxhYy7m3F77aVctFV9Ojm855alc4PNJnOyXPWmxa16MZFy3bRW1Fv0Eut0trb1V09G+aAwyKmUat817R4sKmSZsGmXLAeA7reKvSTmpRXNkqd35dhoSVtwk32stOrJ1dJ3Xrtzo5+PLNoPrnpXU/JW651zP5uzZYW09LWiYaNlUyromOq6eeWtfOp4sexofwluMcFy3sZLuozjkbznXwvC7ffzt3FVJKmdZ+g2jUnWLnr5ep1i1m1gn5RzHpXfLhIor1prYpLBMs7aloc1pqH0kqe2bBjg1xqZ0vjMHCBbCzvYizScqUfILOFwWJcrduqkuXTz56dSOfc2vMVrBp7qFy5WvRa50s6n1YlVMmTl6vpaaZTXGrrX0lPbDOnPlPnS2MmVTXOEmYziGEd65MXibkZQ7t50cPD8BZnC53y9156vJTObdqfrtzJ8sGlWUMu6oZ2yZnrXPVLNM235WzDMly6GyWm0Sm07ZtTWPbTW5jjLmT2gucxjGNdxOLwwhy7fvWIJSacm9S6i4fCYbF3HKEWoRWVZat5ed7Tg2m/NjrXprqtpxkjWXWHTLX7KmqVxZaRfsh3G3VdXY6qomSZEg1At9PRhsvtJojxyTxAuLZkWcKxbxdy3OKnJST0Uyajku8Os3rUpWoShKOlPLr8tJyPVzmkzfVcxmdtFJeuto5XrBkmVSsteaLjl2Vf5t5q5tK2qmNnTKzhp6SXwTQWF0OLhbBxL+Fcl3GS71w3txLmrUxh+HW1h43NzvJPkru0PSeg+q2qMnTDUPNevDLJd7Lp3Jq6+w6s5ZrrXVW/M9noZM2a+sbJt1XUCTNLZPaFpZLaRMaGsBDguxYxFzck7lHTlVMuo6WMwlp3YRs1Tlni01SvSs2s8AyecDmkzlY7nrTYdatGMi5btorai36CXW6W1t6q6ejfNAYZFTKNW+a9o8WFTJM2DTLlgPAd5/jL0k5qUUtGSp6/y3CwkrbhNt/3UdNaydWTlO6teedXPUvlk0J140xqxlKvzjmbyDONk7Glq2vFFLqm1lG2ZWU8/gY+bTxZMa0P4SD0hct/Gz7qM45G851sJwq2sRct3FVJJrOs/QcV1b1/54OXq5ZI1a1WrsnzdM87XOTTTtL7RTsnzbbKe0VD6eZUTKeRP8oEhjw1wqpkvjBiIQCzdxOItUlKlHyeW05MPgsFiN63BPejy169HUjYPSH2jV2fzJctzrHmm10dNeLrT0ujsudLYTab62ut7aiqrI0b+KU6c+mcA4zhBjvuY2PnEFPvY5ejmzF4NK14eeR1Xvc6y5sujoO39f8AmI1l0duGgmi+bNTbRp3mLN1hbWan8wLbI29UsislPfLhQ0DpFPJIfMlBswukANbNa6EuHEuXEYm5acYSkk6ZZUr1HBhMFYvxndjBtJ0jGtORctfWdw8tOoet1/zxmLLuYs9ZT5hNJaejE2x66Zan2eiqpVeQyYaG42ihqXPlO4XkCErANa4udxnh5sLduSm02pR0qnoOrj8PYhbUlFwn2XVrzSeTrPYGcr0/LWUM1ZjlS+2m2Cz11ylyiI8TqSnfODYDbHggu7dnuxb0JnmWLauXIxfK0tbPl7yA6H5A1W07zPrjrBly16q58z3mWvFRcMzUkm5MkyqfgaQ2RUCZKD3zHPcXcAIbwtaA1oj5fDrELkXOaq68p7/GcXcszjatvdSXJk8sx7ayLys6J6YalXbVjIuVzlXMV0on0M+it9RMprVKkTBL7VsqhllsloeZTXEQ4Q4cTQDiu9bwlu3PfjkfUeVd4levWlak6rTynzmreb3X7WXMubcwaU63aRaJ5CyjeKihy9lrOd0ttHcswU8jgfLnPFwp6h/DOaMHMMhjeMs43OYXjzfGXbrbjKMUuR0y6z2/luHsRjG5CU5PO0m0tXtZ2zceYap5j+QHWvNd4t1Nas2ZfoaixZrpaJxdSzKqQ6mmtqKeLnkS5sua0gcRg7iAJABPLLEu/hZN51tRwW8EsLj4KPuurWp5DjmZuYjNeg/KJyl0eVKuny1O1FtdDarrqJWUD7nJsFHKkSu2qmUbcJ05ondpLY4ODhLeOByw8TKzYtqOSvLoOSOChicXec8u7TJmrVew7a0L1R1xuWqNmsdv1jyfzY6S3ajM7NGdLUyy5fveWp7w8Se3tNPVNmvlOMsf1NzjxOxbwcLuexeuO4kpKcfMmvNnOpi8LYjZbcHbmsyyyT/5ZvQa2gzZdH+kXvWUDS2YWmXpyysbViy2wXQzISPFddhSivMvH9bM/g/U4BFN+LccmbQq5tOcStL5apZa10unvaK06jJyaa26nar6lc02X8/5m8/2jTjM1Jb8mUnkVFS+R002svEp7OOlkSXzYspZQjNLj4u2JdHeBvzuympOtHk6zj4thLViNtwVN5OuV82npOOcsvMXqlm2+858/PV2m50tmite+ZkjL8iio6WayRIm3supZb6SnlPmumNopTAZheYjDEmOMLipyVxydd3N1nJxHAWoSsxgt3fyN5X2dL5zz1kfmm111QyzPz9ljmfyJaNR315l27levVkttqo6j7sJEmmp73cZ8mdNfOlkTWhs3F57PjbsHWhi7s41U1vdmiXWzu3OG4e1PddqTjT3023+VbD6/wCSbnmO9ZQy5dc35eGU8019vkTswZbbUyaxlHVuaO2lMqKd8yXMaHR4XNcYiG9ezblKUU5KjPmb0IQm1B1jyM+QvpDbRq5P5kOW91jzRbKOmvF1p6bR6XOlsLrVfW11vbUVVZGkfxSnTn0zgHGcIMd9zGx/j8RU++jl6ObMfS8FlaWGnkeRfi51lzZdHQd0a/8AMfrTpJI0X0FpM6ZKt+uOcLD5ZqDqzmCfIo7HbuFs2U2plmdIp6dhmzZMwtMyRDxAwSXGYIc2IxN23u26reed8h1sHgMPf3727Lu06KOWuZaKvrNHy680+qNNrfZdA9ZNQch6y/LG3zqvK2pmQq2kq5EuqksnzzSVZopVPKBLJLmhpkS3g8B8cP4gw+LmrvdzalXlXsGN4dalh3etRlBrOpV9e2hwbK2tPOvqzrNzL6T6U5sy3JpckZquVNZszZkpKSSyw2+iuVdSSKSmbTUM11RNqGhkH1EuaGiSYkF5JxG/iLlycINZG8/JRnJLCYKzYt3bkXlSyJvK2k65+TmoRpZr5zva+ZPzdkTIhyrlrULSmudS541OucuW01j2Oe2VR0tIKOqo/KHup5omO7MS+EtgJcQ5Zs4nE3otRpVZ36tBvE4HA4aSlOrUsyy+d560ze05bkDm31Vz9yP6t6sTqylsup+m9UbTTZmo6WnfLqXNNDMbVOpJ8uZIa8sqnMc3gLIjiaGx4W8kMbclhpS/uXLqOG7wyzbxsLdPwSTdKvkT5c5wcarekLrNFLJzGUV6ydIyRYrHLulyypNpad90vFFTy2tqLpVMFK2Wxr+F9RwU9RJcGYBhMAePvsU7fe1VPNrzHM8Lw9X+4cXvPlq6Lmz+rzne+pHPA60crWnms+T7FR/LLVWqFjslquE4NoLbc5Tp0qtmVM2a6QDKkTJDg0uLQYsc4hkSuxd4g1YjOK/FLq0nUw/B08VK3J/hjl53XN7ToDLfNnrzpPnzJH5VtZ9Kdd8kag3emtdzt2SLpbKqvy95Q+HawoaeleGs48TME5jgzhExjncR66xt21Jb8oyT0UyajuS4Zh8RCStwlCSzVTVddcmpnZOrmsfNTX83Ga9AdEcyWqkpa7K9LU2g3qko/I7JMdIp6mouT53kc+omOwdKaxwmM4poPZnhEOW9fvvEO3bfoyZKnBhsJhFg437sW89aN5crSWfYegM4s5wKPKGkmR8s3GwTM13Gme3WjXqayhmUdnMpmM2jtU80nbudEkESODxQHMaHks7FzxKjGKpXllk9HsOjZ8DKc5yTp/bDLV+dV5ec6e0c1z1gs3NNdOW3Puqdh1ttVVY590teeqG2Udsq6WrbTMqG002TbnOkNDWtfxMcHP8AGa7jA8RcNjE3Ff7pyUlpyaK8h28VgbLwqvxg4NNVTbfLTlPMHLblXmpPN9qjTN1Ky2Mx5fvVkn6/1/YSuxvlrbUy3T5FvHmqDHukhzQWsp8T68bV1cJC94iVGqp/i51XLybDvcRuYfwcW4vda/BzOjpXLtPb/LxrFqPnrmT5o8gZqzH50ylp1cpFPk20+SUcjyOW+oqJbm9tIky5s2LWNEZr3L0MJfuXL84SeRVprPJ4hg7VrC2rkVSUkqur0VNr0U1r1Nzbrxzd5MzDmbzhlrS+Y5uRbb5FRSvIQJlS39dlSGTJuEtv665+xYs4i5K7di3kjWmbScmJwNmFixJRyyca5XlqsvL6DoblP1T52OYyny1mqVqJlu26fZLzEbZqFX19upBcb6HGVVT5MiTTW/smGRTTZbGcDpPjO4numYNbw4O7ir+VSVE8uRZerYdniNjA4T8Lg3JrIk3k0Vy6ek2/PfNdrhqlqLqJYdINY9MdAMn6c3ObaKSsz1crZSXC+T6Z8yVNmSWV8it8QuZFsJTGgFoLy7iAzPG3bs5bkoxS00y6zdvhlixbi7sJTlLPupumqm09hcnPMTeOYLI+Y52bKK2UmdciXl9lzDPs05s631g4eKTV0zmvmjhmQcPFe5ruHiaeFwA72AxTvxe9nR5XFuHxws1ue7LNXkO2tcrzq5Y8iVE3RDJVNnbP9dVSqSgpa6qpaWkopUwOMytnmqqKYTGy+ENDGOLi5ww4Q5djESuqH+tVkdTBQsSuf75Uj58vNkqeCc0a26/8uWsmieTM8a32DXm16oXGTbsz2SXZLdZ6qyl1VIo3vY63O4zF1QSx01oDzKc3gbiR5dzFXrFyKlNSrnyLJqPdtYDD4qzOUbbg1mdXl5Vn6/SbxqhrhzON5wMw6F6O3GzV1FX5bpJ1lt2YKeQy3Wma+RIqam5T6iTTmrmBrQ9jWcbhxTAeB3CGnV7E3/EO3B+zJWpjDYLC+DV+6ny1o3lytJZ6aDeeWvWfmMt/MRnLlu5hrrac43a22U322ZrttPJpg1obSuYyUaemo2TZL2TiYvkiY14IiRgN4XEXledq66nHj8FhnhViLCaWjz05a5U+c4zUa182XMJrFqPlzlsumWsiZF0au3mq6XDMdO2Y28VEqfNlObMmmkrXhs11O8tbJEtzZZBc8OcIY8RiL9yStNJR8uc5PBYTCWYyxCcpS0cnWsxtXJHX5uufNHzVVmfrRT2HOcxtEzMlro3OfTS6uXUPlzHSHPiTLeW8bCSfFIxO1Y4c5PET3s/LrOXjSgsJaUHWNVToo6H07zRe5GWstZizHVPZLprBbKu5VEyYYMaylkvnOLj0ANxXtXJ7kHLQmz5qxb7y5GGlpa2fnv5XuYDlm06yvm2Vr9pLP1TzrmLME25yL3Ny9Zb0JdK+TKHD29zqZU1r3Tu1c5rW8OIMYkw+ZweIs20+8jVt6E/Sfa8SwmJvSj3M91JaWvQj7Acq2dNCtT8t5hz3ofpHJ0ytrbibJc55sVqs0+tmU8qXUQjbJk0TJbBPEOJ2DiYBe7grlq4nK3GnJmS9B8vxKziLDUL096uXO36TprnI121n0o1T0FytpNX0rpuokyut07LldTU02mr6+fOpqS39tOfKdPlsZNqA4iVMYXDAneOtxDE3bdyMbbz8h3eEYKxfszndXu8tXkVKml1D1m5g+VvQWTW6v5ly3qXrLnLMps2S6+klSqK00UibI7QTa1/YW1juyLHxPAxvjM4ncIc5S9iL2Gtfjacm8mheguGweGxt/wD1RcYRWXS3rZ0plzmu120pz3kn8qmsuleuuSdQLvTWu5W/JN0ttTXZf8ofDtYUMilfws4/GMwTmODOETGOdxHrxx161Jb8oyT0Uyav6HclwvD4iElbhOElm3k1XXXJqZ2ZqjrRzQzebzMehmjF1s1RQ1OWqSptlFf6anbb7S98mnn1Fymz5Uh1VMh4zGs4ntjMB4DABct/E33iHatv0ZMmc6+GweEWDjfup8taN5crSWfYbzofrxr7k3mCl8s/M1VWfMl+zDbH3TJWeLRKlyWVPBKnVHAWyKemY6W5kiawF0mU9r5cCHh7St4fFXoXu6u0dczOPGYHD3MN4jDppLOvKuVdOY68Gq/ObqlrxzA6QaP51sVpoMlXsTLbmO/UdEyVZqGRNmyhSSuzt9S+c+qLm+NOlzC0SjBzS6J4VfxN29OEJLI3npkVeg7EsJgrGHt3bsW6pZm8rarpXqNw1l5m9Za/Va66G6Z6nafaQ1Onlso/lrqhnmsoaCTcbo+TJmTpVFLrJVS3hi8jhbTuODiXMHDHV3GXXc7uMoxpnbplfLn2EscOw8bXfThKW88kY1dFyZnozts7D5aea7OebbVrLlPUXzHnnPOilmmXenzNk6pk1VFmSlkSHuLpDqaMozHPY0cUprWkvDezY5pB5cJjpyU4zo3FN5OWhwY/hVuMrcrdYxm0qP8Atr05dZ52yRzQ646nZbn58yxzNZFtOor64y7dyxXmy2210dR92EiVTSL1cZ8mdNfOlkTWhs3F57PjbsHVhjbtyO8riUuzRLrZ3rnDcPanuuzJxp76bb/Kth7F5ieZbOOimheTs2VmTqOzas59nUlopctV1bTz7da7jOkumVE2fVy5zZMyTJ4DwuEwA8TS4hvFDvYrGTs2k2qSfUeXgOHW8RiJRUm7ceXM3oW08m5c5rtdtKc95J/KprLpXrpkrP8Ad6a13K35Jultqa7L/lD+HtYUMilfws4/GMwTmODOETGOdxHpLHXrUlvyjJPRTJq/oelLheHxEJK3CcJLNvJquuuTUzs/U/XDmbZzf5g0N0duFnrqOuy3STrLbr/TyGW60zXyJFRU3KfPkU5q5ga0PY1nG4cUwHgdwhp5r2Jv+Jdu2+ivJkrU6+GwWF8HG/dT5a0bq8rSWemg3Xlx1l5jqDmDzry3cwN2tGb71brG6+2nNtup5NM1viUzpbZRp6ajZNkvbOJi+QJjXggkjAawuJvK87VxpuhjHYLDPDRxFlNKubLppyt5fOeZuXHK3NN+dzqfTt1Jy4MxWC82Ofr7X9hK7K92ttRLdOkW8eaoMe6SHNBaynxPrhtXTwcL3iZfiVU/xc6rlpk2HocRuYfwcW4vda/BzOjpXLtOx6zmoz7qTqXqplaTzLZc5XpmRb3X2fKeV7vl2kuDLqyimmmM6tu1zhIp3mazFgALQ5x4XNYXLl8bcuTkt9QpmVM/S3mOH5ZatW4PuncqqtptU6Es/MfQnl8zZqnnLTa23bWHKlBlfOQnTJU11prqKvt1wpxwuk1lNMoausY1rw7hc0zI8TXEDhLV6+DuXJ263Eq81GnqqeBxG1atXaWm6aGmmnoypHdq7J0QVA4qFqIwIghak4Nw3qFPK+ff53Xr9sl/uTF9bw79iPlyn5P9Q/z7vSvQjiUF3TxSoISo4KEHBQAR8zYjYqJn67L+uHz1xXHkZuOc2P3uvm/0n9MfqO/Mo/zZtPcqPdM5dSXvS6T4Lj38t9EfQjkJCHitEEKmSUBJVMsSpkSA5zkb+u679qb9supisyPd4F70+hHZK6Z9ICAEAkIYnNQHE875Vt+e8mZtyRdi4WzN9mrrLXuaSHCTXU76d5BBBiA8kQKzchvxcdKOWzc7ucZ6GmfKHSnO/NryfZam6G1PLJdtY7PbLhWPyPnHL0ypNIJNZNM4me+lo61oYZs0vhNMlzYuaThEeZanew63NxvQfQYm1hcZJXe8UdKdPW1l1nrLlWydzKuvWe9VOYfM9ZbKrPE1vye0elVnlNus0lhgJzWdpPZJc5rQGy5T9hc6bGY6DOzhYXauVx5+Q6HELuH3VbspZM8qZX5+Xyoc95x7BfMz8s2rdgyzZa/MN8uVqky7dZbZTTaurqHisp3FsqRJa97yGtJg0HALkxkXK00lV+04eGTjDERcnRZc/QzbtK9Na3M3JvlLSbNNJXZYuGYNNWZcvFLVyH09ZQTqqgNO7tJE5ocx8pzo8Lm7RiFm1bcrCi8mQ3iL6hi3cjlSlXIfMrIeUtYdFcvT9Fr56PzLWseeKSprBlnVuvstPcrbNZOnTHyn1tYaF7Z0tpB4BMrKd4l8DXBmC8+EZ21uu2m9NPL0ns3Z2r8lcV9xXKk6evJqZz3n8y9eMk8rGhFvumXMrZFzPT5tFbeLFkSi812airp1FVznto5LJkwgsJAc8O8Z4LxCIA3jYuNqNUk68mY4+FTU79xxbaoqOTqzddcblzeczdvs3LbfeX6fp7Mp7pS1WeNU3z5tTYauXRRaZ9LPNNKkNY57xNEtk6ZNMA0AeMtXnfvpW3Gml8hjCxwmFk7yuVTWRcurP6Oc7f1901zW7mL5JJmWcq3q/ZY0/q3Ut9v9FQVFTSUEmTMomMfWT5THskhzZZMXuGw9C5r9qXe26JtKnpOvhMTB2L+80nKrpXSuQ5Jz6cv+ddV7dpdqDp1l6kzrmfSW8Pq6jIlcJL6e7UFTNpps2U6TPAlzuF9KwOlucA+W6YPGPC074hh5TpKKq1yHDwfGQtOUJuily6Dq/RiTnbVDUnJ7qT0f2neg+SrHPbVZyzXmvK0sXLtKcsmy3WcOpLVMlzS4QY7sprWnxi7xOF3Ha3pzX+pRXLVejMc+I7uzbb8RKT5EpenP6jlPMXZrjdNTb/Ta8cpszW7SSopJUnT3P+mNsqqnNtI8ntfJbj2VdKncDHMf4zSyWPFwd2rmt1iItzfeW96PI45/PlMYOajaXc3t2XKptbvmyHCeVXlizRJsXM1QXDL+YNK9JdabXPsuQclZjntmXmlkVcmc1tZUyBxCS+Uye1gbMjMwLXx4OJ+cJg5NTqmotUSec5eIcQgnao1KUWm2s3Ol0nQORMqav6L5enaMXzkBy1rDnakqawZa1ZrrLT3K3TWTp0x8p9bWGhe2dLaQeATKuQ8S+BrgzBcNuNy0nB2lJ6aV9XrO1enZvyVxYhxjTKlKnryamdzc6Wj+pVy5X9GMq2DSWgfm+gzJ5yzVk3SvL9R5qoJtRR1TpvY0lIKhzWtc8MdMJg9/jYcQC5cbYn3UUo5eVRWQ63DcVaV+43N7tEk5vK9dDtv0nGRc7Z+0dyLa8i5OvmdLlSZylVVXbrDb6m4z5UgW+tYZr5dLLmOawOe1vERCJA3rl4lblOC3U3l5Dq8CvQt3JOcksnK6cppvSAZC1NuGZ+W/VrTzIVx1Hl6P5jnXO+Zas8ubPrZkau2VVOGypEudMLHmjex72y3cEQ4tIjCcQtzcoSiq0ew1wa9bULluclHeXL50bzrLeNUNQcuaUZqz1ysUGo+kF+tTq3UXTTzfPrM+Zbrp8mcP73um1FES7hMsHgp2TYtc08Bc0tt6U5qLlbrHlX9yGFhatSnGF7dmszqtyXp5+U6U5bOXuvpeaS06uaUaW510F0UsVlqaa7WLPbZlPc7pWVMufLfTSqSdU1E9sgOdJeDMe4fcg6PE4Q4cNh3329CLjFaTs43GR8K7dycZzfZzdPlQ+uNwoaW6UFdbK2UJ1FcaebS1ck7HypzSx7e+0kL15RUlRnzUJOElJZ0fI7I1PzN8h9TmvIOXdFbtzFaQXi7uueTbpY5s819K+ezhcyfLpKWtfL8SS3tAZDWcfjNf48F5FvvsI3FR3o8x9JfeG4hFTc1CaVHX20rzZT03oHnjm11Uz1fMwaqab27SXRartobacpXJhffHz5ksBrWuLpU5sCS6a6fIYPWsYzi43N7WHnfuybmqR0eWU6WMt4SxbSty3rmlPJs1ZTwRljSnUXlavedNPbzyVWvmgsl8vM6p091Am2qRc3yZDmS5UoVVQLbWmVL4eAvlTOxDX9qWuLSXLoQtTw7cXb39DpX1dR6ty/axajON523yqtPWteU9h33TnUMckWqdpuuj2UskakZytc6qfpxphYjSti6ZJbIlzaemmVRqKrgZF5YTAQYPWknuTtzeGlWKUnyRXOefbv21jYUuOUVXLJ8zzZshoKjLusVp5U+XmxW/ROxapWK1Wm1SdXtJ812yab4ynldkS+3SqiopmS6mU0TBCZLc5ri1wEA4HO7cViC3E1yp5/MaU7MsXcfeOLfuyTW7m5f6nnPJ3LvIzZzDaQ545e9CtReXbKmS7sLpqJds+yZ9AJrZUyS8U1vpqqsqZ7xOlCbKfB/D90gQ1rYHrxw29di7cZRSz1O5PG7mHnG9cjNtNLdy6/6HqigyZnBnpF73nd+VLy3Jc3TllDKzeaCoFrdVASPuDa3g7EzMD4vFHDYu0rcvFuVHSmfkzHnyvQ+WqG8t6uauX3tB5vyHS8y3Knr1r5T5Z5drrq7aNZ77MuOW77QVD6e3ypcmpraqkmz6xtNPlS/ErnNmS5zpR4hBriIE9e332GuSSg5V8kdy+8NjrNtyuKLjn08lVTzZGc75E8ga55OvfOBW5qyhMyhnvMlwoZ+XbjfLZXS7DXXSXOvb5kyme4yHVVIJ01hLpM2PA5p4vGBPLgLd2HeVVHkpXNynBxi9Yu91SVYqtaNVSydfSdNaj6Y0ue8tX+x575HM2WTmXrWXCVa85ab26ZS5JnVc2bONJVz6ltwmUwHjB03tGue4j17Q8BvXuWt6LTtNT5vdO5Zv93NON+Lt6JNb3oT16j6f8runmb9KtBtO8hZ7uQueZ7BQTJdeWv7RtM2bPmTpNG2ZEhwppb2ygRh4uGEF6uDtyt2lGWc+e4lfhevynDN6ec8qc/2Q9TLjmflw1a08yHcdR5ej+Y51zveWrRLmz62ZGrttVThsqRLnTCx5o3se9st3BEOLSIw6vEbc3KE4qtHsPR4NetqFy3OSjvLl86OteYzTHVLP2Y9DObm06DNznXUWXmU2pXL7fJLa6fJkN8qnS5b6OppWvnvDap7SBJMxsxspzZMeKHDibVybjeUK6Y5zsYK/ZtRnhncoq5JJ05Fy9POdo8tdvzjnjUynzfV8l2n3Lhp/YKN8yjuFfl2VJzbMuRD5QFFUCRb3yWEOJc51J60Foc7ji3nwylOde6UYrmy+bN6Dq45wtWqK/K5J6JfhpzrL6SeTrI2dcscxfOjfcy5OveXrNmnOU+pyveLnb6mkprjIdd7vNE2jnzpbGT2FkxjuKWSIOadhCYO3KN642mk36ycTvQnhbMYyTaSqk82RZzfuRjJeb8pXrmanZryneMsMv+otXW2ObdqCoohW0pmVBbPpjPYztZZ4gQ5kRjtTh1uUHPeTWXaXjd6FyNrcknROtHXQeNtLMjZ1yF6PLmetmecn3vJdyq70Kqlt99t9Tbp82QWWpgmsl1MuW5zC5jm8QEIgjculbtyhhbm8msqz+Y9K7ehdx9lwknkeZ15GbpYNSua2s5W8q6EWPlzrM3UGoOT/ADRlXVS1VLp1D5lrpHCGVUlsnsqedLkzTJ4p9RKBcOINcMXWF287CtqFU1n5iXMPhVinelcSaeWL0nbmp/JZnyXyh6RafZTFDmHUjSG4zMyVtkn9nOpblPrpk6oraOSZ4ZKeGPmtDBMAbMazhOLlz3cBPuIpe9HLrOth+LW/FzlLJCVEn0bcvQbRp3Lz3qbnfKuXqH0dWnWklnttdJ/KJnTN2VpDpDaZpJmzLWx9JbHOmHs3CXwOqAHOYXEM8dLe/ckkrMVpbX9PWL3dWYSk8TOT5FGXpz68h3RY8l5xlekZzjniblO8yslVWn0qips3voKhtrmVIlUIMhlaWdi58WO8UOjgcMFyxty8Y5UdKZ+TMjrzvW/lqhvLermrl958h17zz6b6mZw1Z0tu10yvnfUXlut9FLl50yPkGNRcnV7KmdMmPfRMLXTBNaadofHxWsmcLpTiHHHELU53ItpuHMcvB8Rat2ZpSjG5yOWRc2U6w0O0bu2m/OVkDNmWOX3OmmWkV5sNdS2youbZt0mSJz6KfLNReJ0mdWMoHzprQ0SnzcIsMAHHh4cNYcMRGSg1Hn6KZdB2Mbio3cHODuRlPJmdOVPJpya+k7LsMvWjRrnf1QutBodfc8ZK1wudnppeeKLtWW610HFJ8orZ0+VT1EqMhpmRlTHynOLRA+M2PPCN2zipPcbUnn5KN5zguSsYnAwi7ii4rNkq2k1SlTjVY3mG5aOavWXN+UNAbxrHlbW6rlTbPWWp82XIkzHTGzGOqKuRT1TKYS5k97HioawEDiD+FpKzS9hsROUYOSlXrNb2GxmEtwlcUXGmenIqZnQ5DykZF1ltGrXNtmTVXItyy5d89UsuvkzvJZ5t0+pq31dQ6loKt0sS6kSBObL+5uds2nabg7V1TuucWm0+TlegcRv2HbsxtzTUZLlVaLToO3PR2ZUzXkfl6Njznle75SvXynudR5ovNFPoKrsZjKcMmdjUMlv4XcJgYQMF2uFQlbstSTTry9COhx67C7fThJNbqzOvKzyHcdLM+8tGpeqZuXKFbOavIufrxNvGS72y0SrlV23t5k6YZMwtt9ynSwA8NexzGtLmhzHeMQvO7meHnJO3vp5slfUz1nibeNtxavd3JZ1WnrVeZn0Q5WMr5usuSLnec9aPZD0UzHmS4OmMyjki1ybc5tBIBbSm5PkTpzJ0+LnuECA1rhFrXFzR6mCjJRrKKi3yJU1ng8TnBzUYTlNLlk65eY6x5/smauZ20jtFu0upb1d6CnvInahZcy9OMu419nNPMbMlSpbYuniJxlAO4iW+I6C4eJ27k4Lcq1ypHZ4Fes27sncaTpkb6+g+eeatA5NFmvQfPui3LBqpknKdhzXRTM71mZKOprbzUmVV080TDaqefWT5EmnZTTT2hlSw8zG7fEXl3MM04uFuSXLXPqPes41OMo3bsG2slHk1vlPdFmyXnGX6RbNWeJmUr1LyVU5Cl0dPm99BUNtcyoEijBktrDL7Evi0jhDo4HDBejG3LxrlR0pnpkzHjSvW/lihvLermqq+8+Q1lBk3N7PSIXrOz8q3huTJunTKGVm40NQLY6q+4fcBWcHYmZgfF4o4bFVbl4xyo6Uz8mYkr1v5Yoby3q5q5fe0HSFsoOYTk+1t1dfkrRG7a56fa03lt4sVVaZk2X5FUTJ0+YG1M6TTVYkdmap0t5nNa1zWteHgcS4IxvYS7Ldg5RloO3cnh+IWIb9xQlHTTz52tGQ5vybZW1mpOYfmMzrq/kO4ZQuWdKa31jZzqaaLYZk2YZopKStLOxqDTS3NlvMt7sWnE7VvAQuK9OU4tV2nFxe7ZeGtwtSTo1y5aJPOeqebM5gdy6as0GVcvXXNN/vlkfZ7fYrLSTq6tnec5jKOYWSJDXPc2XLnOe+Awa0ld/HbzsyUU23oPK4W4rEwc2kllq8nJtNFyd5ErtN+XDSzK91t9Zarw22zbhebdcJTpFVIqrlUzayZKnSntY5jpfbcHC4AiEDipgLbt2YpqjLxe8ruJlKLqsiWo9LP+l7i7iPNPn3zOZLzhf8Ami5QcwWLKl5vVhy1d6ubmO90FDUVNHb2OqKRzXVc+Ux0uSCGkgvI2FeVjbcpYi20m0mvSfQcNvW4YS9GUkm06JvK8nIcp55tCc361aa5fqMgUtLdc3ae3pt9oMvVjJT5VykiW5k6mDZ57Jzj4rg2Z4rwCw+uW+JYaV6Ccc6OHgmNhhrjU8iks+hnm/TyXnnUvO2Vsv0Xo8NPNJrPba6T+UPOebcryXSG0zSTNfa2PpLa50wmW4S+B1QAXMLiGeOutb37kklZjHS2vRm9Z3r3dWYSk8TOT5FGXpz68hsmpOYdTsqekOzZmLSnJ0nUG+2rJVHNu2S5lS2jm3C2upqVk9lPPeHBk1jnMmDAxDSAHEhp4705wxjcFV0zeZHPhrdu5w2Mbkt1NvLoe86HPdHMnaza+81No5mtUNMK7RvLOQbI+1ZXyzdXTWV1TOdLq5DWuZPkU85zWmrmzHPdKlj9ba0OHEVzWLd2/iO9nHdS0nWxV6xhcH3Fuam5cq69h2PywZMzhYeaLm/v99ypeLLYczXalmZcvdfQ1FNSXBjairc51JPmsbLnABwJLCdoXJg7co4i42mk2+TnOHiV+3PCWYxkm0lVJqqycp0XrPpHnnSHmLz3rJS8udu5otONTJDJk/LEy3SbhWWu4ASWucyW6kr5rDxMceNkktcx8HQLAVwXrE7N9z3N+Muau07eGxVvE4WNvve7nHlrTN51XXnPRnLZYdTKmx6hZ5mcvGmvLrervQmm0utFJYhTXR7Hy+2b59fSzaeY6T2olAyuCRMi1xLGwbHt4SNxqUtyMHyZKPz8x5+PlZUow72dxV/F+Kq/48+vQeNtRdNKXPWXL9ZM9ckearNzJVrLhKtecdObc+lyXOq5s2caSrn1LbhMpwMQ6b2rXPcR65oeA3z7tnfi1Ky1PTFfh2eWc9exiO7mnHERdrRJrf8AQnr1HbmpPKTq5eOUHR3Jcqoo8z6qaPVZvIsFV2U+RU08x853mtjp7jKmeTy3y5bQ/wAR4YWbCFzXsBceHis8o8nTyHWw/FbMcZN5oToq865fObVp5Lz1qXnbK+X6L0eOnmk1nttdJ/KFnPNuV5LpDaZpJmzLWx1JbXOmHs3CXwOqAC5hcQzx0t79ySSsRjpbj6M3rF7urMJSeJnJ8ijL059eQ7is+S84yvSKZqztNyneZeS6nIUujp83uoKgWuZUiTRgyW1pZ2JfFrhwh0cD0Lmjbl41yo6Uz8mbSdeV638sUN5b1c1cvvPkNbb8m5ub6Q69Z1flW8MybN06bQys2uoagWx1UOw+4Cs4OxMzA+LxRw2IrcvGuVHSmfkzElet/LFDeW9XNXL72g60sMrWbRzna1OutDoffc7ZL1tuVnpmZ3o+1ZbrXQxleU1s6fKp6iVGQ0zIypj5TnFogfGbHigrtnFSe42pPPyZXnOxdlYxOBhHvFFxWbJVtJqlKm16tZdbes5Z1peZjk1u2o86bXF+nup+jFqq50+vopLS2X52dJr2zmTGse0fdSQTxBssiW15XoOUpd9abfI4J9eUuHuqEI+HvpLljcaydGT0azvbkK0d1C0e0wzNbs+UlVYpOYMxT7jlbKFfUsqqu20PA2W3yh8kCU2ZNLeJzWADY4gFxa3s8KsTtQe9kq8iOjx3FWr9yO460WV+Wg9ykL1TwxIAUAICHDeozSPLOfMc3Xr9sl/uTF9bw7+PHy5T8o+of593pXoRxQLuniFgKGajggHgo3QhBWDSEwfdZf1zfnrNzMzcc5sXvdfNfpP6Y/Ud+ZR/mzae5Ue6py6svel0nwXHv5b6I+hHIlDxxEKmWiCEMkkLVQ0ShkSplnOMjf13XftTftl1MVmR7vAven0I7JXTPpAQAgBASQhDA8QiqCGuieEoDKhQQAgBAeU+bTlj/OjyblrKXy3+Q3yevPnfzh5t859t+95sjsuz8qpOH9djxcR2QgurisN3ySrSh6GAx3hW3u1rz09TPUFTsXbR5phk7fAtkZr2oQyIQiY3jaRGCqYNvLSDA7VyVIZBKdgTgCpvA1LGtZsG1ZYLc4N27dwUoCA4HerQFQQARBAJACACIoCNioBACASAEIJCAgBACAEAICSFTLQjsQChAda0Q6n1v0x/LLpTnPTHz38nPldRspPPfk3lnk/BPlzuLsO1kccezhDjbtXXxFnvoOFaVO1gsT4a7G5StK5M3JQ3PSTIP5LdM8j6dedfPvyMtFNavPHYeS+U+TsDe17HtJvBxdHG6HStWLXdQUc9CYvEd/dlcpSvIdiwK5qHWCCtBUlQBgNqAk44Q8KpDAeOUYx4mbwtKQoV2rnYMbHrKrkSgdk52Mx0f1I2LO8KGQMa0QAgpUoIUSEJKoDd3kBBCpBKARCoEhRERUBIwIVBbxs76iIY1SggBCHmih5d/IuZ68cx/wAr+087Zcbl/wCRvm+HZ8MuQzt/LfKTH9Zjw9iNvrsF01hKX3er5qc1M56T4jXCLD7ublrz1zU9Z6Vgu4eYNp4XA94qsDmCDo9KIpCoBACAqGCgAoBHbEIUtpjj0/PVMlqgSAneqAO1AJACgBAeV8+4ZvvX7Yz9yYvrOH/x4+XKflX1D/Ou9K9COKgLunhMsKECKy2BLJRFAOV+uyx+qEPCsTzM3HObB73Xzn6T+mf1HfeUf5s2nuVHuqcupL3pdJ8Fx7+W+iPoRyNQ8cSARCploghDJJCoaJVMnOMj/wBdV/7U37ZdXFZke5wP359COyF0j6MFQCAEAiUIYHRJVANaGjBC0KUKJUgIAQCQGjqNiqIYpO3vhbMs17dyEMiEBAKAjGGKtQS5wGCIGndNgcNq2kQwFxJiSqkQA4j1EBrJQMIuiFhlMigJOG9UHyNtnN1zr6jamau5I0V0kyBnGi0vzDW2urmVXa0c+XTMrammpHzX1d9pGTHvbTO4uzbCI2NBC8iOMxFyUowinTy0n0c+GYOzbjK7OS3l5Zos9kcumbObLMlwzRL5ktMcs6f26kp6Z2VaiwVEqc+pnufMFQ2aJd2uUA1oYREM27Tu7mHnfbfeRSXN/VnmYy3hYxXczcnXLX+iO5rxq5pPl+/Scq3/AFPylY8z1D5cqny5cL1QU1e985/BLa2mmzmzSXu8VoDcTgFzu/bTo5KvSjrRwt6S3lCTWmjPNHO7zIZ25bdP8oZsyFbLDeK3MN+FrqWXyTU1EgSDSTp4fKFLVUruLiljEuIhuXWx2KlYinGmU73C8BDFSkptqmj2pnqpufsiPzO7JLM62F2c2Su3flIXKlNzEqPDxmj7Ttg2JhHhgu13sK7tVXRU8/w9zd3917umjprM13zrk3L92tFhv+bbNY75mETTYLLcK+npquuEgRm+TSJsxr5vADF3ADDerK5GLo2kyQs3JpuMW0tCMNgz7kbNlnqMxZWzpYsy5fpHObVX21XGlrKOU5nrg+okTHy2lu+JwSN2ElVNNdInYuRkoyi03mTTMWUtQ9P8/S6qdkXPOXs6yqJ3BWTbDc6S5NkugDCYaWZMDTAjA9KQuwn7rT6GLmHuW/fi10poyTs/5Ep7/X5UqM62GRmi1UXnK6ZbmXKlbX01H4n75nUpmCayV47fHc0NxGOIUd2CdG1XpKsPclFSUXR8tGPKWfMj5+pKq4ZFznYs60FFO8nrK6w3GmuUmTO4Q/s5kylmTGtdwkGBMYYqwuRn7rT6DNyzO178WulUPH3LnzX3nUnNXMnQ6pT8p5Myrotfqa2We+sdMt0s086quklz6+orqybKLg2hYQWhgiXYbIdLC4x3HPfokvNp0nqY/hisq33W9JyTyZ81NC5z2vZL9Y8y2ylvWXLzQ5gs1cwTKG7W2olVdNOY4RDpc6S57HAgxiCu/GSkqp1R5M7coOkk0+fIccuGp2m1pzJT5OuuoWWrZm6sAdSZVq7tRyblNDuLhLKR81s10eB0IN3HoWHegnRyVek5I4a7KO8oSa00dDpLmx1a1M0fyPl+/aXU2SKm9XK+st9ezPd2orRQildTT5pMidW3S1MdN45bYNExx4eI8EASOHF3p2knCnndPWjs8Ow1q/Jq5vUS/tTfoUjZeYbm3yjoTnTTDIM5tvuV8z7eaSlvtTU3GnpqfL1rmVVPKnV9waXF7AZc5zpXGGscGPcXwYQc4nGKzKMeVvLzG8BwyWJhKbqklkye88uY9VWq8WnMFsob1YbpSXuzXOS2ott2oJ8uppaiS8RbMkzpTnMe0jYWkhd1SUlVOqPMnCUHSSo9DPJV45zNMbRzAytFqrMGXbbZrba6yrzXqDcb1RSKClr5Duzba2udNDG1DXhwmtmPDmkcPATiOl46Cvd3kpyup6keEzeGd6jcuSKWXPnPUOac7ZNyNQy7nnXNtlydbZr+zlXC919Pb5Dn4DhEypmS2k4jCK9CdyFv3ml0nl27Ny77kW+hNm426/WO82emzFaL1Q3XL9ZTirpL5R1MqfRzact4xOZUS3OluZw48QMIKqcWqpqmkzK3OMt1pp6OXUcOdrHpEyz2rMT9U8oNy/fap1DZL6b5QCjrKphLXSKeo7fs5swEEFrSThsXH4i1Su8qdKOXwd+tNyVehm75gz9kTKjrS3NGdrDlt1+mMk2Nl0uVLRmtmTPWMphPmM7VztwZElS5dhHPJKvOS3h7tyu7FumeiZqMzZwyhkq1C+5yzTZ8pWR01kht4vVdT0FKZswEslifUPYzicAYCMTBJ3IwVZNJc5Ldmdx0jFt6Eqmhl6iafzcyNydKz1l6Zm58vtmZVZc6Q3IyzhxikE3ti3r4YLKvQrTeVdFTTwt1R3nCVNNHQ329Xuy5ctlXesxXeisNmt8t02vu1xqJdLTSJbRFz5s6c5rGNAESSVuU1FVbojjhblN0im3zZTb8r5xyhna3ed8mZps+brTxmX5zstdT19PxtJBb2tM+YyIIIIipC5GfutPoNXLM7TpOLXSqHH6/V/Sa1G/tumqGUba7KlTKos0iqvdBJNtqagvbJk1nHOHYPmGW4NbMgTwmAwKy79tVrJZOdG44S9KlISy5VkeU3TMuoen+TLbQXnOGecv5UtF1c1lrut4udJQ01S57DMaJM6omMY8lgLhwk4Y7FZXYRVW0q85mGHuzbUYttZ6J5Cm59yPNytUZ4p84WSpybSSHVNRmuTcKZ9tZJaA4vdViZ2IbAjEuhir3sN3eqqaal8Pc31Bxe8+SjrqPOPLLzbZP5jKHNtYx1tyfcLRd6mRY8oVtyp33ifaKWmpppuU+mDg5rDMnOaSwFjeGHG4xK6uExsb9a0XNXLQ7/EOFywrilWVVldMla5j0dlnPWSM62mqvuTc42PNtjoZz6atvNluFNX0kmdKltmzJcyfTzJjGuayY1xBMQCDsIXchcjJVTTR5s7Ny3LdlFpvkaaZttBqlpjdcsXPOtr1Gyvcsm2Waae85tpbvRTrZSTmiW4y6isZOMmW4CawkOcD4zfqgsq9Bre3lTTXIaeGuqSg4PefJR11GW1akad327UVgsmfcuXi+3K3S7vbrLQ3SkqKufb5zBMl1kqRLmue+S9rg5sxo4SCCCrG9CTopJvpE8NdjHelBpaaOhFw1L04tOY6fJ101Ay3bc3VgDqTK1VdaOTcpodxQLKR80TXA8DoQbuPQpK/bTo5KvShHC3pR3lCTWmjoc1XKcAoKgSFJIUBb/WgoQxKlBACAEIJAJUhZxaOpARBCjCEQ8ChRQO4qgO6FABgUAmmBgqgZQqQaAEAoBASdqoEgGgPLWfWxzZeekTGfubF9fw9Vw8PLlPyf6gf/AH7vSvQjiLSuds8Zl7VlmQQCUKIoBy/12V9e356455mbjnOP+9185+k/pn9R39lARyxae5Ue6py6kvfl0nwfHv5T6F6EchQ8YEAkAiFTLRBCGSSFQ0c3yP8A13XftTftl1sVmR7fA/fn0I7IXSPoxIQEAIDC4kqhE7ELQaAaASpAQAgBAaOo2KohikrZlmuahDKgEgJc7hHWdiqIQG4RdtKoNO6SdrfAtbxDGJbyYcKu8gapkkNx2uWGwZIEfpKAxPm8OG9aUSGlL3Rit0IfBTQ/LfM5mPX7mtby26i5f0+qaXONac3TL9IlzhVS33W5eSCT2lsuUCwtmcUAzaPXbvnMNC9K5Pumll5enoZ9njrmHhZt9/FyVMlOjpR9WtGaHXXIuneeq/mn1SsV/q6M1Fwps2WNkmlkWy0SKQOnTJjm223tDpbmvmcTpb4DfuXq2ldhGXeyXSuTqR89flYuXILDwa5nyvk5X6j5GZ3zdyzO0R1Nyto3oXnrV24z51VWV/Mbmi1SJ9VS1j5sqfOqpt2lSO3lslNe0ljmSuLi+6evL3eNcnZ7txhFv/1M+mtWsR3sZ3ZxXJuqtHr5deY3jmQraq4ejz5S59ZOdPmy7oKZj3kkiVTU9wkSmRO5suW1o6gtX3XDW/OYwiSxt6mheg5hzzcu+nPLlkrS7VDTSlr7fqLJzjTC85sq7lXV1RX1jZE6u8sm+VT5jWzPKKfjJYGxjiuTHYWNiMZRz1OHhWPnipzjOm7TIqZloO3efzKUrUHmH5R8kVFTMpKDNldXWm8TZMx8qYaCqq6KVWMa9mIL5DntA2GMDhFc/Eob96EdOTrOtwW67eGuz0VepHA+dzIeVNGrJoHy/aQ5JmW7I2pucqi75oypTXefTPvlZTTLdSyKSdcq+bP7MP8AKIB00mXLcGP4fEXHj7UbSjbgqJury583Kzl4RfniHO7cdZRVFkzLK8y/qYsrcueuOTtZtI8/6QcqNboPRZcusmTn/h1Ft2Y5F0tM+dJbVNmSqipZNbCSJkWsLg4lpawOaCYsNdjcjKEN2mf8SdRLH2J2pwu3VOqyfgap5chyDULSPLGtfpIcy5Kzqauoyicm0Nxv9lpaqdSC4yqSlpXSqWfMkOZM7PtjLmENcDFggQYFW5aV3GOMs3sFnESscOU458tPzM33Q7TPLmhvpD866e6eNqbPki45BNwlZfdUz6hkvtBRv7N0ye+Y+YGzWuc0vcXDihFasW1axbjHNT1GMXeeI4cpzyuvra9B1Lyqcv2m+vOtHNtJ1PttXf7FljOHaUdglXCtoad9XWXC8tZUzRRzpJe+SyU9rOI4cbukrGBwsb8572ZPac/FMdcw1u33eRtZ+inpOScoeZLrpBlD0g9oyzMfMtujlRW3HJ9FMcXiVU00u9SBNcXRjFlvkcR2kMWsFJ24XqcmbrOPicI3ruH3v7s//tyHnLSTQXM2rmilXmOg5Uq/VTNmb5l1dS65v1JpLbPbXmonM7Z1nqngOMqYPHE+LpuLuIB7SOvYw0rtttW6t/3byXUdvFY2Ni8lK6opU/DuN1X+WzMdvc3Fp1Xy/wAjeg+XdaqObR5/sGdHW+vFRWU9fOmUsmkuYonzKimnT5b3eT8DSeMnDxsYrkxcbkMPCNzOmcHD52p4u5K06xaTzUy8p2X6QPTXJN35jeVCouFl8om6n5hl2DPL/Kalnl1up7japEqRBk1olcMurmjilcDjxRLohsObiNqPewyZ3l6jr8FvzWGuKvurJzZGz6vZRypYMi5ZseTsq27zVlzLdHLoLLbu1mz+xp5I4WM7We+ZMdAb3OJ6168IRhFRjmR81duyuzc5urZ8jcx8uejeafSF3zIV+yb5flPMeU6nN16tPnC4yu2vFZNdPn1XbSqlk1vE95PA14YNzQF4rw9uWL3Wsjy9R9RHGXY8OVxP8SyVos1aeg4VqVbcw6485us1pvWi1ZzE0GntJJt+XdPznGRlGRbKMNkB1U17iybOD5ry4iW8Yvi+I4AM3E72JlWO/TkrunJbccNgoUn3daZd3eyvKeheU/SfWvSKt17oMy6Z12mGkWaLLPuWT8rVeZLfmFlurpbHMmSWTqWcZrjMlvJL3SmxaxoeXOAJ7GFs3bO/VUi0+VPKdTHYqxiHa3Zb01JVdGsnn5+c8l6B8smmueuS7V3WPOVBVXrOmXLXmefketNdVyZVrlWWhdVypcuRKnNlP46kzHuExhB4sADFx6mGwsJ4ec3nVaeZVO/jcfctYu3aj7rpXnq6G5ZJ5dMg575D8y65Zx863/Uey2a5nKN6qrlVGXaqCw1D6emoKalbMEjsSJTyWvY4xe4tLcEhhoywzuPOsxbuNnDHRsxpuvPkzto7A17rqy4+jI0Uqq6pmVdSamxSjPmuLnFkkVkqWCTj4rGgDuLd91wcOnacOFSXE7tOz+kfMxymaNaW8rtu1jyLNudHqZYXWC7Mz6271U6ou9TcKiQyZOcHzXSmOjPM9jpDWOBYDxERjcThLduwpxz5MumpnBcRvXcXK1L3cuSmanllqcJ16zvnXXPUHk8yLf8AJdRqXS5g02tWcLjpxJvbcuS77drnSVRnTDXTj2cnhbScTCfGgXy2OBmRXHfuSvStxar+FZK0q+k5sJahhrd6cWo/iarSu6lzLQd06AaFa36a8yuWM6ZR5eKvQnSO62+datRctOzxb8z000djPdJqQTUCpi2cZRDeGYWkOgQ17guzh8Pdt3lKMN2PKqpnSxeNsXsNKE7m/POnuuPs5uQ4tpVoBpzrxzg829NqdbqnMGX8sXwz6bLkutqqKnnVdVUT2MqJrqObJmOdJYx7WDjh47oxXHYw8L2IuKeVJv0nPi8Zcw2CtO26NpZfNznP9ac2crWUuYWubesj505idQrDYJFjptJaO10V7y3lyjkSqbhEmkqJLHCYWHiLoz4Oc4O4Dww5L87ELuZyaVKf2ry85w4W1i7uHX4owi3XeyqTrl6/NkOr+Qq0WjUC/c4mn+ZMp1WX8iZjnS312l1RNqKXzWJtXcGuoXCUaeZKmSWBsl5aGO8QAwhAcWAipu5FrI1m852eLTduNmcXWSefTVes3b0aWm2SqnSXUzVidZePP9vuN5y5R3/ympHBbH2uhqHSPJxNEgxmPLuIy+PdxQwWuG2ou3KdMqquo4+M4iavW7af4XRtc9dZz70aE2XL5VNVnTHtY2VnC+Pmkn1rfMdrxPVgVy8Nf/Xn0v0I63Gl/wB230R/8medNBf/AKZ3Mx/0tqvc1gXWs/wp9P6TvYn/APTtf4/qPTehOjuQNGOVc8yuX7JPuessrSy5Xtma62sqpzmcdA6fJkMpnTfJ2S5DJcuW0iXxcDYcWJXaw9iFrD96l+OjynRxmLuX8Z4eT/17yVNOZ58+U8OaS6DZm1b0Vq8x0HKnX6p5rzdMurqXXJ+pFJbp4rzUTmds60VTwHGVMHjifF03F3EA9pHRsYaV222rdW/7t5LqPUxWNjYvJSuqKVPw7jdV/lszH2f5W7Tqtl/Q3JOX9aaOdR5/sMqooK8VFXT106ZTSaiYKJ8yopp09j3eT8DSeMnDxsYr3MFG5G0o3M6PlOJzs3L7ladYvLmpl5dp6BXbOgIhUCUKVtZ3EIYVSlQwQgoIBIUEAkIU3o6VSEoAQDghQQAhQQCIVIU09O3eqQe0hUBEjaoBxCAIICTtVAkB5ez3/Oy8/tjP3Ji+x4b/AB4eXKz8m+of593pXoRw+ABwXNM8apYWCAQgJUAIUbB90l/XD56xPMzUc5x73uvnP0n9NfqPQOTx/oxaO5Ue6py6U/fl0nwvHV/2n0L0I5CRHuqHitELRAQCQCIVMtEEIZObZI/ruu/am/bLrYrMj3OCe/LoR2OumfRAgEhDE4xwVAkKCASAaAEAlSAgBAaOo2Kohhk7lojNwZj3lSGRAIkARKEMQH07+8FSDxO1AWAgBQAqQl0YGGJ3IDQubMBMW+BciaIQcNoVqQ8scv3K+dENQ9bM/HO3ynbrFdvOgtXm3yLzd++6yq7PtvKp/b/13wx4GetjDGA6GHwvczlKta83tPUxvEPE24Q3abvPWuToPSubcrWjOuVcyZNzBJfUWHNdrq7PeJEt7pb30tbJdInNa9uLSWPMCMRtXZnBTi4vMzo2rjtzU4506nhCy8iWZLVp7f8ARd/MpmZ2i9xbVG05IorPbKSpkzahzp0au5wmT6iV2xD3ym9k1+LTAFefHh8lBw33u6KHsS4xB3Fd7pb65avN0esxZ25FK3OfLrphoDXavNku0zu1TcaXNzcvAmqkTjVdnTuoxcWhhliphx9qYhoi2JJWpcOc7UYb2avJ7TNvjKhfldUPeSyV0eY7j5ruWz857I+X8m/LT5EeYr4y9ecvN3nLteCmn0/Y9l5VScMe34uLiOyEMYjs4zCeIilWlOY6fDsf4OTlu1qqZ6epms1b5d/ypavaI6q/LDzH+RuunVnmHzf5V5x7WbJmcHlHlMrsIdjCPZv29St/Cd7cjOtN0uF4h3FmdrdrvVy1zVVNByDmA5eMl8x2T6bKmbp9baqi0VrLjl3Mdse1lXQ1TRwlzOMOY5r2ktc1w6CIOa1wuLw0b8aPOszOPAY6eEnvRyp50dE6S8jLspZ8y1qLq5rbmjXq/ZGc5+RqW+9syjtryG8MxsqprK95dLcOJobMY0ODSWktBXUtYDdmpTk5UzeVWd3EcY37bhbgob2en9Edu0PLkaPmjvPMp8se0875cZl/5F+b+Hs+GXIl9v5d5SeL9Zjw9gNvrsFzLC0v97Xzeah1nxCuFWH3fPXnrmp6zLJ5eTTcz1w5kflfxeW5XGW/kZ5vhww7MeUeXeUmP6363sd/rlVhf9/e183mD4hXCrD7vLnrz1zU9ZsfLzy0t0Fzjrdm053Ga/yx3mRd/N/m3yHzd2NRcJ/Zdp5VUdvHy6HFws9ZGHjYbwmE7hyda73N07SY/iHiowW7Tdry1rm5loMehnLHRaOZs1+zHXZtZnOi13uwuVZY5ls8jZQyu3uM59O6Z5VUeUB7bgWE8LPWxh40BMPg1Zc6uqlzdO0uM4i8QrdFuuHLWujmWg86Vfo4ZVJW3ax5I5h88ZK0fzDNmzL7pZSumzJM9s4u4pXbislyXsDeBg7ammug3xnOJiOq+F0qozai+TyfqO8uPVo52k5rl8l6zunW/kvy1qpopp5ojlDMv5NcuaeXGTXW2pNv86vnNl01RIe2Y3ymk8ea+oM18ziMXR8XHDlv4GNyEYRdEvOdXC8WnavTuzW85c9PUzlPNHyt0HMjR5JqqfO1fp3nHTyunVuVc2UEk1LpBqHSHzYymz6Z3EHU0t0t7ZrXMcIjeDvF4RX6ZaNHFw/iLwm8t3eUuStNp3tpxla6ZIyJlXKV7zVWZ4vFgt8qkueb7hxiquM9g8epm9pNnv4nkx8aY49LjtXPag4RUW6vSdPE3VduOUY7qfIuQ8r69cmtTq7qtZ9XspazZh0hzPTWuVZr1UWOU8zqmjlveS2TUSKqkmSHPZMLHEmY0gN8TAx6mIwPe3N+MnF+XQeng+LdxZ7qUFJV5deh8o9cOSy3anZ4Zqrp9qfftEdUZ9KyivWbMviZCvlsayWHTZcipo5omGWwMLmzgCA3iaYJfwG/PfjJxkTC8Xdq33c4KceRPk6nU5toVysZe0Sy7neQ3Nd1zxnzUiVw501Evf3SqqZgkult7OWXuc2WHvfM4XzXvJd40x0Gw3YwStRkq1bzs48VxSV+cXu0jF1SXl6jbtLuVr8mnLXnTl4+XXnr5X2/MFB8r/Nfk3k/n2lfTcfkXlc3j7Hj4ods3i2RbtSzhO7tSt1rWuWmlUJieJd9iIXt2m7TJXQ656Bk/lc+SfKxduWj5c+X+dLbd7f8tfNnZdn51qJ1Rx+Q+Vvj2fawh244oRiNiRwe7YdqufloW5xPfxSv7ubkrzaaeo8pc62nH5IeRPJGmvnn5Q/I++2ig89eT+SeUQFW/j7DtZ3B66EON3dXSx1rusNGFa0e09PhWJ8RjZ3KUrHNn7KOT0Xo8bTmhmUJd81yzxdNHKOnpLjR6N1lVNn0tPNcBNMmmqXVHBJk8LjLAbT9oG/1XixW4cN31Gs3u56eWwxd453cppW1v1a3ujTk9Z6M5guUzJmultyg+jvdw03zhp3KMnImcLHhMoZQYBLkvlB8svly3sY9vC9j2keK9vE6PaxOCjdSo6NZjzsFxW5h3Kq3lLK09Ok4/oRye0elOdpuqeftUMwa36oNoXWy2ZrzC6ZCipXlwIkS59RWTQ4scWRdOIALuFreIqYfA93PflJylz+TNYzirvW+6hBQjypf0RzfSTl3/Jbq/rfqt8sPPv5ZK2TWeYfN/kvm3sps6ZweUeUze3j20I9mzZ1rdjC91clOtd44sVxDv7ELW7TdplrnoqaDgmZeUzMMvWjMOtOkWuF10kvGepcuRn+3Ms1DepdbKZ2IIpXVrg2mc4So8Tpc2DjFsBFp45YF945wnut58lTnhxWLsxtXbamo5stOg3PQLlSGguo+p2dqLUSrzjbdTpUl9ztl3t7BcBWsmOnTaqbXyp7Zc3tZk6c5zRTMHjAA+L42sNgu5m5b1a8xnG8U8VbjDc3XF8j9VPWcZ0C5MX8v2ol9v+XNXr3c9NLqys8m0jqZExtHLn1bZTG1E6aKx0qfMly5ZY15pmv4YAuwPFnD4DuZ1Um46PJ+o5MZxfxNvdcEpZPxV8+TJ6zrO2ejes9ivl/obBrrnaw6Q5lmum3vSi3TptPKrGud+sVVWypDJ8rs/ucH05fw/wBUjiuJcKo2lNqL5PJ+o53x/eSbtpzWZ7MmTWc+yFyTfIjlm1M5dfymedPyi3ebdPlh5m7DyPtZVvl9n5F5dM7WHkMY9s312zxceWGA3bMrW9nda06OfmOtd4vv4qN/c91UpXp5ac+g9SaaacUuQNKco6WV1azM1FlqwSLBWV0yn8nZWypUnsXudI7SbwCY2MW8bu6V27VlQtqDy5KHn4jEu7ed1ZG3XoPClZ6N+VSVl2seSeYjO+StIcwzZsy+6WUr5syTPbOLuKV24q5cl7A3gYO2pproN8ZziYjz3wqlVGbUXyeT9R7K4/Wkp2k5rl8l6z1JnTl8m1OiNk0W0e1BuuiNPl11G21Zos/bzK1smnc501j3U9VRPc6oc4umO7QRcSSCu3PC/wCpW7cnGnL5UPNtcQ/3yu3YKdeR5utPNmPQVvpZtFQUNHPqn10+kp5UmdWzI8c57GBrpjolxi4iJiT3V2oqiSZ0bklKTaVKvNoNUtGCUKU31pCEIAQo1QJCCIQBAICSIIAG3BUg3DFGEJQoIUEAIBqkEVQJpgeoqguCpAx7qAlAOKAEAkB5ez44NzXeT/5xkP8AemL7Dh8qYeHlyn5N9QquPu9K9COHtHzVyt1PGZlAUMiQAQlBUlQo2frkv64fPXHPMajnOO+9187+k/pv9R6Cyd/Ne0dyo91Tl0Z+/LpPhuOfyn0L0I5GQoeM0QRHuqmWiFogIBIBEKmWjmmSf66rv2pv2y62JzI9rgnvy6EdjLpn0QFAYnHcFSEwQ1QEICAEAIAQAgEqQEBo6jYqiGOVtC0RmvYqQtAQfGMT61uxUhJPEeoICgFCFIAQAgEhAVqCS0HalQOA2JUAfmICT1Kg0r5TySYiC2mRkdk/pCVJQXYvO8FXeFDUS2Fggdu9ZbqDIoAQEvbxNLYwiiBiFOzfEq7xKFiUwbAm8Wg+EDBKkEqhUlQgwEKkNCkkIZaBAEEBJG1UHG80ZPylne2eZM6ZXtGb7N2zKjzReqKRcKXtpcQyZ2NSyYzibxGBhERWJwjNUkk+k3buztusG0+Z0N+lSZVPJlSJEpkiRIY2XJky2hrGMaINa1ogAABAALaVEYbbystCDQCVAIQEBJCpRIQDuQAgBAJUglAQcFQSUA2bSEDJVKCAEAihCdqAYaTtwQlSwANipCXjYUYRAUKCFHBANUlRIVMEAtmO9aIDSSSCesIGVGCoHEFQEkQVAkAIDyznyLs3XnoExn7kxfV4B/8AXj5cp+UfUOTH3elehHF2hdk8NmRQyCoJKpSSslHL/XJf1w+esTzGo5zjnvdfOfpP6b/UehMmiOV7R3Kj3VOXRn78uk+G45/KfQvQjkah5BJCGWiCI91Uy0QtEBAJAb/l+7yLROqJk+U+YJzA1oZDcY4xIXFdtudKHf4fi44aTck3XQcnOdreP7EqP9x7JcPhZaUek+N2l/bLq2mndnu3RgKSp/3HslfCy0oLjVp/2y6tpPy5t34JU/7j2SnhpaUb+cWuy+raI57tw/sSp/3Hsk8LLSifOrXZfVtF8vLb+B1PgZ7JXwstKHzq12X1bQ+Xdu/BKnwM9kr4WWlE+dWuy+raL5eW78Dqf9x7JPCy0onzu12ZdW0Pl5bfwOp/3Hsk8LLSifPLXZl1bRfL22/gdT4GeyV8JLSh88tdmXVtD5e238DqfAz2SnhJaUT57a7MuraI5+tv4HU+BnslfCS0oj49Z7MuraL5fWz8DqfAz2Svg5aUZ+f2ezLq2m03DUq0yB49DVnuCX7NbjgZvlRxy+pLEc8ZdW00lLqjZ5hAFvrRj0S/ZrkXDpvlRwv6ow/Zl1bTe5WolrcARRVWPUz2Svy+elFX1LYf9suraZTqDawCTR1QA2nxPZJ8unpQf1LYX9suraaX8pNpeeFtDVwG+Ev2a38suaUcf3Vh+zLq2mZuoVrOyiqvAz2Sj4dPSir6nsP+2XVtL/KFax/YVV4GeyU+XT0ov3NY7MuraH5QrX+BVXgZ7JPl09KH3NY7MuraL8odr/AqrwM9kny6elE+5rHZl1bRflDtf4FVeBnslfls9KH3Ph+zLq2knUW1fgNX4GeyT5bPSifdGH7MuraL8o1q/AqvwS/Zq/LJ6UZ+6cP2ZdW0X5R7V+A1fgl+zT5Zc0on3Vh+zLq2i/KPafwGr8Ev2afLLmlD7qw/Yl1bSTqTaRtoavwS/ZqrhdzSjL+rMMv7JdW0n8pFp/AazwS/Zq/K7mldZPu3DdifVtML9TrO08JoKzwS/Zra4VcfKuvYZ+78Mv7J9W0Q1Osx/sCs8Ev2afKbmldewn3hhuxPq2l/lNs5/sGs8Ev2anyq5pXXsH3hhuxPq2h+U2z7PIazwS/Zp8quaV17B934bsT6toflMtGzyGs8Ev2afK7mldewfd+G7E+raH5TLR+A1ngl+zT5Vc0rr2E+8MN2J9W0X5TbP+AVngl+zT5Vc0rr2E+8cN2J9W0k6nWcf2BWeCX7NPlNzSuvYPvHDdifVtD8p9m/AK3wS/Zq/Kbmldewn3lhexPq2kHVCzfgFb4Jfs1flNzSuvYZf1lhexPq2kO1Rsww8grfBL9mr8puaV17CfeeF7E+raA1Rsxw831vgl+zU+U3NK69g+88L2J9W0Z1Rsw/sCt8Ev2avyi5pXXsL96YXsT6tpP5UrMP8X1vgl+zT5Rc0rr2E+9ML2J9W0X5U7L8H1vgl+zT5Pd0rr2D70wvYn1bSfyp2X4PrfBL9mr8ouaV17CfemF7E+raH5U7L8H1vgl+zT5Rc0rr2E+9ML2J9W0k6qWWH+D63wS/Zp8ouaV17CfeuF7E+raY/wAqtk+D67wS/Zq/J7uldewn3thOxPq2gdVbJ8H13gl+zT5Pd0rr2E+9sJ2J9W0Pyq2T4PrvBL9mnye7pXXsL974TsT6toflVsnwfXeCX7NPk93SuvYPvfCdifVtD8qtk+D67wS/Zp8nu6V17B974TsT6toflVsvwfW+CX7NX5Pd7S69hPvbCdifVtD8qtl+D63wS/Zq/J7uldewfe2E7E+raL8qtl+D63wS/ZqfJ7vaXXsH3thOxPq2kHVayfB9d4Jfs1fk93SuvYX71wvYn1bRO1Xsgh/e6t8Ev2avye72l17B964XsT6tovyr2T4OrvBL9mr8mu9pdewfemF7E+raH5V7L8HVvgl+zT5Nd7S69g+9cL2J9W0X5V7L8HVvgl+zT5Nd7S69g+9ML2J9W0Pyr2X4OrfBL9mnya72l17CfemF7E+raSdVrL8HVvgl+zT5Nd7S69hfvTC9ifVtIOq9l+Dq3wS/ZqfJ7naXXsH3nhexPq2ibqxZeIf3urfBL9mnye4/7l17Cv6zwvYn1bSXasWUEjzdW+CX7NX5Pc7S69gX1lhuxPq2i/KzZfg6t8Ev2afJ7naXWX7yw3Yn1bQGrFmOy2V3gl+zT5Pc0rrI/rPDdifVtLGqlmO23Vvc+5+zV+TXO0uvYZ+9ML2J9W0r8qtlH+Lq3wS/Zp8nudpdewfemF7E+raH5VbN8HVvgl+zV+TXO0uvYT7zwvYn1bRflWs3wdW+CX7NX5Nd7S69g+88N2J9W0DqrZiCPN1b4Jfs1fkt3tLr2D7zw3Yn1bTTjVmzfBtb4Jfs1n5Nc7S6zf3hhuxPq2l/lYs3wbW/8H7NX5Nc7S69hPvHDdifVtD8rFm+Da3/AIP2afJrnaXWPvHDdifVtEdWLN8HVv8Awfs0+TXO0usfeWG7E+raA1Ysx/xbW/8AB+zVXBbvaXWPvHDdifVtA6sWUbLdWn/e/Zp8mudpdewfeOG7E+raL8rFmIj5trev9b9mnya52l17C/eWG7E+raQdWLMP8W1vc+5+zT5Pc7S69hfvHDdifVtMv5V7MRHzdW/8H7NbXBbvaXXsM/eOG7E+raL8q9m+Dq3/AIP2avyS72l17B95YbsT6toflXs3wdW/8H7NPkl3tLr2D7xw3Yn1bRflXs3wdW/8H7NT5Jd7S69g+8cN2J9W0xnVqykwFtrSOmEv2axLg9ztLrNfeGG7E+radRZhuUm83uvuciW+VJq3tcyXMhxDhY1uMCRuXsYW07VtQfIfE8VxkcXiZ3YppSpn6EjaOFc55tRoAUoBFQEFDSHL/XJf1w+esXMxqOc4773Xzn6T+m/1HoTJv81rR3Kn3VOXQue/LpPh+Ofyn0L0I5KRFQ8chUEkIZaIIj3VTLRC0QEAkIYZgwWjjkjb+0AdB2/etNGrckWRHYocrVSAPCqZSER4UIQhKAVSNC2qmKCIj3QhCRGMFSUDahmlSSFamHE4xevW99di2dK9nNrt48ZdiOY6cllOX048URRnLBGkqZr5r+zbEMBx61zRVFU612bboZpMsYLMmWETWBoCxU5qAR4UITDBASqQkhUy0QRFUy0YyFTLRJCphok4KmXkMB8Z0PCtHFSpk6kqWnIYJjA4wIXJGRxyiaYygNhgt1MOJBDhuihloQfuKUM1MgdHas0FSoqCosFSEkIZMZ6FojMW+O5U4zGcTiqQsDepUUHBUUMZEO4qmZaJgqQUFQQRBQEkKmGjEQtIy0QhkaoBAJACAapAQpjISpUS7cqVAAgCCoFBUtSYIUSoERFZaKmYthHUVDRTpZc4nYCqRSohiW0datCbzLVICAEA0BMFQCpTTPEHnoOKPOckXkAIGNCBw7zgFaCoFw2DBWooTBZqUfV81SoJI6VCpjlmHi+BctuXISRk2rkITBUGJ7o+KO+VwzkbSBrVxBszAQQwM9KEEhQUAHBGgQVCoJeEyX9cPnrE8zNxznHfe6+c/Sf03+o9C5M/mtaO5U+6py6Fz35dJ8Pxv+U+hehHJVk8gREVSEKgkhDLRBEe6qZaIWiAgIc2IVMNG01ckmMNu5csWcMotGlkVJa7s5uB3FJROW3dqa4iOIXHU5mqigqShJEe6qZIQCghloFQ0LujHpVMNEYqmaDKEaOMXkeLiueB0ryymz0jwzxjuXagjz7rozfaOom8UXYtd9KuVwVDEJupvHDLmgGEHLjq0c9FIYYW+qlTLjQyDYozSCEUBJHzFTJJx3Q6CgJVISQqZaIIiqZaMZHSqZaMTzgVpHDNksbAY7SqRIaFoY3gqow0YNhxxXJU4xEeBCUMbmg7QtJmHEjgHcVqZoSWuGwxUMtC4nDAgpQyLjiqSoielDLZLsBDpVIyQMUIZENUJQy0CpDERDuKpmWiVSCQhLtiqIzCVTJjhiqZKghQIQEqmRIAQDQEkIEQQqaBACpAVKEIoCCFS1EqUxubGKy0VMyDEBCMSJgFoAgBANACoEUBimti2I3FVmovKYWgk4BDbMmDduJ6FTOcR8bajZcwhBZqAgpUFAKAHN39KoTMOwx6EToaMoXZWUyQ50cB3yuOcipA1i4Q2ZeFQzUUEA+pUCQBBAMhAYysmgZ+uy/rh89YuZmajnOOe9185+k/pz9R6FyZ/Na0dyp91Tl0Lnvy6T4fjf8AKfQvQjkyyeSJCCIiqQhUEkIZaIIj3VTLRC0QREUI1UxvlhwWkZcTZqqljiNu5csZHBKLWUwSKkyyJc0bMA5SUTmhdqbjtxGKwczEQhGiCI91UyTh30JUUEDY4KmWTBUyydo2QhsQhxi9kBpJ2Bdi2dG/kZx2jjNePqY4LtwyI825lZzKlkeKMMVXLKWEDcOy4e8s1OWlBxhgcetKFqBEcQUqRxJiVTI4x7qCtQQhDu5iqSpCEEQqRoxP+ctI45GnhxOhuC1U4aVZkgoclCYKmaEkRwVRho0pC5EcbEOhCZhEKpkaIIVMNAEJQZAKlSUMRaP01ow0aZpD3GGwLWY4llZW04oQsBQ0kCAnuqmRIQFQYiIdxVMw0SqQxvVRhmElUmYkER6lTJcQRtQVIJQVJihAQAlQKKooIlCiQFQQgKgmCpRKlBASQqUghUoxsCgYR6QoBJUAqAVAIBoAVBJhAx2QxVBh4gMGeFK6DdNIQWagOEqVLUIISo4IBoQcN3SqgQWRUKmKBAgtbxaiDOlZFTIGqGajigDagEqAI/TRlF3EAigIKyaBn67L+uHz1ieZmonHPe6+c/Sf05+o9D5MbHKto6YVPuqcuhc9+XSfEcbX/ZfQvQjkiyeQCASEERFUhCoJIQy0QRHuqmWiFogIDE9odEFUwzaKqkjEjb0rljI4JRoaOTUPkES5oi3cVZQqbt3eRm5gtcA5uMdhXGdnnAhCNEEeFUySqZY0ILagziMIHqVMvIcEv9R27+xYfEaYPcN5XYtqh59+SZgtcrFoK7KZ0GspzqmZBgWWzsQiaotSppxMLmK1ONxMJBbsWjGYXFHarQtagW7wdiVMtCj3ihkIg91UgkBBCENO8xMNq2jhllEGwCVNKNECpAKEZBGBVRlo0zhAraOJojYtGQJwQEoZJgqZaCEUIaepeGSnHYTg091ajnOO48hp2DglCODn495a5ThpRGdrTBZqaoZAOlCkkKgkhDLRCpgEAIDE4Q7i0YZpnnGC0jjZBbgrUOJPCEJuhwoTdDhQbouFUlCSEAu8gBUEu2d9CoY2lCFoQapCYIUUIKlJVAIUhwVRUDdioY1GCYKASFBUAqAQDVAvoogaWEHEdChy1MoCyYZSEHBUBwhKiocKCo4QQBBCBAKFqEAgqKBQCVAIAIQoh0KgSgEVCkFQomfrkv64fPWJ5mbRxz3uvnP0n9OfqPROSv5q2fuVPuqcvPue/LpPiuNfyX0L0I5M5scRtWTyGjGqZBAJCCIiqQhUEkIZaIIj3VTLRC0QRgUI0Q9sQqZkjaaqmDgfFXLGRwzibbKmPpn8L48B3dC1JVFudM5u7XNeAWkEHoXEduoj81CNEkKmGhQVJQSENruVT2UoymO+7TcGgbhvJXLbjVnWvz3VQ4nVSCJYJGMd67CZ5rqai2t8ZvUtow1lOa04g0LLOxBGpIG9DZjI3LRloxlscCqcbRhezwKpnG0YCHN3rZjMMODsDtUoWtRQKploUetDJje7dFaSMSZDBGLjt3IxFVGRHBCtEkQVMknoVIxIRmBw3LaONowkQWjDQoKmaEwQzQaFJIh3EMtGhqQXzJEvdEucOoQXJF0OCaq0gd40yA2NwCIxLKzUsEBiss1FGSClTdDGRuKphqhBC0QkhDLRCpgEBDtiqMs0bh462cdMpSG2TBUw0ShAQCKpCT1oYYlAIqgh4wHdCppDHrihOQtCDVICARQpKpREKgkoikt3qlZUEISoUSFEqAVAIBogCoMLhB0ekKM2nkKassyyoIQaAFQCAEoAVAKAEAIAUAoKlEoBEKlJVAislJUoUbB90Z9cPnrM1+Fmo5zjHvdfN/pP6d/Uei8lfzVs/cqfdU5efc9+XSfF8a/kvoXoOULJ5BDmxxG1CNGNUyCASEERFUhCoJIQy0QRHuqmWiFogIDE9gcNi0YaNtqKUOBwW4yOGUTah21K4kRczeFtpMlubgbjKnsnCLHY7wuNqhzxlvZjIhugkMtGConNkyXzXfSjAdJ2ALUVV0OOcqKpsEiVMqpzp03EuOHUNy7GSKPNbcnVk3OSGytmK1F1MTjQ0NvwcFyI4mspzGnMWhRnPHMapQ0QYbCqQgwVqR0IKpxswubDuFaTMNGBzcVtM42jHxEHaqZqLtAduB6UoN5MxlvEYxwVMONS/oIaJJQjZMVTFREoRskkb1TJheYFbRhswE7VswTxQ2pQCLu4rQyxcXUoZAu8CUDZojM8edM+pgxnd3rfIdeTytikiOJRsyjWhZNoIw3oWtAJB3oRtMxE7iqYIJVI2SSqZZMVTJje7aqjLZpQYuK0ZWcZMEqVkxVMtk8SVMi4kILiVAiehCMmKpKBFECXbu6EKgB8Z3dVDWQyIjIIASoBKglWpRFUElVFRAOKpWVFCCQoiVKASFBUAqAQAgMcw4A9eKrNRBpWGGZEMglQCVAJUAlQEVUwCgBAKCVKJKgIpUBFAJACqKSlASVSoGH7oz64fPXHc91m1nOMe918z+k/p39R6NySI5Us56qn3VOXn3Pfl0nxnGf5L6F6Dk6yeSJUyQ5scRtQjRjVMggEhBERVIQqCSEMtEER7q0jLRCpAQEOaCqZaNDOpw4HALakcUomyzaeZJcXyiQ7euWqZxKscxmk1YeeB4LXjpWJRoc8LqZqicIxEOlZORs2OdMfWTgxsRJYTh0npXPGO7nOhdnv5FmN5pqYNaMNmxYlIRgaC7SoshvW7bOO8jZaOWWv2b12EzqtZTlEjBoCjOaJqSYoWhJVIyYqmSSUIQYFWpihicFpMy0YXNitVMOJppggFpHDNGmk8RmExg0blp0oYhVs1RKxU5MpJd4VSEF3WqZZPF1qmWSXdaGTC936S3EzIwEnZBciMEEwVISShlk8SEZJcQDDbuRMyzTTMBLljulaRwz0GolDAKNhI1EcIHasmiSUqQUcVTIExSooYz0FWphkGCtTNCDgtVIzTzHQ3qo45GmY44npVZEXxR6EKYyYKkJLiqZYuJDIRVFBRQUCKAUUqWgExgqKEg+Me6oV5jOClTjGlQEVagUUBBKGiYrVS0JJiqik7MYqgcetAEVagEqAUaBMVC0CKoCKoFFUEuxBCpUSwrjZpozBSpgEqQEqASoBUBFChFAKKAIqCgooUSAUSqBq0ARWkAJigMahoGfrjPrh89YnmZpHGfey+Z/Sf07tO/8AKN3r6HLtvpJGTfPkiS6pEm6y7oymbOBqZpiJUySXNgSRjthFeZetSlOTU0sualaHhY6OCd1963vUWnQchOYrlH/s4f8AHcr7wsdzP4i/Kzp7nDO09TF8obj/AKuH/Hcr7wnc3PiL8rJucM7T1MXyhuP+rl/x3K+8J3Nz4i/KybnDO09TIOYa+OOnL4/x3K+8K9zc+IvysjhwvtPVIXyhr/8AVy/47lfeE7m58RflZO74X2nqkHyhr/8AV0/47lfeE7m58RflY7vhfaepi+UNf/q6f8dyvvCvc3PiL8rHd8L7T1SJOYa7fp0/46l/eE7m58RflZO74X2nqkL5Q1v+rp/x1L+8K9zc+Ivysd3wvtPVIRzBWf6u3/HUv7wnc3PiL8rI7fCu09UiTmCr36dv+Opf3hXubvxF+Und8K7b1SF8oKr/AFdv+Opf3hO5u/EX5Sd3wntvVIPlBVf6u5nx1L+8K9zd+Ivyju+E9t6pEOzBU79PH/HUv7wr3N34i/KZdvhPbeqRpJt+mH12nzx/lpn3haVm98RflON2uEdt6pG0zb40u/mG4O6rw36FOuTur3xF+UwrXB+29UthTr3UdkeLIruDefPA2e11O6u9tajldvhPblqlsHTXxgI4chOcf45b9GnVdq/8RflOBWuC1996pbDdm3+dDDT5/wAdM+8Lj7q98RflORWuD9t6pGjq77Fv3bID2jrvLPoSFuNq/wAlxflMTtcG5ZvVLYaGVfJAPi5DcT/HDfe65O6xHbX5facXdcE7b1S2G5MvxgIafvP+WWfeE7rEdtavaa7rgvbeqWwyefn/AOr5/wAcs+8J3V/trV7R3XBfiPVLYI352/T9/wAcs+8K91f7a1e0nc8F+I9UthJvx/1fv+OWfeE7rEdtavaR2eCfEeqWwRv3/wCn7/jln3hXu8R21q9pO54J8R6pbBefv/0/f8ct+8J3eI7a1e0dzwT4j1S2E+fh+ID/AI5b94V7vEdtavaZ7ngfxHqlsIN9Z+IEz45b94V7vE9tavaTueBfEeqew002+SjGOQnj/LA+hIVVvE9tavaccrPAeW49U9hjZfJHDhkR/X/fge91XbxXbWr2lVngHxHqnsH58k/iG/44H3hTu8T21qHc8A+I9U9gG+SfxEmfHA+8J3eJ7a1B2eAfEeqewk3un35Ef8cD7wr3eK7a1E7n6f8AiPVMk3um35Ef8cD3und4rtrUTufp/wCI9Uxee6X8RJnxwPe6vd4rtrUTufp/4j1T2EOvdJvyK/44/wCIWlbxfbWr2kdn6e+I9U9hhN6o4/zGf1f33/uda7vF9tavaZ7n6d+JLVPYBvVHvyM/43/udO7xfbWr2jufp34ktU9hPnqh35Gf8b/3Or3eL7a1e0js/TnxJap7BeeqD8Rn/G597puYvtLV7Sdz9OfElqnsDz1b9+R3/G597qd3jO2tXtJ3P058SWqew03nm3do4uyS+OEB53Oz2utKGM7S1e04ZWPpuv7ktU9hrGXq3QwyNMI/jf8AudZdvGdtavaaVj6b+LLVPYX57t/4jTPjf/iE7vF9tavaO4+m/iy1T2CN6t2/I0z43/4hNzF9tavaR2Ppv4stU9gvPdt35GmfG/8AxCu5jO0tXtM+H+m/iy1T2B57tv4jTPjf/iE3MZ2lq9o8P9N/FlqnsEb1bIfzGmfG/wDxCu5jO0tXtI8P9NfFlqnsJN6te/I8343/AOIV3MZ2lq9pPD/TXxZap7CTerVDHI8z43/udNzGdpavaTw/0z8WWqew0s282gj+ZMwf5XPvdaUMb2lqW0w8P9MfFlqubDE28WfhH+hT/jZ3vdNzG9paltKsP9L0/dlqubB+eLP+JT/jZ3vdNzG9paltL3H0v8WWq5sEbxZt+Snw/jZ3vdNzHdpaltJ3H0v8WWq5sJ88WT8S5nxs73uruY7tLUtpPD/S/wAWWq5sF54sv4lzPjZ3vdNzHdpaltHh/pb4stVzYHniy/iXM+Nne903Md2lqW0eH+lviy1XNgvPFl/EuZ8bO97puY7tLUtpPD/S/wAWX5bmwPO9l/EyZ8bO97q7mO7S1LaPD/S/xZflubA872X8TJnxs73um5ju0tS2jw/0v8WX5bmwRu9m3ZMmd+7O97qqON5ZLUtpPD/S/wAWX5bmwxtu1p4jxZOmHHAC6u97KuON5JLUtpPDfTPxpflubDUtu9mhjkyaf8rH3us7uN7S1LaZ8N9L/Gl+W5sKN4sv4lzfjY+903cb2lqW0eG+l/jS/Lc2E+d7N+Jk342PvdN3G9paltHhvpj40vy3NgvO9m/Eyb8bH3uru43tLUto8N9MfGl+W5sI872f8TZkP42PvdXdxvaWpbSrDfTHxpflubCTdrN+J0341PvdN3HdpaltL4b6Y+NL8s9gvO1m/E+b8an3uru47StS2jw30x8aX5bmwxuutm/FCaP8qn3stKON0rUtpfDfTPxpflnsLbdrNwiOT5vd86n3um7jdK1LaTw30x8aX5Z7B+drN+KE341PvdKY3StS2jw30x8aX5Z7A87Wb8T5vxqfe6UxulaltHhfpj40vyz2C862b8UJvxqfeytMbpWpbR4X6Y+NL8s9hJutm/FGaP8AKp97KUxulaltHhfpn40vyz2E+dLP+KU341PvZWmN0rUtpPC/TXx5flnsF50s/wCKU341PvZVLG6VqW0eE+mvjy/LPYHnS0finN+ND72WqY3StS2k8J9NfHl+WewXnS0finN+ND72SmN0rUto8J9NfHl+Wewxtudn4ifkrOI6POn9zLDWN0rV7Q8H9N/Hl+Wew1LbpZofzSnH/Kn9zrNMbpWr2k8J9NfHl+WewrzrZfxRnfGn9zpTG6Vq9o8J9NfHl+WewXnWy/ijO+NP7nSmN0rV7R4T6a+PL8s9g/Otl/FGd8af3OlMbpWr2jwn018eX5Z7BedLN+KU740/udWmN0rV7SeE+mvjy/LPYLzpZfxTnfGn9zqUxulavaXwn018eX5Z7A86WX8U5/xp/cyqWN0rV7SeE+mvjy/LPYHnSy/ilO+NP7nSmN0rV7S+E+mvjy/LPYLzpZfxTnfGn9zqUxulavaPCfTXx5flnsDzpZfxTnfGn9zpTG6Vq9o8J9NfHl+WewPOlk/FOf8AGn9zq0xulavaXwn018eX5Z7B+dLJ+KU740/udWmN0rV7SeE+mvjy/LPYLzpZPxSnfGn9zq0x2lavaXwn018eX5Z7A86WT8Up/wAaf3OlMdpWr2jwn018eX5Z7A86WT8U5/xp/cyJY3StS2jwn018eX5Z7CfOlj35Tn/Gn9zJTG6Vq9o8J9N/Hl+Wewpl0sge0jKU4mIgPOn9zrMljaPKtXtNLCfTdf35flnsOE+TSfhCn/rHtPWzvXfsX6367/c/ql51fR5Po6+Y/YdvkvLIf//Z;" vertex="1" parent="11">
                    <mxGeometry x="490" y="74.46000000000004" width="240" height="185.54" as="geometry"/>
                </mxCell>
            </root>
        </mxGraphModel>
    </diagram>
</mxfile>